<mxfile host="drawio-plugin" modified="2021-11-19T05:21:33.118Z" agent="5.0 (Windows NT 6.2; Win64; x64) AppleWebKit/537.36 (KHTML, like Gecko) Chrome/89.0.4389.114 Safari/537.36" etag="JDVHRJWNVxiL_x-a35l9" version="14.7.4" type="embed" pages="4"><diagram name="v4" id="tO3d424h9_1YAZObS8Kb"><mxGraphModel dx="968" dy="816" grid="0" gridSize="10" guides="1" tooltips="1" connect="1" arrows="1" fold="1" page="1" pageScale="1" pageWidth="1600" pageHeight="1200" background="#B0E3E6" math="0" shadow="0"><root><mxCell id="sqdpiy8trpQjpCW_eLVI-0"/><mxCell id="sqdpiy8trpQjpCW_eLVI-1" parent="sqdpiy8trpQjpCW_eLVI-0"/><mxCell id="sqdpiy8trpQjpCW_eLVI-2" style="rounded=1;sketch=0;orthogonalLoop=1;jettySize=auto;html=1;entryX=0;entryY=0.5;entryDx=0;entryDy=0;fontColor=#1A1A1A;strokeColor=#182E3E;endArrow=classic;endFill=1;labelBackgroundColor=#B0E3E6;exitX=1;exitY=0.5;exitDx=0;exitDy=0;" parent="sqdpiy8trpQjpCW_eLVI-1" source="sqdpiy8trpQjpCW_eLVI-12" target="sqdpiy8trpQjpCW_eLVI-39" edge="1"><mxGeometry relative="1" as="geometry"><mxPoint x="768" y="327" as="sourcePoint"/></mxGeometry></mxCell><mxCell id="sqdpiy8trpQjpCW_eLVI-3" style="edgeStyle=none;rounded=1;sketch=0;orthogonalLoop=1;jettySize=auto;html=1;entryX=0;entryY=0.5;entryDx=0;entryDy=0;fontColor=#1A1A1A;strokeColor=#182E3E;endArrow=none;endFill=0;labelBackgroundColor=#B0E3E6;strokeWidth=3;exitX=1;exitY=0.75;exitDx=0;exitDy=0;" parent="sqdpiy8trpQjpCW_eLVI-1" source="sqdpiy8trpQjpCW_eLVI-12" target="sqdpiy8trpQjpCW_eLVI-41" edge="1"><mxGeometry relative="1" as="geometry"><mxPoint x="778" y="367" as="sourcePoint"/></mxGeometry></mxCell><mxCell id="sqdpiy8trpQjpCW_eLVI-4" style="edgeStyle=none;rounded=1;sketch=0;orthogonalLoop=1;jettySize=auto;html=1;fontColor=#1A1A1A;endArrow=none;endFill=0;strokeColor=#182E3E;strokeWidth=3;exitX=1;exitY=1;exitDx=0;exitDy=0;" parent="sqdpiy8trpQjpCW_eLVI-1" source="sqdpiy8trpQjpCW_eLVI-12" target="sqdpiy8trpQjpCW_eLVI-43" edge="1"><mxGeometry relative="1" as="geometry"><mxPoint x="738" y="377" as="sourcePoint"/></mxGeometry></mxCell><mxCell id="sqdpiy8trpQjpCW_eLVI-5" style="edgeStyle=none;rounded=1;sketch=0;orthogonalLoop=1;jettySize=auto;html=1;exitX=1;exitY=0;exitDx=0;exitDy=0;fontColor=#1A1A1A;endArrow=none;endFill=0;strokeColor=#182E3E;strokeWidth=1;" parent="sqdpiy8trpQjpCW_eLVI-1" source="sqdpiy8trpQjpCW_eLVI-12" target="sqdpiy8trpQjpCW_eLVI-67" edge="1"><mxGeometry relative="1" as="geometry"><mxPoint x="573" y="307" as="targetPoint"/></mxGeometry></mxCell><mxCell id="sqdpiy8trpQjpCW_eLVI-6" style="edgeStyle=none;rounded=1;sketch=0;orthogonalLoop=1;jettySize=auto;html=1;exitX=0.75;exitY=0;exitDx=0;exitDy=0;entryX=0;entryY=1;entryDx=0;entryDy=0;fontColor=#1A1A1A;endArrow=none;endFill=0;strokeColor=#182E3E;strokeWidth=1;" parent="sqdpiy8trpQjpCW_eLVI-1" source="sqdpiy8trpQjpCW_eLVI-12" target="sqdpiy8trpQjpCW_eLVI-66" edge="1"><mxGeometry relative="1" as="geometry"/></mxCell><mxCell id="sqdpiy8trpQjpCW_eLVI-7" style="edgeStyle=none;rounded=1;sketch=0;orthogonalLoop=1;jettySize=auto;html=1;exitX=0.5;exitY=0;exitDx=0;exitDy=0;entryX=0.5;entryY=1;entryDx=0;entryDy=0;fontColor=#1A1A1A;endArrow=none;endFill=0;strokeColor=#182E3E;strokeWidth=1;" parent="sqdpiy8trpQjpCW_eLVI-1" source="sqdpiy8trpQjpCW_eLVI-12" target="sqdpiy8trpQjpCW_eLVI-64" edge="1"><mxGeometry relative="1" as="geometry"/></mxCell><mxCell id="sqdpiy8trpQjpCW_eLVI-8" style="edgeStyle=none;rounded=1;sketch=0;orthogonalLoop=1;jettySize=auto;html=1;exitX=0.25;exitY=0;exitDx=0;exitDy=0;fontColor=#1A1A1A;endArrow=none;endFill=0;strokeColor=#182E3E;strokeWidth=1;entryX=1;entryY=1;entryDx=0;entryDy=0;" parent="sqdpiy8trpQjpCW_eLVI-1" source="sqdpiy8trpQjpCW_eLVI-12" target="sqdpiy8trpQjpCW_eLVI-65" edge="1"><mxGeometry relative="1" as="geometry"><mxPoint x="468" y="247" as="targetPoint"/></mxGeometry></mxCell><mxCell id="sqdpiy8trpQjpCW_eLVI-10" style="edgeStyle=none;rounded=1;sketch=0;orthogonalLoop=1;jettySize=auto;html=1;exitX=0.25;exitY=1;exitDx=0;exitDy=0;entryX=0.5;entryY=0;entryDx=0;entryDy=0;fontColor=#1A1A1A;endArrow=classic;endFill=1;strokeColor=#182E3E;strokeWidth=1;" parent="sqdpiy8trpQjpCW_eLVI-1" source="sqdpiy8trpQjpCW_eLVI-12" target="sqdpiy8trpQjpCW_eLVI-47" edge="1"><mxGeometry relative="1" as="geometry"/></mxCell><mxCell id="sqdpiy8trpQjpCW_eLVI-11" style="edgeStyle=none;rounded=0;orthogonalLoop=1;jettySize=auto;html=1;exitX=0;exitY=0.75;exitDx=0;exitDy=0;entryX=0.5;entryY=0;entryDx=0;entryDy=0;endArrow=classic;endFill=1;strokeWidth=3;strokeColor=#182E3E;" parent="sqdpiy8trpQjpCW_eLVI-1" source="sqdpiy8trpQjpCW_eLVI-12" target="sqdpiy8trpQjpCW_eLVI-102" edge="1"><mxGeometry relative="1" as="geometry"/></mxCell><mxCell id="sqdpiy8trpQjpCW_eLVI-110" style="edgeStyle=none;rounded=0;orthogonalLoop=1;jettySize=auto;html=1;exitX=0;exitY=1;exitDx=0;exitDy=0;entryX=1;entryY=0;entryDx=0;entryDy=0;endArrow=none;endFill=0;strokeColor=#000000;strokeWidth=1;" parent="sqdpiy8trpQjpCW_eLVI-1" source="sqdpiy8trpQjpCW_eLVI-12" target="sqdpiy8trpQjpCW_eLVI-68" edge="1"><mxGeometry relative="1" as="geometry"/></mxCell><mxCell id="sqdpiy8trpQjpCW_eLVI-12" value="villager" style="rounded=0;whiteSpace=wrap;html=1;sketch=0;fontColor=#1A1A1A;strokeColor=#FFFFFF;fillColor=#F08E81;" parent="sqdpiy8trpQjpCW_eLVI-1" vertex="1"><mxGeometry x="438" y="337" width="120" height="60" as="geometry"/></mxCell><mxCell id="sqdpiy8trpQjpCW_eLVI-13" style="edgeStyle=none;rounded=1;sketch=0;orthogonalLoop=1;jettySize=auto;html=1;exitX=0;exitY=0;exitDx=0;exitDy=0;entryX=0.5;entryY=1;entryDx=0;entryDy=0;fontColor=#1A1A1A;endArrow=none;endFill=0;strokeColor=#182E3E;strokeWidth=3;" parent="sqdpiy8trpQjpCW_eLVI-1" source="sqdpiy8trpQjpCW_eLVI-16" target="sqdpiy8trpQjpCW_eLVI-50" edge="1"><mxGeometry relative="1" as="geometry"/></mxCell><mxCell id="sqdpiy8trpQjpCW_eLVI-14" style="edgeStyle=none;rounded=1;sketch=0;orthogonalLoop=1;jettySize=auto;html=1;exitX=0.5;exitY=0;exitDx=0;exitDy=0;entryX=0.5;entryY=1;entryDx=0;entryDy=0;fontColor=#1A1A1A;endArrow=none;endFill=0;strokeColor=#182E3E;strokeWidth=3;" parent="sqdpiy8trpQjpCW_eLVI-1" source="sqdpiy8trpQjpCW_eLVI-16" target="sqdpiy8trpQjpCW_eLVI-51" edge="1"><mxGeometry relative="1" as="geometry"/></mxCell><mxCell id="sqdpiy8trpQjpCW_eLVI-15" style="edgeStyle=none;rounded=1;sketch=0;orthogonalLoop=1;jettySize=auto;html=1;exitX=1;exitY=0;exitDx=0;exitDy=0;entryX=0.5;entryY=1;entryDx=0;entryDy=0;fontColor=#1A1A1A;endArrow=none;endFill=0;strokeColor=#182E3E;strokeWidth=3;" parent="sqdpiy8trpQjpCW_eLVI-1" source="sqdpiy8trpQjpCW_eLVI-16" target="sqdpiy8trpQjpCW_eLVI-52" edge="1"><mxGeometry relative="1" as="geometry"/></mxCell><mxCell id="sqdpiy8trpQjpCW_eLVI-16" value="coffee" style="rounded=0;whiteSpace=wrap;html=1;sketch=0;fontColor=#1A1A1A;strokeColor=#FFFFFF;fillColor=#F08E81;" parent="sqdpiy8trpQjpCW_eLVI-1" vertex="1"><mxGeometry x="1028" y="237" width="120" height="60" as="geometry"/></mxCell><mxCell id="sqdpiy8trpQjpCW_eLVI-17" style="rounded=1;sketch=0;orthogonalLoop=1;jettySize=auto;html=1;exitX=0;exitY=1;exitDx=0;exitDy=0;entryX=0.5;entryY=0;entryDx=0;entryDy=0;fontColor=#1A1A1A;strokeColor=#182E3E;endArrow=none;endFill=0;strokeWidth=3;" parent="sqdpiy8trpQjpCW_eLVI-1" source="sqdpiy8trpQjpCW_eLVI-21" target="sqdpiy8trpQjpCW_eLVI-45" edge="1"><mxGeometry relative="1" as="geometry"/></mxCell><mxCell id="sqdpiy8trpQjpCW_eLVI-18" style="edgeStyle=none;rounded=1;sketch=0;orthogonalLoop=1;jettySize=auto;html=1;exitX=0.5;exitY=0;exitDx=0;exitDy=0;entryX=0.5;entryY=1;entryDx=0;entryDy=0;fontColor=#1A1A1A;endArrow=none;endFill=0;strokeColor=#182E3E;strokeWidth=3;" parent="sqdpiy8trpQjpCW_eLVI-1" source="sqdpiy8trpQjpCW_eLVI-21" target="sqdpiy8trpQjpCW_eLVI-69" edge="1"><mxGeometry relative="1" as="geometry"/></mxCell><mxCell id="sqdpiy8trpQjpCW_eLVI-19" style="edgeStyle=none;rounded=1;sketch=0;orthogonalLoop=1;jettySize=auto;html=1;exitX=1;exitY=0;exitDx=0;exitDy=0;entryX=0;entryY=1;entryDx=0;entryDy=0;fontColor=#1A1A1A;endArrow=none;endFill=0;strokeColor=#182E3E;strokeWidth=3;" parent="sqdpiy8trpQjpCW_eLVI-1" source="sqdpiy8trpQjpCW_eLVI-21" target="sqdpiy8trpQjpCW_eLVI-70" edge="1"><mxGeometry relative="1" as="geometry"/></mxCell><mxCell id="sqdpiy8trpQjpCW_eLVI-20" style="edgeStyle=none;rounded=1;sketch=0;orthogonalLoop=1;jettySize=auto;html=1;exitX=1;exitY=0.5;exitDx=0;exitDy=0;entryX=0;entryY=0.5;entryDx=0;entryDy=0;fontColor=#1A1A1A;endArrow=none;endFill=0;strokeColor=#182E3E;strokeWidth=1;" parent="sqdpiy8trpQjpCW_eLVI-1" source="sqdpiy8trpQjpCW_eLVI-21" target="sqdpiy8trpQjpCW_eLVI-71" edge="1"><mxGeometry relative="1" as="geometry"/></mxCell><mxCell id="sqdpiy8trpQjpCW_eLVI-103" style="rounded=0;orthogonalLoop=1;jettySize=auto;html=1;exitX=1;exitY=1;exitDx=0;exitDy=0;entryX=0;entryY=0;entryDx=0;entryDy=0;endArrow=none;endFill=0;strokeWidth=3;strokeColor=#182E3E;" parent="sqdpiy8trpQjpCW_eLVI-1" source="sqdpiy8trpQjpCW_eLVI-21" target="sqdpiy8trpQjpCW_eLVI-95" edge="1"><mxGeometry relative="1" as="geometry"/></mxCell><mxCell id="sqdpiy8trpQjpCW_eLVI-109" style="edgeStyle=none;rounded=0;orthogonalLoop=1;jettySize=auto;html=1;exitX=0;exitY=0.5;exitDx=0;exitDy=0;entryX=1;entryY=1;entryDx=0;entryDy=0;endArrow=none;endFill=0;strokeWidth=3;strokeColor=#182E3E;" parent="sqdpiy8trpQjpCW_eLVI-1" source="sqdpiy8trpQjpCW_eLVI-21" target="sqdpiy8trpQjpCW_eLVI-107" edge="1"><mxGeometry relative="1" as="geometry"/></mxCell><mxCell id="sqdpiy8trpQjpCW_eLVI-117" value="" style="edgeStyle=none;rounded=1;orthogonalLoop=1;jettySize=auto;html=1;endArrow=none;endFill=0;strokeColor=#182E3E;strokeWidth=3;" parent="sqdpiy8trpQjpCW_eLVI-1" source="sqdpiy8trpQjpCW_eLVI-21" target="sqdpiy8trpQjpCW_eLVI-69" edge="1"><mxGeometry relative="1" as="geometry"/></mxCell><mxCell id="sqdpiy8trpQjpCW_eLVI-21" value="house" style="rounded=0;whiteSpace=wrap;html=1;sketch=0;fontColor=#1A1A1A;strokeColor=#FFFFFF;fillColor=#F08E81;" parent="sqdpiy8trpQjpCW_eLVI-1" vertex="1"><mxGeometry x="1070" y="720" width="120" height="60" as="geometry"/></mxCell><mxCell id="sqdpiy8trpQjpCW_eLVI-22" style="rounded=1;sketch=0;orthogonalLoop=1;jettySize=auto;html=1;exitX=0.25;exitY=0;exitDx=0;exitDy=0;entryX=0.5;entryY=1;entryDx=0;entryDy=0;fontColor=#1A1A1A;endArrow=none;endFill=0;strokeColor=#182E3E;strokeWidth=3;" parent="sqdpiy8trpQjpCW_eLVI-1" source="sqdpiy8trpQjpCW_eLVI-27" target="sqdpiy8trpQjpCW_eLVI-74" edge="1"><mxGeometry relative="1" as="geometry"/></mxCell><mxCell id="sqdpiy8trpQjpCW_eLVI-23" style="edgeStyle=none;rounded=1;sketch=0;orthogonalLoop=1;jettySize=auto;html=1;exitX=0.75;exitY=0;exitDx=0;exitDy=0;entryX=0;entryY=1;entryDx=0;entryDy=0;fontColor=#1A1A1A;endArrow=none;endFill=0;strokeColor=#182E3E;strokeWidth=3;" parent="sqdpiy8trpQjpCW_eLVI-1" source="sqdpiy8trpQjpCW_eLVI-27" target="sqdpiy8trpQjpCW_eLVI-75" edge="1"><mxGeometry relative="1" as="geometry"/></mxCell><mxCell id="sqdpiy8trpQjpCW_eLVI-24" style="edgeStyle=none;rounded=1;sketch=0;orthogonalLoop=1;jettySize=auto;html=1;exitX=1;exitY=0;exitDx=0;exitDy=0;entryX=0;entryY=0.5;entryDx=0;entryDy=0;fontColor=#1A1A1A;endArrow=none;endFill=0;strokeColor=#182E3E;strokeWidth=1;" parent="sqdpiy8trpQjpCW_eLVI-1" source="sqdpiy8trpQjpCW_eLVI-27" target="sqdpiy8trpQjpCW_eLVI-76" edge="1"><mxGeometry relative="1" as="geometry"/></mxCell><mxCell id="sqdpiy8trpQjpCW_eLVI-25" style="edgeStyle=none;rounded=1;sketch=0;orthogonalLoop=1;jettySize=auto;html=1;exitX=1;exitY=0.75;exitDx=0;exitDy=0;fontColor=#1A1A1A;endArrow=none;endFill=0;strokeColor=#182E3E;strokeWidth=1;" parent="sqdpiy8trpQjpCW_eLVI-1" source="sqdpiy8trpQjpCW_eLVI-27" target="sqdpiy8trpQjpCW_eLVI-78" edge="1"><mxGeometry relative="1" as="geometry"/></mxCell><mxCell id="sqdpiy8trpQjpCW_eLVI-26" style="edgeStyle=none;rounded=1;sketch=0;orthogonalLoop=1;jettySize=auto;html=1;exitX=0;exitY=0.5;exitDx=0;exitDy=0;entryX=1;entryY=0.5;entryDx=0;entryDy=0;fontColor=#1A1A1A;endArrow=none;endFill=0;strokeWidth=3;strokeColor=#182E3E;" parent="sqdpiy8trpQjpCW_eLVI-1" source="sqdpiy8trpQjpCW_eLVI-27" target="sqdpiy8trpQjpCW_eLVI-77" edge="1"><mxGeometry relative="1" as="geometry"/></mxCell><mxCell id="sqdpiy8trpQjpCW_eLVI-27" value="furniture" style="rounded=0;whiteSpace=wrap;html=1;sketch=0;fontColor=#1A1A1A;strokeColor=#FFFFFF;fillColor=#F08E81;" parent="sqdpiy8trpQjpCW_eLVI-1" vertex="1"><mxGeometry x="1028" y="987" width="120" height="60" as="geometry"/></mxCell><mxCell id="sqdpiy8trpQjpCW_eLVI-28" style="edgeStyle=none;rounded=1;sketch=0;orthogonalLoop=1;jettySize=auto;html=1;exitX=0;exitY=0;exitDx=0;exitDy=0;entryX=0.5;entryY=1;entryDx=0;entryDy=0;fontColor=#1A1A1A;endArrow=none;endFill=0;strokeWidth=3;strokeColor=#182E3E;" parent="sqdpiy8trpQjpCW_eLVI-1" source="sqdpiy8trpQjpCW_eLVI-30" target="sqdpiy8trpQjpCW_eLVI-73" edge="1"><mxGeometry relative="1" as="geometry"/></mxCell><mxCell id="sqdpiy8trpQjpCW_eLVI-29" style="edgeStyle=none;rounded=1;sketch=0;orthogonalLoop=1;jettySize=auto;html=1;exitX=0.75;exitY=0;exitDx=0;exitDy=0;entryX=0.5;entryY=1;entryDx=0;entryDy=0;fontColor=#1A1A1A;endArrow=none;endFill=0;strokeWidth=3;strokeColor=#182E3E;" parent="sqdpiy8trpQjpCW_eLVI-1" source="sqdpiy8trpQjpCW_eLVI-30" target="sqdpiy8trpQjpCW_eLVI-72" edge="1"><mxGeometry relative="1" as="geometry"/></mxCell><mxCell id="sqdpiy8trpQjpCW_eLVI-30" value="game" style="rounded=0;whiteSpace=wrap;html=1;sketch=0;fontColor=#1A1A1A;strokeColor=#FFFFFF;fillColor=#F08E81;" parent="sqdpiy8trpQjpCW_eLVI-1" vertex="1"><mxGeometry x="708" y="657" width="120" height="60" as="geometry"/></mxCell><mxCell id="sqdpiy8trpQjpCW_eLVI-31" style="edgeStyle=none;rounded=1;sketch=0;orthogonalLoop=1;jettySize=auto;html=1;entryX=0.5;entryY=1;entryDx=0;entryDy=0;fontColor=#1A1A1A;endArrow=none;endFill=0;strokeColor=#182E3E;strokeWidth=3;exitX=0;exitY=0;exitDx=0;exitDy=0;" parent="sqdpiy8trpQjpCW_eLVI-1" source="sqdpiy8trpQjpCW_eLVI-34" target="sqdpiy8trpQjpCW_eLVI-80" edge="1"><mxGeometry relative="1" as="geometry"><mxPoint x="358" y="817" as="sourcePoint"/></mxGeometry></mxCell><mxCell id="sqdpiy8trpQjpCW_eLVI-32" style="edgeStyle=none;rounded=1;sketch=0;orthogonalLoop=1;jettySize=auto;html=1;exitX=0.75;exitY=0;exitDx=0;exitDy=0;entryX=0;entryY=1;entryDx=0;entryDy=0;fontColor=#1A1A1A;endArrow=none;endFill=0;strokeColor=#182E3E;strokeWidth=3;" parent="sqdpiy8trpQjpCW_eLVI-1" source="sqdpiy8trpQjpCW_eLVI-34" target="sqdpiy8trpQjpCW_eLVI-79" edge="1"><mxGeometry relative="1" as="geometry"/></mxCell><mxCell id="sqdpiy8trpQjpCW_eLVI-33" style="edgeStyle=none;rounded=1;sketch=0;orthogonalLoop=1;jettySize=auto;html=1;exitX=0.5;exitY=1;exitDx=0;exitDy=0;entryX=0.5;entryY=0;entryDx=0;entryDy=0;fontColor=#1A1A1A;endArrow=none;endFill=0;strokeColor=#182E3E;strokeWidth=3;" parent="sqdpiy8trpQjpCW_eLVI-1" source="sqdpiy8trpQjpCW_eLVI-34" target="sqdpiy8trpQjpCW_eLVI-49" edge="1"><mxGeometry relative="1" as="geometry"/></mxCell><mxCell id="sqdpiy8trpQjpCW_eLVI-34" value="amiibo" style="rounded=0;whiteSpace=wrap;html=1;sketch=0;fontColor=#1A1A1A;strokeColor=#FFFFFF;fillColor=#F08E81;" parent="sqdpiy8trpQjpCW_eLVI-1" vertex="1"><mxGeometry x="368" y="817" width="120" height="60" as="geometry"/></mxCell><mxCell id="sqdpiy8trpQjpCW_eLVI-35" style="edgeStyle=none;rounded=1;sketch=0;orthogonalLoop=1;jettySize=auto;html=1;exitX=0;exitY=1;exitDx=0;exitDy=0;entryX=0.5;entryY=0;entryDx=0;entryDy=0;fontColor=#1A1A1A;endArrow=none;endFill=0;strokeColor=#182E3E;strokeWidth=3;" parent="sqdpiy8trpQjpCW_eLVI-1" source="sqdpiy8trpQjpCW_eLVI-37" target="sqdpiy8trpQjpCW_eLVI-81" edge="1"><mxGeometry relative="1" as="geometry"/></mxCell><mxCell id="sqdpiy8trpQjpCW_eLVI-36" style="edgeStyle=none;rounded=1;sketch=0;orthogonalLoop=1;jettySize=auto;html=1;exitX=1;exitY=1;exitDx=0;exitDy=0;entryX=0.5;entryY=0;entryDx=0;entryDy=0;fontColor=#1A1A1A;endArrow=none;endFill=0;strokeColor=#182E3E;strokeWidth=3;" parent="sqdpiy8trpQjpCW_eLVI-1" source="sqdpiy8trpQjpCW_eLVI-37" target="sqdpiy8trpQjpCW_eLVI-55" edge="1"><mxGeometry relative="1" as="geometry"/></mxCell><mxCell id="sqdpiy8trpQjpCW_eLVI-37" value="nfc tag" style="rounded=0;whiteSpace=wrap;html=1;sketch=0;fontColor=#1A1A1A;strokeColor=#FFFFFF;fillColor=#F08E81;" parent="sqdpiy8trpQjpCW_eLVI-1" vertex="1"><mxGeometry x="548" y="917" width="120" height="60" as="geometry"/></mxCell><mxCell id="sqdpiy8trpQjpCW_eLVI-38" style="edgeStyle=none;rounded=1;sketch=0;orthogonalLoop=1;jettySize=auto;html=1;exitX=0;exitY=0.5;exitDx=0;exitDy=0;entryX=1;entryY=0.5;entryDx=0;entryDy=0;fontColor=#1A1A1A;strokeColor=#182E3E;endArrow=none;endFill=0;labelBackgroundColor=#B0E3E6;" parent="sqdpiy8trpQjpCW_eLVI-1" source="sqdpiy8trpQjpCW_eLVI-16" target="sqdpiy8trpQjpCW_eLVI-39" edge="1"><mxGeometry relative="1" as="geometry"/></mxCell><mxCell id="sqdpiy8trpQjpCW_eLVI-39" value="drinks" style="rhombus;whiteSpace=wrap;html=1;rounded=0;sketch=0;fontColor=#1A1A1A;strokeColor=#FFFFFF;fillColor=#F08E81;" parent="sqdpiy8trpQjpCW_eLVI-1" vertex="1"><mxGeometry x="853" y="227" width="80" height="80" as="geometry"/></mxCell><mxCell id="sqdpiy8trpQjpCW_eLVI-40" style="edgeStyle=none;rounded=1;sketch=0;orthogonalLoop=1;jettySize=auto;html=1;exitX=0;exitY=0;exitDx=0;exitDy=0;fontColor=#1A1A1A;strokeColor=#182E3E;endArrow=classic;endFill=1;labelBackgroundColor=#B0E3E6;strokeWidth=3;entryX=0.5;entryY=1;entryDx=0;entryDy=0;" parent="sqdpiy8trpQjpCW_eLVI-1" source="sqdpiy8trpQjpCW_eLVI-21" target="sqdpiy8trpQjpCW_eLVI-41" edge="1"><mxGeometry relative="1" as="geometry"><mxPoint x="1058" y="497" as="targetPoint"/></mxGeometry></mxCell><mxCell id="sqdpiy8trpQjpCW_eLVI-41" value="lives in" style="rhombus;whiteSpace=wrap;html=1;rounded=0;sketch=0;fontColor=#1A1A1A;strokeColor=#FFFFFF;fillColor=#F08E81;" parent="sqdpiy8trpQjpCW_eLVI-1" vertex="1"><mxGeometry x="988" y="407" width="80" height="80" as="geometry"/></mxCell><mxCell id="sqdpiy8trpQjpCW_eLVI-42" style="edgeStyle=none;rounded=1;sketch=0;orthogonalLoop=1;jettySize=auto;html=1;exitX=0.5;exitY=1;exitDx=0;exitDy=0;entryX=0.25;entryY=0;entryDx=0;entryDy=0;fontColor=#1A1A1A;endArrow=none;endFill=0;strokeWidth=3;strokeColor=#182E3E;" parent="sqdpiy8trpQjpCW_eLVI-1" source="sqdpiy8trpQjpCW_eLVI-43" target="sqdpiy8trpQjpCW_eLVI-30" edge="1"><mxGeometry relative="1" as="geometry"/></mxCell><mxCell id="sqdpiy8trpQjpCW_eLVI-43" value="featured in" style="rhombus;whiteSpace=wrap;html=1;rounded=0;sketch=0;fontColor=#1A1A1A;strokeColor=#FFFFFF;fillColor=#F08E81;" parent="sqdpiy8trpQjpCW_eLVI-1" vertex="1"><mxGeometry x="718" y="457" width="80" height="80" as="geometry"/></mxCell><mxCell id="sqdpiy8trpQjpCW_eLVI-44" style="edgeStyle=none;rounded=1;sketch=0;orthogonalLoop=1;jettySize=auto;html=1;exitX=0;exitY=0;exitDx=0;exitDy=0;entryX=0.5;entryY=1;entryDx=0;entryDy=0;fontColor=#1A1A1A;endArrow=none;endFill=0;strokeColor=#182E3E;strokeWidth=3;" parent="sqdpiy8trpQjpCW_eLVI-1" source="sqdpiy8trpQjpCW_eLVI-27" target="sqdpiy8trpQjpCW_eLVI-45" edge="1"><mxGeometry relative="1" as="geometry"/></mxCell><mxCell id="sqdpiy8trpQjpCW_eLVI-45" value="contains" style="rhombus;whiteSpace=wrap;html=1;rounded=0;sketch=0;fontColor=#1A1A1A;strokeColor=#FFFFFF;fillColor=#F08E81;" parent="sqdpiy8trpQjpCW_eLVI-1" vertex="1"><mxGeometry x="893" y="847" width="80" height="80" as="geometry"/></mxCell><mxCell id="sqdpiy8trpQjpCW_eLVI-46" style="edgeStyle=none;rounded=1;sketch=0;orthogonalLoop=1;jettySize=auto;html=1;exitX=0.5;exitY=0;exitDx=0;exitDy=0;entryX=0.5;entryY=1;entryDx=0;entryDy=0;fontColor=#1A1A1A;endArrow=classic;endFill=1;strokeColor=#182E3E;strokeWidth=1;" parent="sqdpiy8trpQjpCW_eLVI-1" source="sqdpiy8trpQjpCW_eLVI-34" target="sqdpiy8trpQjpCW_eLVI-47" edge="1"><mxGeometry relative="1" as="geometry"/></mxCell><mxCell id="sqdpiy8trpQjpCW_eLVI-47" value="has" style="rhombus;whiteSpace=wrap;html=1;rounded=0;sketch=0;fontColor=#1A1A1A;strokeColor=#FFFFFF;fillColor=#F08E81;" parent="sqdpiy8trpQjpCW_eLVI-1" vertex="1"><mxGeometry x="383" y="627" width="80" height="80" as="geometry"/></mxCell><mxCell id="sqdpiy8trpQjpCW_eLVI-48" style="edgeStyle=none;rounded=1;sketch=0;orthogonalLoop=1;jettySize=auto;html=1;fontColor=#1A1A1A;endArrow=classic;endFill=1;strokeColor=#182E3E;strokeWidth=1;entryX=1;entryY=0.5;entryDx=0;entryDy=0;exitX=0;exitY=0.5;exitDx=0;exitDy=0;" parent="sqdpiy8trpQjpCW_eLVI-1" source="sqdpiy8trpQjpCW_eLVI-37" target="sqdpiy8trpQjpCW_eLVI-49" edge="1"><mxGeometry relative="1" as="geometry"><mxPoint x="528" y="927" as="sourcePoint"/><mxPoint x="508" y="957" as="targetPoint"/></mxGeometry></mxCell><mxCell id="sqdpiy8trpQjpCW_eLVI-49" value="written to" style="rhombus;whiteSpace=wrap;html=1;rounded=0;sketch=0;fontColor=#1A1A1A;strokeColor=#FFFFFF;fillColor=#F08E81;" parent="sqdpiy8trpQjpCW_eLVI-1" vertex="1"><mxGeometry x="388" y="907" width="80" height="80" as="geometry"/></mxCell><mxCell id="sqdpiy8trpQjpCW_eLVI-50" value="beans" style="ellipse;whiteSpace=wrap;html=1;rounded=0;sketch=0;fontColor=#1A1A1A;strokeColor=#FFFFFF;fillColor=#F08E81;" parent="sqdpiy8trpQjpCW_eLVI-1" vertex="1"><mxGeometry x="938" y="127" width="90" height="60" as="geometry"/></mxCell><mxCell id="sqdpiy8trpQjpCW_eLVI-51" value="milk" style="ellipse;whiteSpace=wrap;html=1;rounded=0;sketch=0;fontColor=#1A1A1A;strokeColor=#FFFFFF;fillColor=#F08E81;" parent="sqdpiy8trpQjpCW_eLVI-1" vertex="1"><mxGeometry x="1043" y="127" width="90" height="60" as="geometry"/></mxCell><mxCell id="sqdpiy8trpQjpCW_eLVI-52" value="sugar" style="ellipse;whiteSpace=wrap;html=1;rounded=0;sketch=0;fontColor=#1A1A1A;strokeColor=#FFFFFF;fillColor=#F08E81;" parent="sqdpiy8trpQjpCW_eLVI-1" vertex="1"><mxGeometry x="1148" y="127" width="90" height="60" as="geometry"/></mxCell><mxCell id="sqdpiy8trpQjpCW_eLVI-53" style="edgeStyle=none;rounded=1;sketch=0;orthogonalLoop=1;jettySize=auto;html=1;exitX=0.5;exitY=0;exitDx=0;exitDy=0;fontColor=#1A1A1A;endArrow=none;endFill=0;strokeColor=#182E3E;strokeWidth=3;entryX=0.75;entryY=1;entryDx=0;entryDy=0;" parent="sqdpiy8trpQjpCW_eLVI-1" source="sqdpiy8trpQjpCW_eLVI-54" target="sqdpiy8trpQjpCW_eLVI-12" edge="1"><mxGeometry relative="1" as="geometry"><mxPoint x="518" y="417" as="targetPoint"/></mxGeometry></mxCell><mxCell id="sqdpiy8trpQjpCW_eLVI-54" value="&lt;u&gt;id&lt;br&gt;&lt;/u&gt;" style="ellipse;whiteSpace=wrap;html=1;rounded=0;sketch=0;fontColor=#1A1A1A;strokeColor=#FFFFFF;fillColor=#F08E81;" parent="sqdpiy8trpQjpCW_eLVI-1" vertex="1"><mxGeometry x="548" y="430" width="90" height="60" as="geometry"/></mxCell><mxCell id="sqdpiy8trpQjpCW_eLVI-55" value="drawn?" style="ellipse;whiteSpace=wrap;html=1;rounded=0;sketch=0;fontColor=#1A1A1A;strokeColor=#FFFFFF;fillColor=#F08E81;" parent="sqdpiy8trpQjpCW_eLVI-1" vertex="1"><mxGeometry x="628" y="1007" width="90" height="60" as="geometry"/></mxCell><mxCell id="sqdpiy8trpQjpCW_eLVI-57" value="species" style="ellipse;whiteSpace=wrap;html=1;rounded=0;sketch=0;fontColor=#1A1A1A;strokeColor=#FFFFFF;fillColor=#F08E81;" parent="sqdpiy8trpQjpCW_eLVI-1" vertex="1"><mxGeometry x="288" y="277" width="90" height="60" as="geometry"/></mxCell><mxCell id="sqdpiy8trpQjpCW_eLVI-58" style="edgeStyle=none;rounded=1;sketch=0;orthogonalLoop=1;jettySize=auto;html=1;exitX=1;exitY=0.5;exitDx=0;exitDy=0;entryX=0;entryY=0.5;entryDx=0;entryDy=0;fontColor=#1A1A1A;endArrow=none;endFill=0;strokeColor=#182E3E;strokeWidth=1;" parent="sqdpiy8trpQjpCW_eLVI-1" source="sqdpiy8trpQjpCW_eLVI-59" target="sqdpiy8trpQjpCW_eLVI-12" edge="1"><mxGeometry relative="1" as="geometry"/></mxCell><mxCell id="sqdpiy8trpQjpCW_eLVI-59" value="subtype" style="ellipse;whiteSpace=wrap;html=1;rounded=0;sketch=0;fontColor=#1A1A1A;strokeColor=#FFFFFF;fillColor=#F08E81;" parent="sqdpiy8trpQjpCW_eLVI-1" vertex="1"><mxGeometry x="288" y="347" width="90" height="60" as="geometry"/></mxCell><mxCell id="sqdpiy8trpQjpCW_eLVI-60" style="edgeStyle=none;rounded=1;sketch=0;orthogonalLoop=1;jettySize=auto;html=1;entryX=0;entryY=0.25;entryDx=0;entryDy=0;fontColor=#1A1A1A;endArrow=none;endFill=0;strokeColor=#182E3E;strokeWidth=3;exitX=1;exitY=0.5;exitDx=0;exitDy=0;" parent="sqdpiy8trpQjpCW_eLVI-1" source="sqdpiy8trpQjpCW_eLVI-57" target="sqdpiy8trpQjpCW_eLVI-12" edge="1"><mxGeometry relative="1" as="geometry"><mxPoint x="390" y="310" as="sourcePoint"/></mxGeometry></mxCell><mxCell id="sqdpiy8trpQjpCW_eLVI-62" style="edgeStyle=none;rounded=1;sketch=0;orthogonalLoop=1;jettySize=auto;html=1;entryX=0;entryY=0;entryDx=0;entryDy=0;fontColor=#1A1A1A;endArrow=none;endFill=0;strokeColor=#182E3E;strokeWidth=3;exitX=1;exitY=1;exitDx=0;exitDy=0;" parent="sqdpiy8trpQjpCW_eLVI-1" source="sqdpiy8trpQjpCW_eLVI-63" target="sqdpiy8trpQjpCW_eLVI-12" edge="1"><mxGeometry relative="1" as="geometry"><mxPoint x="408" y="267" as="sourcePoint"/></mxGeometry></mxCell><mxCell id="sqdpiy8trpQjpCW_eLVI-63" value="birthday" style="ellipse;whiteSpace=wrap;html=1;rounded=0;sketch=0;fontColor=#1A1A1A;strokeColor=#FFFFFF;fillColor=#F08E81;" parent="sqdpiy8trpQjpCW_eLVI-1" vertex="1"><mxGeometry x="318" y="207" width="90" height="60" as="geometry"/></mxCell><mxCell id="sqdpiy8trpQjpCW_eLVI-64" value="hobby" style="ellipse;whiteSpace=wrap;html=1;rounded=0;sketch=0;fontColor=#1A1A1A;strokeColor=#FFFFFF;fillColor=#F08E81;" parent="sqdpiy8trpQjpCW_eLVI-1" vertex="1"><mxGeometry x="468" y="147" width="90" height="60" as="geometry"/></mxCell><mxCell id="sqdpiy8trpQjpCW_eLVI-65" value="catchphrase" style="ellipse;whiteSpace=wrap;html=1;rounded=0;sketch=0;fontColor=#1A1A1A;strokeColor=#FFFFFF;fillColor=#F08E81;" parent="sqdpiy8trpQjpCW_eLVI-1" vertex="1"><mxGeometry x="378" y="157" width="90" height="60" as="geometry"/></mxCell><mxCell id="sqdpiy8trpQjpCW_eLVI-66" value="favourite color" style="ellipse;whiteSpace=wrap;html=1;rounded=0;sketch=0;fontColor=#1A1A1A;strokeColor=#FFFFFF;fillColor=#F08E81;" parent="sqdpiy8trpQjpCW_eLVI-1" vertex="1"><mxGeometry x="528" y="207" width="90" height="60" as="geometry"/></mxCell><mxCell id="sqdpiy8trpQjpCW_eLVI-67" value="favourite song" style="ellipse;whiteSpace=wrap;html=1;rounded=0;sketch=0;fontColor=#1A1A1A;strokeColor=#FFFFFF;fillColor=#F08E81;" parent="sqdpiy8trpQjpCW_eLVI-1" vertex="1"><mxGeometry x="598" y="257" width="90" height="60" as="geometry"/></mxCell><mxCell id="sqdpiy8trpQjpCW_eLVI-68" value="is sanrio?" style="ellipse;whiteSpace=wrap;html=1;rounded=0;sketch=0;fontColor=#1A1A1A;strokeColor=#FFFFFF;fillColor=#F08E81;" parent="sqdpiy8trpQjpCW_eLVI-1" vertex="1"><mxGeometry x="348" y="427" width="90" height="60" as="geometry"/></mxCell><mxCell id="sqdpiy8trpQjpCW_eLVI-69" value="wallpaper" style="ellipse;whiteSpace=wrap;html=1;rounded=0;sketch=0;fontColor=#1A1A1A;strokeColor=#FFFFFF;fillColor=#F08E81;" parent="sqdpiy8trpQjpCW_eLVI-1" vertex="1"><mxGeometry x="1085" y="620" width="90" height="60" as="geometry"/></mxCell><mxCell id="sqdpiy8trpQjpCW_eLVI-70" value="floor&lt;span style=&quot;color: rgba(0 , 0 , 0 , 0) ; font-family: monospace ; font-size: 0px&quot;&gt;%3CmxGraphModel%3E%3Croot%3E%3CmxCell%20id%3D%220%22%2F%3E%3CmxCell%20id%3D%221%22%20parent%3D%220%22%2F%3E%3CmxCell%20id%3D%222%22%20value%3D%22%22%20style%3D%22ellipse%3BwhiteSpace%3Dwrap%3Bhtml%3D1%3Brounded%3D0%3Bsketch%3D0%3BfontColor%3D%231A1A1A%3BstrokeColor%3D%23FFFFFF%3BfillColor%3D%23F08E81%3B%22%20vertex%3D%221%22%20parent%3D%221%22%3E%3CmxGeometry%20x%3D%22240%22%20y%3D%2250%22%20width%3D%2290%22%20height%3D%2260%22%20as%3D%22geometry%22%2F%3E%3C%2FmxCell%3E%3C%2Froot%3E%3C%2FmxGraphModel%3E&lt;/span&gt;" style="ellipse;whiteSpace=wrap;html=1;rounded=0;sketch=0;fontColor=#1A1A1A;strokeColor=#FFFFFF;fillColor=#F08E81;" parent="sqdpiy8trpQjpCW_eLVI-1" vertex="1"><mxGeometry x="1190" y="640" width="90" height="60" as="geometry"/></mxCell><mxCell id="sqdpiy8trpQjpCW_eLVI-71" value="music playing" style="ellipse;whiteSpace=wrap;html=1;rounded=0;sketch=0;fontColor=#1A1A1A;strokeColor=#FFFFFF;fillColor=#F08E81;" parent="sqdpiy8trpQjpCW_eLVI-1" vertex="1"><mxGeometry x="1210" y="720" width="90" height="60" as="geometry"/></mxCell><mxCell id="sqdpiy8trpQjpCW_eLVI-72" value="&lt;u&gt;name&lt;/u&gt;" style="ellipse;whiteSpace=wrap;html=1;rounded=0;sketch=0;fontColor=#1A1A1A;strokeColor=#FFFFFF;fillColor=#F08E81;" parent="sqdpiy8trpQjpCW_eLVI-1" vertex="1"><mxGeometry x="788" y="577" width="90" height="60" as="geometry"/></mxCell><mxCell id="sqdpiy8trpQjpCW_eLVI-73" value="year released" style="ellipse;whiteSpace=wrap;html=1;rounded=0;sketch=0;fontColor=#1A1A1A;strokeColor=#FFFFFF;fillColor=#F08E81;" parent="sqdpiy8trpQjpCW_eLVI-1" vertex="1"><mxGeometry x="618" y="587" width="90" height="60" as="geometry"/></mxCell><mxCell id="sqdpiy8trpQjpCW_eLVI-74" value="buy price" style="ellipse;whiteSpace=wrap;html=1;rounded=0;sketch=0;fontColor=#1A1A1A;strokeColor=#FFFFFF;fillColor=#F08E81;" parent="sqdpiy8trpQjpCW_eLVI-1" vertex="1"><mxGeometry x="1003" y="897" width="90" height="60" as="geometry"/></mxCell><mxCell id="sqdpiy8trpQjpCW_eLVI-75" value="sell price" style="ellipse;whiteSpace=wrap;html=1;rounded=0;sketch=0;fontColor=#1A1A1A;strokeColor=#FFFFFF;fillColor=#F08E81;" parent="sqdpiy8trpQjpCW_eLVI-1" vertex="1"><mxGeometry x="1113" y="897" width="90" height="60" as="geometry"/></mxCell><mxCell id="sqdpiy8trpQjpCW_eLVI-76" value="style" style="ellipse;whiteSpace=wrap;html=1;rounded=0;sketch=0;fontColor=#1A1A1A;strokeColor=#FFFFFF;fillColor=#F08E81;" parent="sqdpiy8trpQjpCW_eLVI-1" vertex="1"><mxGeometry x="1183" y="957" width="90" height="60" as="geometry"/></mxCell><mxCell id="sqdpiy8trpQjpCW_eLVI-77" value="&lt;u&gt;id&lt;/u&gt;" style="ellipse;whiteSpace=wrap;html=1;rounded=0;sketch=0;fontColor=#1A1A1A;strokeColor=#FFFFFF;fillColor=#F08E81;" parent="sqdpiy8trpQjpCW_eLVI-1" vertex="1"><mxGeometry x="921" y="974" width="90" height="60" as="geometry"/></mxCell><mxCell id="sqdpiy8trpQjpCW_eLVI-78" value="placeable on surface" style="ellipse;whiteSpace=wrap;html=1;rounded=0;sketch=0;fontColor=#1A1A1A;strokeColor=#FFFFFF;fillColor=#F08E81;" parent="sqdpiy8trpQjpCW_eLVI-1" vertex="1"><mxGeometry x="1163" y="1037" width="90" height="60" as="geometry"/></mxCell><mxCell id="sqdpiy8trpQjpCW_eLVI-79" value="&lt;u&gt;id&lt;/u&gt;" style="ellipse;whiteSpace=wrap;html=1;rounded=0;sketch=0;fontColor=#1A1A1A;strokeColor=#FFFFFF;fillColor=#F08E81;" parent="sqdpiy8trpQjpCW_eLVI-1" vertex="1"><mxGeometry x="453" y="727" width="90" height="60" as="geometry"/></mxCell><mxCell id="sqdpiy8trpQjpCW_eLVI-80" value="&lt;u&gt;series&lt;/u&gt;" style="ellipse;whiteSpace=wrap;html=1;rounded=0;sketch=0;fontColor=#1A1A1A;strokeColor=#FFFFFF;fillColor=#F08E81;" parent="sqdpiy8trpQjpCW_eLVI-1" vertex="1"><mxGeometry x="308" y="727" width="90" height="60" as="geometry"/></mxCell><mxCell id="sqdpiy8trpQjpCW_eLVI-81" value="written?" style="ellipse;whiteSpace=wrap;html=1;rounded=0;sketch=0;fontColor=#1A1A1A;strokeColor=#FFFFFF;fillColor=#F08E81;" parent="sqdpiy8trpQjpCW_eLVI-1" vertex="1"><mxGeometry x="498" y="1007" width="90" height="60" as="geometry"/></mxCell><mxCell id="sqdpiy8trpQjpCW_eLVI-82" value="" style="edgeStyle=none;rounded=0;orthogonalLoop=1;jettySize=auto;html=1;endArrow=none;endFill=0;strokeWidth=3;strokeColor=#182E3E;" parent="sqdpiy8trpQjpCW_eLVI-1" source="sqdpiy8trpQjpCW_eLVI-83" target="sqdpiy8trpQjpCW_eLVI-34" edge="1"><mxGeometry relative="1" as="geometry"/></mxCell><mxCell id="sqdpiy8trpQjpCW_eLVI-83" value="card id" style="ellipse;whiteSpace=wrap;html=1;rounded=0;sketch=0;fontColor=#1A1A1A;strokeColor=#FFFFFF;fillColor=#F08E81;" parent="sqdpiy8trpQjpCW_eLVI-1" vertex="1"><mxGeometry x="240" y="817" width="90" height="60" as="geometry"/></mxCell><mxCell id="sqdpiy8trpQjpCW_eLVI-84" style="edgeStyle=none;rounded=1;orthogonalLoop=1;jettySize=auto;html=1;exitX=0;exitY=0.5;exitDx=0;exitDy=0;entryX=1;entryY=0.5;entryDx=0;entryDy=0;endArrow=none;endFill=0;strokeWidth=3;strokeColor=#182E3E;" parent="sqdpiy8trpQjpCW_eLVI-1" source="sqdpiy8trpQjpCW_eLVI-85" target="sqdpiy8trpQjpCW_eLVI-37" edge="1"><mxGeometry relative="1" as="geometry"/></mxCell><mxCell id="sqdpiy8trpQjpCW_eLVI-85" value="&lt;u&gt;id&lt;/u&gt;" style="ellipse;whiteSpace=wrap;html=1;rounded=0;sketch=0;fontColor=#1A1A1A;strokeColor=#FFFFFF;fillColor=#F08E81;" parent="sqdpiy8trpQjpCW_eLVI-1" vertex="1"><mxGeometry x="710" y="917" width="90" height="60" as="geometry"/></mxCell><mxCell id="sqdpiy8trpQjpCW_eLVI-106" style="edgeStyle=none;rounded=0;orthogonalLoop=1;jettySize=auto;html=1;exitX=1;exitY=0;exitDx=0;exitDy=0;entryX=0.25;entryY=1;entryDx=0;entryDy=0;endArrow=none;endFill=0;strokeColor=#000000;strokeWidth=1;" parent="sqdpiy8trpQjpCW_eLVI-1" source="sqdpiy8trpQjpCW_eLVI-87" target="sqdpiy8trpQjpCW_eLVI-27" edge="1"><mxGeometry relative="1" as="geometry"/></mxCell><mxCell id="sqdpiy8trpQjpCW_eLVI-87" value="length" style="ellipse;whiteSpace=wrap;html=1;rounded=0;sketch=0;fontColor=#1A1A1A;strokeColor=#FFFFFF;fillColor=#F08E81;" parent="sqdpiy8trpQjpCW_eLVI-1" vertex="1"><mxGeometry x="978" y="1082" width="90" height="60" as="geometry"/></mxCell><mxCell id="sqdpiy8trpQjpCW_eLVI-88" style="edgeStyle=none;rounded=0;orthogonalLoop=1;jettySize=auto;html=1;exitX=0.5;exitY=0;exitDx=0;exitDy=0;entryX=0.5;entryY=1;entryDx=0;entryDy=0;endArrow=none;endFill=0;strokeWidth=3;strokeColor=#182E3E;" parent="sqdpiy8trpQjpCW_eLVI-1" source="sqdpiy8trpQjpCW_eLVI-89" target="sqdpiy8trpQjpCW_eLVI-16" edge="1"><mxGeometry relative="1" as="geometry"/></mxCell><mxCell id="sqdpiy8trpQjpCW_eLVI-89" value="&lt;u&gt;id&lt;/u&gt;" style="ellipse;whiteSpace=wrap;html=1;rounded=0;sketch=0;fontColor=#1A1A1A;strokeColor=#FFFFFF;fillColor=#F08E81;" parent="sqdpiy8trpQjpCW_eLVI-1" vertex="1"><mxGeometry x="1043" y="330" width="90" height="60" as="geometry"/></mxCell><mxCell id="sqdpiy8trpQjpCW_eLVI-90" style="edgeStyle=none;rounded=0;orthogonalLoop=1;jettySize=auto;html=1;exitX=0.5;exitY=0;exitDx=0;exitDy=0;entryX=0.5;entryY=1;entryDx=0;entryDy=0;endArrow=none;endFill=0;strokeWidth=3;strokeColor=#182E3E;" parent="sqdpiy8trpQjpCW_eLVI-1" source="sqdpiy8trpQjpCW_eLVI-91" target="sqdpiy8trpQjpCW_eLVI-30" edge="1"><mxGeometry relative="1" as="geometry"/></mxCell><mxCell id="sqdpiy8trpQjpCW_eLVI-91" value="&lt;u&gt;id&lt;/u&gt;" style="ellipse;whiteSpace=wrap;html=1;rounded=0;sketch=0;fontColor=#1A1A1A;strokeColor=#FFFFFF;fillColor=#F08E81;" parent="sqdpiy8trpQjpCW_eLVI-1" vertex="1"><mxGeometry x="723" y="757" width="90" height="60" as="geometry"/></mxCell><mxCell id="sqdpiy8trpQjpCW_eLVI-92" style="edgeStyle=none;rounded=0;orthogonalLoop=1;jettySize=auto;html=1;exitX=1;exitY=0.5;exitDx=0;exitDy=0;entryX=0;entryY=0.5;entryDx=0;entryDy=0;endArrow=none;endFill=0;strokeWidth=3;strokeColor=#182E3E;" parent="sqdpiy8trpQjpCW_eLVI-1" source="sqdpiy8trpQjpCW_eLVI-93" target="sqdpiy8trpQjpCW_eLVI-30" edge="1"><mxGeometry relative="1" as="geometry"/></mxCell><mxCell id="sqdpiy8trpQjpCW_eLVI-93" value="console" style="ellipse;whiteSpace=wrap;html=1;rounded=0;sketch=0;fontColor=#1A1A1A;strokeColor=#FFFFFF;fillColor=#F08E81;" parent="sqdpiy8trpQjpCW_eLVI-1" vertex="1"><mxGeometry x="578" y="657" width="90" height="60" as="geometry"/></mxCell><mxCell id="sqdpiy8trpQjpCW_eLVI-95" value="&lt;u&gt;id&lt;/u&gt;" style="ellipse;whiteSpace=wrap;html=1;rounded=0;sketch=0;fontColor=#1A1A1A;strokeColor=#FFFFFF;fillColor=#F08E81;" parent="sqdpiy8trpQjpCW_eLVI-1" vertex="1"><mxGeometry x="1200" y="800" width="90" height="60" as="geometry"/></mxCell><mxCell id="sqdpiy8trpQjpCW_eLVI-96" value="personality" style="rounded=0;whiteSpace=wrap;html=1;sketch=0;fontColor=#1A1A1A;strokeColor=#FFFFFF;fillColor=#F08E81;" parent="sqdpiy8trpQjpCW_eLVI-1" vertex="1"><mxGeometry x="160" y="560" width="120" height="60" as="geometry"/></mxCell><mxCell id="sqdpiy8trpQjpCW_eLVI-97" style="edgeStyle=none;rounded=0;orthogonalLoop=1;jettySize=auto;html=1;exitX=0.5;exitY=1;exitDx=0;exitDy=0;entryX=0;entryY=0;entryDx=0;entryDy=0;endArrow=none;endFill=0;strokeWidth=3;strokeColor=#182E3E;" parent="sqdpiy8trpQjpCW_eLVI-1" source="sqdpiy8trpQjpCW_eLVI-98" target="sqdpiy8trpQjpCW_eLVI-96" edge="1"><mxGeometry relative="1" as="geometry"/></mxCell><mxCell id="sqdpiy8trpQjpCW_eLVI-98" value="&lt;u&gt;type&lt;/u&gt;" style="ellipse;whiteSpace=wrap;html=1;rounded=0;sketch=0;fontColor=#1A1A1A;strokeColor=#FFFFFF;fillColor=#F08E81;" parent="sqdpiy8trpQjpCW_eLVI-1" vertex="1"><mxGeometry x="90" y="467" width="90" height="60" as="geometry"/></mxCell><mxCell id="sqdpiy8trpQjpCW_eLVI-99" style="edgeStyle=none;rounded=0;orthogonalLoop=1;jettySize=auto;html=1;exitX=0.5;exitY=0;exitDx=0;exitDy=0;entryX=0;entryY=1;entryDx=0;entryDy=0;endArrow=none;endFill=0;strokeWidth=3;strokeColor=#182E3E;" parent="sqdpiy8trpQjpCW_eLVI-1" source="sqdpiy8trpQjpCW_eLVI-100" target="sqdpiy8trpQjpCW_eLVI-96" edge="1"><mxGeometry relative="1" as="geometry"/></mxCell><mxCell id="sqdpiy8trpQjpCW_eLVI-100" value="gender" style="ellipse;whiteSpace=wrap;html=1;rounded=0;sketch=0;fontColor=#1A1A1A;strokeColor=#FFFFFF;fillColor=#F08E81;" parent="sqdpiy8trpQjpCW_eLVI-1" vertex="1"><mxGeometry x="90" y="647" width="90" height="60" as="geometry"/></mxCell><mxCell id="sqdpiy8trpQjpCW_eLVI-101" style="edgeStyle=none;rounded=0;orthogonalLoop=1;jettySize=auto;html=1;exitX=1;exitY=0;exitDx=0;exitDy=0;entryX=0.5;entryY=1;entryDx=0;entryDy=0;endArrow=none;endFill=0;strokeWidth=3;strokeColor=#182E3E;" parent="sqdpiy8trpQjpCW_eLVI-1" source="sqdpiy8trpQjpCW_eLVI-96" target="sqdpiy8trpQjpCW_eLVI-102" edge="1"><mxGeometry relative="1" as="geometry"/></mxCell><mxCell id="sqdpiy8trpQjpCW_eLVI-102" value="is" style="rhombus;whiteSpace=wrap;html=1;rounded=0;sketch=0;fontColor=#1A1A1A;strokeColor=#FFFFFF;fillColor=#F08E81;" parent="sqdpiy8trpQjpCW_eLVI-1" vertex="1"><mxGeometry x="240" y="440" width="80" height="80" as="geometry"/></mxCell><mxCell id="sqdpiy8trpQjpCW_eLVI-105" style="edgeStyle=none;rounded=0;orthogonalLoop=1;jettySize=auto;html=1;exitX=0.5;exitY=0;exitDx=0;exitDy=0;entryX=0.5;entryY=1;entryDx=0;entryDy=0;endArrow=none;endFill=0;strokeColor=#000000;strokeWidth=1;" parent="sqdpiy8trpQjpCW_eLVI-1" source="sqdpiy8trpQjpCW_eLVI-104" target="sqdpiy8trpQjpCW_eLVI-27" edge="1"><mxGeometry relative="1" as="geometry"/></mxCell><mxCell id="sqdpiy8trpQjpCW_eLVI-104" value="width" style="ellipse;whiteSpace=wrap;html=1;rounded=0;sketch=0;fontColor=#1A1A1A;strokeColor=#FFFFFF;fillColor=#F08E81;" parent="sqdpiy8trpQjpCW_eLVI-1" vertex="1"><mxGeometry x="1081" y="1077" width="90" height="60" as="geometry"/></mxCell><mxCell id="sqdpiy8trpQjpCW_eLVI-108" style="edgeStyle=none;rounded=0;orthogonalLoop=1;jettySize=auto;html=1;exitX=0;exitY=0.5;exitDx=0;exitDy=0;entryX=1;entryY=0.5;entryDx=0;entryDy=0;endArrow=none;endFill=0;strokeWidth=3;strokeColor=#182E3E;" parent="sqdpiy8trpQjpCW_eLVI-1" source="sqdpiy8trpQjpCW_eLVI-107" target="sqdpiy8trpQjpCW_eLVI-30" edge="1"><mxGeometry relative="1" as="geometry"/></mxCell><mxCell id="sqdpiy8trpQjpCW_eLVI-107" value="featured in" style="rhombus;whiteSpace=wrap;html=1;rounded=0;sketch=0;fontColor=#1A1A1A;strokeColor=#FFFFFF;fillColor=#F08E81;" parent="sqdpiy8trpQjpCW_eLVI-1" vertex="1"><mxGeometry x="908" y="647" width="80" height="80" as="geometry"/></mxCell><mxCell id="sqdpiy8trpQjpCW_eLVI-112" style="edgeStyle=none;rounded=0;orthogonalLoop=1;jettySize=auto;html=1;exitX=0.5;exitY=0;exitDx=0;exitDy=0;endArrow=none;endFill=0;strokeColor=#000000;strokeWidth=3;" parent="sqdpiy8trpQjpCW_eLVI-1" source="sqdpiy8trpQjpCW_eLVI-111" target="sqdpiy8trpQjpCW_eLVI-12" edge="1"><mxGeometry relative="1" as="geometry"/></mxCell><mxCell id="sqdpiy8trpQjpCW_eLVI-111" value="&lt;u&gt;name&lt;br&gt;&lt;/u&gt;" style="ellipse;whiteSpace=wrap;html=1;rounded=0;sketch=0;fontColor=#1A1A1A;strokeColor=#FFFFFF;fillColor=#F08E81;" parent="sqdpiy8trpQjpCW_eLVI-1" vertex="1"><mxGeometry x="458" y="450" width="90" height="60" as="geometry"/></mxCell><mxCell id="sqdpiy8trpQjpCW_eLVI-114" style="edgeStyle=none;rounded=0;orthogonalLoop=1;jettySize=auto;html=1;exitX=0.5;exitY=0;exitDx=0;exitDy=0;endArrow=none;endFill=0;strokeWidth=3;strokeColor=#182E3E;" parent="sqdpiy8trpQjpCW_eLVI-1" source="sqdpiy8trpQjpCW_eLVI-113" target="sqdpiy8trpQjpCW_eLVI-96" edge="1"><mxGeometry relative="1" as="geometry"/></mxCell><mxCell id="sqdpiy8trpQjpCW_eLVI-113" value="&lt;u&gt;id&lt;/u&gt;" style="ellipse;whiteSpace=wrap;html=1;rounded=0;sketch=0;fontColor=#1A1A1A;strokeColor=#FFFFFF;fillColor=#F08E81;" parent="sqdpiy8trpQjpCW_eLVI-1" vertex="1"><mxGeometry x="230" y="647" width="90" height="60" as="geometry"/></mxCell><mxCell id="1" style="rounded=0;orthogonalLoop=1;jettySize=auto;html=1;exitX=1;exitY=0.5;exitDx=0;exitDy=0;entryX=0;entryY=1;entryDx=0;entryDy=0;strokeColor=#182E3E;strokeWidth=3;endArrow=none;endFill=0;" parent="sqdpiy8trpQjpCW_eLVI-1" source="0" target="sqdpiy8trpQjpCW_eLVI-27" edge="1"><mxGeometry relative="1" as="geometry"/></mxCell><mxCell id="0" value="&lt;u&gt;name&lt;/u&gt;" style="ellipse;whiteSpace=wrap;html=1;rounded=0;sketch=0;fontColor=#1A1A1A;strokeColor=#FFFFFF;fillColor=#F08E81;" parent="sqdpiy8trpQjpCW_eLVI-1" vertex="1"><mxGeometry x="890" y="1037" width="90" height="60" as="geometry"/></mxCell></root></mxGraphModel></diagram><diagram name="v3" id="3CzswZzTUduZVHwOIvPK">&#xa;        <mxGraphModel dx="1502" dy="863" grid="1" gridSize="10" guides="1" tooltips="1" connect="1" arrows="1" fold="1" page="1" pageScale="1" pageWidth="1600" pageHeight="1200" background="#B0E3E6" math="0" shadow="0">&#xa;            <root>&#xa;                <mxCell id="rN30uLhsNGHc-pYTwNAc-0"/>&#xa;                <mxCell id="rN30uLhsNGHc-pYTwNAc-1" parent="rN30uLhsNGHc-pYTwNAc-0"/>&#xa;                <mxCell id="rN30uLhsNGHc-pYTwNAc-2" style="rounded=1;sketch=0;orthogonalLoop=1;jettySize=auto;html=1;entryX=0;entryY=0.5;entryDx=0;entryDy=0;fontColor=#1A1A1A;strokeColor=#182E3E;endArrow=classic;endFill=1;labelBackgroundColor=#B0E3E6;exitX=1;exitY=0.5;exitDx=0;exitDy=0;" parent="rN30uLhsNGHc-pYTwNAc-1" source="rN30uLhsNGHc-pYTwNAc-11" target="rN30uLhsNGHc-pYTwNAc-38" edge="1">&#xa;                    <mxGeometry relative="1" as="geometry">&#xa;                        <mxPoint x="768" y="327" as="sourcePoint"/>&#xa;                    </mxGeometry>&#xa;                </mxCell>&#xa;                <mxCell id="rN30uLhsNGHc-pYTwNAc-3" style="edgeStyle=none;rounded=1;sketch=0;orthogonalLoop=1;jettySize=auto;html=1;entryX=0;entryY=0.5;entryDx=0;entryDy=0;fontColor=#1A1A1A;strokeColor=#182E3E;endArrow=classic;endFill=1;labelBackgroundColor=#B0E3E6;strokeWidth=3;exitX=1;exitY=0.75;exitDx=0;exitDy=0;" parent="rN30uLhsNGHc-pYTwNAc-1" source="rN30uLhsNGHc-pYTwNAc-11" target="rN30uLhsNGHc-pYTwNAc-40" edge="1">&#xa;                    <mxGeometry relative="1" as="geometry">&#xa;                        <mxPoint x="778" y="367" as="sourcePoint"/>&#xa;                    </mxGeometry>&#xa;                </mxCell>&#xa;                <mxCell id="rN30uLhsNGHc-pYTwNAc-4" style="edgeStyle=none;rounded=1;sketch=0;orthogonalLoop=1;jettySize=auto;html=1;fontColor=#1A1A1A;endArrow=none;endFill=0;strokeColor=#182E3E;strokeWidth=3;exitX=1;exitY=1;exitDx=0;exitDy=0;" parent="rN30uLhsNGHc-pYTwNAc-1" source="rN30uLhsNGHc-pYTwNAc-11" target="rN30uLhsNGHc-pYTwNAc-42" edge="1">&#xa;                    <mxGeometry relative="1" as="geometry">&#xa;                        <mxPoint x="738" y="377" as="sourcePoint"/>&#xa;                    </mxGeometry>&#xa;                </mxCell>&#xa;                <mxCell id="rN30uLhsNGHc-pYTwNAc-5" style="edgeStyle=none;rounded=1;sketch=0;orthogonalLoop=1;jettySize=auto;html=1;exitX=1;exitY=0;exitDx=0;exitDy=0;fontColor=#1A1A1A;endArrow=none;endFill=0;strokeColor=#182E3E;strokeWidth=1;" parent="rN30uLhsNGHc-pYTwNAc-1" source="rN30uLhsNGHc-pYTwNAc-11" target="rN30uLhsNGHc-pYTwNAc-68" edge="1">&#xa;                    <mxGeometry relative="1" as="geometry">&#xa;                        <mxPoint x="573" y="307" as="targetPoint"/>&#xa;                    </mxGeometry>&#xa;                </mxCell>&#xa;                <mxCell id="rN30uLhsNGHc-pYTwNAc-6" style="edgeStyle=none;rounded=1;sketch=0;orthogonalLoop=1;jettySize=auto;html=1;exitX=0.75;exitY=0;exitDx=0;exitDy=0;entryX=0;entryY=1;entryDx=0;entryDy=0;fontColor=#1A1A1A;endArrow=none;endFill=0;strokeColor=#182E3E;strokeWidth=1;" parent="rN30uLhsNGHc-pYTwNAc-1" source="rN30uLhsNGHc-pYTwNAc-11" target="rN30uLhsNGHc-pYTwNAc-67" edge="1">&#xa;                    <mxGeometry relative="1" as="geometry"/>&#xa;                </mxCell>&#xa;                <mxCell id="rN30uLhsNGHc-pYTwNAc-7" style="edgeStyle=none;rounded=1;sketch=0;orthogonalLoop=1;jettySize=auto;html=1;exitX=0.5;exitY=0;exitDx=0;exitDy=0;entryX=0.5;entryY=1;entryDx=0;entryDy=0;fontColor=#1A1A1A;endArrow=none;endFill=0;strokeColor=#182E3E;strokeWidth=1;" parent="rN30uLhsNGHc-pYTwNAc-1" source="rN30uLhsNGHc-pYTwNAc-11" target="rN30uLhsNGHc-pYTwNAc-65" edge="1">&#xa;                    <mxGeometry relative="1" as="geometry"/>&#xa;                </mxCell>&#xa;                <mxCell id="rN30uLhsNGHc-pYTwNAc-8" style="edgeStyle=none;rounded=1;sketch=0;orthogonalLoop=1;jettySize=auto;html=1;exitX=0.25;exitY=0;exitDx=0;exitDy=0;fontColor=#1A1A1A;endArrow=none;endFill=0;strokeColor=#182E3E;strokeWidth=3;entryX=1;entryY=1;entryDx=0;entryDy=0;" parent="rN30uLhsNGHc-pYTwNAc-1" source="rN30uLhsNGHc-pYTwNAc-11" target="rN30uLhsNGHc-pYTwNAc-66" edge="1">&#xa;                    <mxGeometry relative="1" as="geometry">&#xa;                        <mxPoint x="468" y="247" as="targetPoint"/>&#xa;                    </mxGeometry>&#xa;                </mxCell>&#xa;                <mxCell id="rN30uLhsNGHc-pYTwNAc-9" style="edgeStyle=none;rounded=1;sketch=0;orthogonalLoop=1;jettySize=auto;html=1;exitX=0.5;exitY=1;exitDx=0;exitDy=0;fontColor=#1A1A1A;endArrow=none;endFill=0;strokeColor=#182E3E;strokeWidth=1;" parent="rN30uLhsNGHc-pYTwNAc-1" source="rN30uLhsNGHc-pYTwNAc-11" target="rN30uLhsNGHc-pYTwNAc-69" edge="1">&#xa;                    <mxGeometry relative="1" as="geometry"/>&#xa;                </mxCell>&#xa;                <mxCell id="rN30uLhsNGHc-pYTwNAc-10" style="edgeStyle=none;rounded=1;sketch=0;orthogonalLoop=1;jettySize=auto;html=1;exitX=0.25;exitY=1;exitDx=0;exitDy=0;entryX=0.5;entryY=0;entryDx=0;entryDy=0;fontColor=#1A1A1A;endArrow=none;endFill=0;strokeColor=#182E3E;strokeWidth=1;" parent="rN30uLhsNGHc-pYTwNAc-1" source="rN30uLhsNGHc-pYTwNAc-11" target="rN30uLhsNGHc-pYTwNAc-46" edge="1">&#xa;                    <mxGeometry relative="1" as="geometry"/>&#xa;                </mxCell>&#xa;                <mxCell id="rN30uLhsNGHc-pYTwNAc-104" style="edgeStyle=none;rounded=0;orthogonalLoop=1;jettySize=auto;html=1;exitX=0;exitY=0.75;exitDx=0;exitDy=0;entryX=0.5;entryY=0;entryDx=0;entryDy=0;endArrow=classic;endFill=1;strokeColor=#000000;strokeWidth=3;" parent="rN30uLhsNGHc-pYTwNAc-1" source="rN30uLhsNGHc-pYTwNAc-11" target="rN30uLhsNGHc-pYTwNAc-100" edge="1">&#xa;                    <mxGeometry relative="1" as="geometry"/>&#xa;                </mxCell>&#xa;                <mxCell id="rN30uLhsNGHc-pYTwNAc-11" value="villager" style="rounded=0;whiteSpace=wrap;html=1;sketch=0;fontColor=#1A1A1A;strokeColor=#FFFFFF;fillColor=#F08E81;" parent="rN30uLhsNGHc-pYTwNAc-1" vertex="1">&#xa;                    <mxGeometry x="438" y="337" width="120" height="60" as="geometry"/>&#xa;                </mxCell>&#xa;                <mxCell id="rN30uLhsNGHc-pYTwNAc-12" style="edgeStyle=none;rounded=1;sketch=0;orthogonalLoop=1;jettySize=auto;html=1;exitX=0;exitY=0;exitDx=0;exitDy=0;entryX=0.5;entryY=1;entryDx=0;entryDy=0;fontColor=#1A1A1A;endArrow=none;endFill=0;strokeColor=#182E3E;strokeWidth=3;" parent="rN30uLhsNGHc-pYTwNAc-1" source="rN30uLhsNGHc-pYTwNAc-15" target="rN30uLhsNGHc-pYTwNAc-49" edge="1">&#xa;                    <mxGeometry relative="1" as="geometry"/>&#xa;                </mxCell>&#xa;                <mxCell id="rN30uLhsNGHc-pYTwNAc-13" style="edgeStyle=none;rounded=1;sketch=0;orthogonalLoop=1;jettySize=auto;html=1;exitX=0.5;exitY=0;exitDx=0;exitDy=0;entryX=0.5;entryY=1;entryDx=0;entryDy=0;fontColor=#1A1A1A;endArrow=none;endFill=0;strokeColor=#182E3E;strokeWidth=3;" parent="rN30uLhsNGHc-pYTwNAc-1" source="rN30uLhsNGHc-pYTwNAc-15" target="rN30uLhsNGHc-pYTwNAc-50" edge="1">&#xa;                    <mxGeometry relative="1" as="geometry"/>&#xa;                </mxCell>&#xa;                <mxCell id="rN30uLhsNGHc-pYTwNAc-14" style="edgeStyle=none;rounded=1;sketch=0;orthogonalLoop=1;jettySize=auto;html=1;exitX=1;exitY=0;exitDx=0;exitDy=0;entryX=0.5;entryY=1;entryDx=0;entryDy=0;fontColor=#1A1A1A;endArrow=none;endFill=0;strokeColor=#182E3E;strokeWidth=3;" parent="rN30uLhsNGHc-pYTwNAc-1" source="rN30uLhsNGHc-pYTwNAc-15" target="rN30uLhsNGHc-pYTwNAc-51" edge="1">&#xa;                    <mxGeometry relative="1" as="geometry"/>&#xa;                </mxCell>&#xa;                <mxCell id="rN30uLhsNGHc-pYTwNAc-15" value="coffee" style="rounded=0;whiteSpace=wrap;html=1;sketch=0;fontColor=#1A1A1A;strokeColor=#FFFFFF;fillColor=#F08E81;" parent="rN30uLhsNGHc-pYTwNAc-1" vertex="1">&#xa;                    <mxGeometry x="1028" y="237" width="120" height="60" as="geometry"/>&#xa;                </mxCell>&#xa;                <mxCell id="rN30uLhsNGHc-pYTwNAc-16" style="rounded=1;sketch=0;orthogonalLoop=1;jettySize=auto;html=1;exitX=0;exitY=1;exitDx=0;exitDy=0;entryX=0.5;entryY=0;entryDx=0;entryDy=0;fontColor=#1A1A1A;strokeColor=#182E3E;endArrow=none;endFill=0;strokeWidth=3;" parent="rN30uLhsNGHc-pYTwNAc-1" source="rN30uLhsNGHc-pYTwNAc-20" target="rN30uLhsNGHc-pYTwNAc-44" edge="1">&#xa;                    <mxGeometry relative="1" as="geometry"/>&#xa;                </mxCell>&#xa;                <mxCell id="rN30uLhsNGHc-pYTwNAc-17" style="edgeStyle=none;rounded=1;sketch=0;orthogonalLoop=1;jettySize=auto;html=1;exitX=0.5;exitY=0;exitDx=0;exitDy=0;entryX=0.5;entryY=1;entryDx=0;entryDy=0;fontColor=#1A1A1A;endArrow=none;endFill=0;strokeColor=#182E3E;strokeWidth=3;" parent="rN30uLhsNGHc-pYTwNAc-1" source="rN30uLhsNGHc-pYTwNAc-20" target="rN30uLhsNGHc-pYTwNAc-70" edge="1">&#xa;                    <mxGeometry relative="1" as="geometry"/>&#xa;                </mxCell>&#xa;                <mxCell id="rN30uLhsNGHc-pYTwNAc-18" style="edgeStyle=none;rounded=1;sketch=0;orthogonalLoop=1;jettySize=auto;html=1;exitX=1;exitY=0;exitDx=0;exitDy=0;entryX=0;entryY=1;entryDx=0;entryDy=0;fontColor=#1A1A1A;endArrow=none;endFill=0;strokeColor=#182E3E;strokeWidth=3;" parent="rN30uLhsNGHc-pYTwNAc-1" source="rN30uLhsNGHc-pYTwNAc-20" target="rN30uLhsNGHc-pYTwNAc-71" edge="1">&#xa;                    <mxGeometry relative="1" as="geometry"/>&#xa;                </mxCell>&#xa;                <mxCell id="rN30uLhsNGHc-pYTwNAc-19" style="edgeStyle=none;rounded=1;sketch=0;orthogonalLoop=1;jettySize=auto;html=1;exitX=1;exitY=0.5;exitDx=0;exitDy=0;entryX=0;entryY=0.5;entryDx=0;entryDy=0;fontColor=#1A1A1A;endArrow=none;endFill=0;strokeColor=#182E3E;strokeWidth=1;" parent="rN30uLhsNGHc-pYTwNAc-1" source="rN30uLhsNGHc-pYTwNAc-20" target="rN30uLhsNGHc-pYTwNAc-72" edge="1">&#xa;                    <mxGeometry relative="1" as="geometry"/>&#xa;                </mxCell>&#xa;                <mxCell id="rN30uLhsNGHc-pYTwNAc-20" value="house" style="rounded=0;whiteSpace=wrap;html=1;sketch=0;fontColor=#1A1A1A;strokeColor=#FFFFFF;fillColor=#F08E81;" parent="rN30uLhsNGHc-pYTwNAc-1" vertex="1">&#xa;                    <mxGeometry x="1033" y="787" width="120" height="60" as="geometry"/>&#xa;                </mxCell>&#xa;                <mxCell id="rN30uLhsNGHc-pYTwNAc-21" style="rounded=1;sketch=0;orthogonalLoop=1;jettySize=auto;html=1;exitX=0.25;exitY=0;exitDx=0;exitDy=0;entryX=0.5;entryY=1;entryDx=0;entryDy=0;fontColor=#1A1A1A;endArrow=none;endFill=0;strokeColor=#182E3E;strokeWidth=3;" parent="rN30uLhsNGHc-pYTwNAc-1" source="rN30uLhsNGHc-pYTwNAc-26" target="rN30uLhsNGHc-pYTwNAc-75" edge="1">&#xa;                    <mxGeometry relative="1" as="geometry"/>&#xa;                </mxCell>&#xa;                <mxCell id="rN30uLhsNGHc-pYTwNAc-22" style="edgeStyle=none;rounded=1;sketch=0;orthogonalLoop=1;jettySize=auto;html=1;exitX=0.75;exitY=0;exitDx=0;exitDy=0;entryX=0;entryY=1;entryDx=0;entryDy=0;fontColor=#1A1A1A;endArrow=none;endFill=0;strokeColor=#182E3E;strokeWidth=3;" parent="rN30uLhsNGHc-pYTwNAc-1" source="rN30uLhsNGHc-pYTwNAc-26" target="rN30uLhsNGHc-pYTwNAc-76" edge="1">&#xa;                    <mxGeometry relative="1" as="geometry"/>&#xa;                </mxCell>&#xa;                <mxCell id="rN30uLhsNGHc-pYTwNAc-23" style="edgeStyle=none;rounded=1;sketch=0;orthogonalLoop=1;jettySize=auto;html=1;exitX=1;exitY=0;exitDx=0;exitDy=0;entryX=0;entryY=0.5;entryDx=0;entryDy=0;fontColor=#1A1A1A;endArrow=none;endFill=0;strokeColor=#182E3E;strokeWidth=1;" parent="rN30uLhsNGHc-pYTwNAc-1" source="rN30uLhsNGHc-pYTwNAc-26" target="rN30uLhsNGHc-pYTwNAc-77" edge="1">&#xa;                    <mxGeometry relative="1" as="geometry"/>&#xa;                </mxCell>&#xa;                <mxCell id="rN30uLhsNGHc-pYTwNAc-24" style="edgeStyle=none;rounded=1;sketch=0;orthogonalLoop=1;jettySize=auto;html=1;exitX=1;exitY=0.75;exitDx=0;exitDy=0;fontColor=#1A1A1A;endArrow=none;endFill=0;strokeColor=#182E3E;strokeWidth=1;" parent="rN30uLhsNGHc-pYTwNAc-1" source="rN30uLhsNGHc-pYTwNAc-26" target="rN30uLhsNGHc-pYTwNAc-79" edge="1">&#xa;                    <mxGeometry relative="1" as="geometry"/>&#xa;                </mxCell>&#xa;                <mxCell id="rN30uLhsNGHc-pYTwNAc-25" style="edgeStyle=none;rounded=1;sketch=0;orthogonalLoop=1;jettySize=auto;html=1;exitX=0;exitY=0.5;exitDx=0;exitDy=0;entryX=1;entryY=0.5;entryDx=0;entryDy=0;fontColor=#1A1A1A;endArrow=none;endFill=0;strokeColor=#182E3E;strokeWidth=1;" parent="rN30uLhsNGHc-pYTwNAc-1" source="rN30uLhsNGHc-pYTwNAc-26" target="rN30uLhsNGHc-pYTwNAc-78" edge="1">&#xa;                    <mxGeometry relative="1" as="geometry"/>&#xa;                </mxCell>&#xa;                <mxCell id="rN30uLhsNGHc-pYTwNAc-26" value="furniture" style="rounded=0;whiteSpace=wrap;html=1;sketch=0;fontColor=#1A1A1A;strokeColor=#FFFFFF;fillColor=#F08E81;" parent="rN30uLhsNGHc-pYTwNAc-1" vertex="1">&#xa;                    <mxGeometry x="1028" y="987" width="120" height="60" as="geometry"/>&#xa;                </mxCell>&#xa;                <mxCell id="rN30uLhsNGHc-pYTwNAc-27" style="edgeStyle=none;rounded=1;sketch=0;orthogonalLoop=1;jettySize=auto;html=1;exitX=0;exitY=0;exitDx=0;exitDy=0;entryX=0.5;entryY=1;entryDx=0;entryDy=0;fontColor=#1A1A1A;endArrow=none;endFill=0;strokeColor=#182E3E;strokeWidth=3;" parent="rN30uLhsNGHc-pYTwNAc-1" source="rN30uLhsNGHc-pYTwNAc-29" target="rN30uLhsNGHc-pYTwNAc-74" edge="1">&#xa;                    <mxGeometry relative="1" as="geometry"/>&#xa;                </mxCell>&#xa;                <mxCell id="rN30uLhsNGHc-pYTwNAc-28" style="edgeStyle=none;rounded=1;sketch=0;orthogonalLoop=1;jettySize=auto;html=1;exitX=0.75;exitY=0;exitDx=0;exitDy=0;entryX=0.5;entryY=1;entryDx=0;entryDy=0;fontColor=#1A1A1A;endArrow=none;endFill=0;strokeColor=#182E3E;strokeWidth=3;" parent="rN30uLhsNGHc-pYTwNAc-1" source="rN30uLhsNGHc-pYTwNAc-29" target="rN30uLhsNGHc-pYTwNAc-73" edge="1">&#xa;                    <mxGeometry relative="1" as="geometry"/>&#xa;                </mxCell>&#xa;                <mxCell id="rN30uLhsNGHc-pYTwNAc-29" value="game" style="rounded=0;whiteSpace=wrap;html=1;sketch=0;fontColor=#1A1A1A;strokeColor=#FFFFFF;fillColor=#F08E81;" parent="rN30uLhsNGHc-pYTwNAc-1" vertex="1">&#xa;                    <mxGeometry x="708" y="657" width="120" height="60" as="geometry"/>&#xa;                </mxCell>&#xa;                <mxCell id="rN30uLhsNGHc-pYTwNAc-30" style="edgeStyle=none;rounded=1;sketch=0;orthogonalLoop=1;jettySize=auto;html=1;entryX=0.5;entryY=1;entryDx=0;entryDy=0;fontColor=#1A1A1A;endArrow=none;endFill=0;strokeColor=#182E3E;strokeWidth=3;exitX=0;exitY=0;exitDx=0;exitDy=0;" parent="rN30uLhsNGHc-pYTwNAc-1" source="rN30uLhsNGHc-pYTwNAc-33" target="rN30uLhsNGHc-pYTwNAc-81" edge="1">&#xa;                    <mxGeometry relative="1" as="geometry">&#xa;                        <mxPoint x="358" y="817" as="sourcePoint"/>&#xa;                    </mxGeometry>&#xa;                </mxCell>&#xa;                <mxCell id="rN30uLhsNGHc-pYTwNAc-31" style="edgeStyle=none;rounded=1;sketch=0;orthogonalLoop=1;jettySize=auto;html=1;exitX=0.75;exitY=0;exitDx=0;exitDy=0;entryX=0;entryY=1;entryDx=0;entryDy=0;fontColor=#1A1A1A;endArrow=none;endFill=0;strokeColor=#182E3E;strokeWidth=3;" parent="rN30uLhsNGHc-pYTwNAc-1" source="rN30uLhsNGHc-pYTwNAc-33" target="rN30uLhsNGHc-pYTwNAc-80" edge="1">&#xa;                    <mxGeometry relative="1" as="geometry"/>&#xa;                </mxCell>&#xa;                <mxCell id="rN30uLhsNGHc-pYTwNAc-32" style="edgeStyle=none;rounded=1;sketch=0;orthogonalLoop=1;jettySize=auto;html=1;exitX=0.5;exitY=1;exitDx=0;exitDy=0;entryX=0.5;entryY=0;entryDx=0;entryDy=0;fontColor=#1A1A1A;endArrow=none;endFill=0;strokeColor=#182E3E;strokeWidth=1;" parent="rN30uLhsNGHc-pYTwNAc-1" source="rN30uLhsNGHc-pYTwNAc-33" target="rN30uLhsNGHc-pYTwNAc-48" edge="1">&#xa;                    <mxGeometry relative="1" as="geometry"/>&#xa;                </mxCell>&#xa;                <mxCell id="rN30uLhsNGHc-pYTwNAc-33" value="amiibo" style="rounded=0;whiteSpace=wrap;html=1;sketch=0;fontColor=#1A1A1A;strokeColor=#FFFFFF;fillColor=#F08E81;" parent="rN30uLhsNGHc-pYTwNAc-1" vertex="1">&#xa;                    <mxGeometry x="368" y="817" width="120" height="60" as="geometry"/>&#xa;                </mxCell>&#xa;                <mxCell id="rN30uLhsNGHc-pYTwNAc-34" style="edgeStyle=none;rounded=1;sketch=0;orthogonalLoop=1;jettySize=auto;html=1;exitX=0;exitY=1;exitDx=0;exitDy=0;entryX=0.5;entryY=0;entryDx=0;entryDy=0;fontColor=#1A1A1A;endArrow=none;endFill=0;strokeColor=#182E3E;strokeWidth=3;" parent="rN30uLhsNGHc-pYTwNAc-1" source="rN30uLhsNGHc-pYTwNAc-36" target="rN30uLhsNGHc-pYTwNAc-82" edge="1">&#xa;                    <mxGeometry relative="1" as="geometry"/>&#xa;                </mxCell>&#xa;                <mxCell id="rN30uLhsNGHc-pYTwNAc-35" style="edgeStyle=none;rounded=1;sketch=0;orthogonalLoop=1;jettySize=auto;html=1;exitX=1;exitY=1;exitDx=0;exitDy=0;entryX=0.5;entryY=0;entryDx=0;entryDy=0;fontColor=#1A1A1A;endArrow=none;endFill=0;strokeColor=#182E3E;strokeWidth=3;" parent="rN30uLhsNGHc-pYTwNAc-1" source="rN30uLhsNGHc-pYTwNAc-36" target="rN30uLhsNGHc-pYTwNAc-54" edge="1">&#xa;                    <mxGeometry relative="1" as="geometry"/>&#xa;                </mxCell>&#xa;                <mxCell id="rN30uLhsNGHc-pYTwNAc-36" value="nfc tag" style="rounded=0;whiteSpace=wrap;html=1;sketch=0;fontColor=#1A1A1A;strokeColor=#FFFFFF;fillColor=#F08E81;" parent="rN30uLhsNGHc-pYTwNAc-1" vertex="1">&#xa;                    <mxGeometry x="548" y="917" width="120" height="60" as="geometry"/>&#xa;                </mxCell>&#xa;                <mxCell id="rN30uLhsNGHc-pYTwNAc-37" style="edgeStyle=none;rounded=1;sketch=0;orthogonalLoop=1;jettySize=auto;html=1;exitX=1;exitY=0.5;exitDx=0;exitDy=0;entryX=0;entryY=0.5;entryDx=0;entryDy=0;fontColor=#1A1A1A;strokeColor=#182E3E;endArrow=none;endFill=0;labelBackgroundColor=#B0E3E6;" parent="rN30uLhsNGHc-pYTwNAc-1" source="rN30uLhsNGHc-pYTwNAc-38" target="rN30uLhsNGHc-pYTwNAc-15" edge="1">&#xa;                    <mxGeometry relative="1" as="geometry"/>&#xa;                </mxCell>&#xa;                <mxCell id="rN30uLhsNGHc-pYTwNAc-38" value="drinks" style="rhombus;whiteSpace=wrap;html=1;rounded=0;sketch=0;fontColor=#1A1A1A;strokeColor=#FFFFFF;fillColor=#F08E81;" parent="rN30uLhsNGHc-pYTwNAc-1" vertex="1">&#xa;                    <mxGeometry x="853" y="227" width="80" height="80" as="geometry"/>&#xa;                </mxCell>&#xa;                <mxCell id="rN30uLhsNGHc-pYTwNAc-39" style="edgeStyle=none;rounded=1;sketch=0;orthogonalLoop=1;jettySize=auto;html=1;exitX=0;exitY=0;exitDx=0;exitDy=0;fontColor=#1A1A1A;strokeColor=#182E3E;endArrow=classic;endFill=1;labelBackgroundColor=#B0E3E6;strokeWidth=3;entryX=0.5;entryY=1;entryDx=0;entryDy=0;" parent="rN30uLhsNGHc-pYTwNAc-1" source="rN30uLhsNGHc-pYTwNAc-20" target="rN30uLhsNGHc-pYTwNAc-40" edge="1">&#xa;                    <mxGeometry relative="1" as="geometry">&#xa;                        <mxPoint x="1058" y="497" as="targetPoint"/>&#xa;                    </mxGeometry>&#xa;                </mxCell>&#xa;                <mxCell id="rN30uLhsNGHc-pYTwNAc-40" value="lives in" style="rhombus;whiteSpace=wrap;html=1;rounded=0;sketch=0;fontColor=#1A1A1A;strokeColor=#FFFFFF;fillColor=#F08E81;" parent="rN30uLhsNGHc-pYTwNAc-1" vertex="1">&#xa;                    <mxGeometry x="988" y="407" width="80" height="80" as="geometry"/>&#xa;                </mxCell>&#xa;                <mxCell id="rN30uLhsNGHc-pYTwNAc-41" style="edgeStyle=none;rounded=1;sketch=0;orthogonalLoop=1;jettySize=auto;html=1;exitX=0.5;exitY=1;exitDx=0;exitDy=0;entryX=0.25;entryY=0;entryDx=0;entryDy=0;fontColor=#1A1A1A;endArrow=none;endFill=0;strokeColor=#182E3E;strokeWidth=3;" parent="rN30uLhsNGHc-pYTwNAc-1" source="rN30uLhsNGHc-pYTwNAc-42" target="rN30uLhsNGHc-pYTwNAc-29" edge="1">&#xa;                    <mxGeometry relative="1" as="geometry"/>&#xa;                </mxCell>&#xa;                <mxCell id="rN30uLhsNGHc-pYTwNAc-42" value="featured in" style="rhombus;whiteSpace=wrap;html=1;rounded=0;sketch=0;fontColor=#1A1A1A;strokeColor=#FFFFFF;fillColor=#F08E81;" parent="rN30uLhsNGHc-pYTwNAc-1" vertex="1">&#xa;                    <mxGeometry x="718" y="457" width="80" height="80" as="geometry"/>&#xa;                </mxCell>&#xa;                <mxCell id="rN30uLhsNGHc-pYTwNAc-43" style="edgeStyle=none;rounded=1;sketch=0;orthogonalLoop=1;jettySize=auto;html=1;exitX=0;exitY=0;exitDx=0;exitDy=0;entryX=0.5;entryY=1;entryDx=0;entryDy=0;fontColor=#1A1A1A;endArrow=classic;endFill=1;strokeColor=#182E3E;" parent="rN30uLhsNGHc-pYTwNAc-1" source="rN30uLhsNGHc-pYTwNAc-26" target="rN30uLhsNGHc-pYTwNAc-44" edge="1">&#xa;                    <mxGeometry relative="1" as="geometry"/>&#xa;                </mxCell>&#xa;                <mxCell id="rN30uLhsNGHc-pYTwNAc-44" value="contains" style="rhombus;whiteSpace=wrap;html=1;rounded=0;sketch=0;fontColor=#1A1A1A;strokeColor=#FFFFFF;fillColor=#F08E81;" parent="rN30uLhsNGHc-pYTwNAc-1" vertex="1">&#xa;                    <mxGeometry x="893" y="847" width="80" height="80" as="geometry"/>&#xa;                </mxCell>&#xa;                <mxCell id="rN30uLhsNGHc-pYTwNAc-45" style="edgeStyle=none;rounded=1;sketch=0;orthogonalLoop=1;jettySize=auto;html=1;exitX=0.5;exitY=0;exitDx=0;exitDy=0;entryX=0.5;entryY=1;entryDx=0;entryDy=0;fontColor=#1A1A1A;endArrow=classic;endFill=1;strokeColor=#182E3E;strokeWidth=1;" parent="rN30uLhsNGHc-pYTwNAc-1" source="rN30uLhsNGHc-pYTwNAc-33" target="rN30uLhsNGHc-pYTwNAc-46" edge="1">&#xa;                    <mxGeometry relative="1" as="geometry"/>&#xa;                </mxCell>&#xa;                <mxCell id="rN30uLhsNGHc-pYTwNAc-46" value="has" style="rhombus;whiteSpace=wrap;html=1;rounded=0;sketch=0;fontColor=#1A1A1A;strokeColor=#FFFFFF;fillColor=#F08E81;" parent="rN30uLhsNGHc-pYTwNAc-1" vertex="1">&#xa;                    <mxGeometry x="383" y="627" width="80" height="80" as="geometry"/>&#xa;                </mxCell>&#xa;                <mxCell id="rN30uLhsNGHc-pYTwNAc-47" style="edgeStyle=none;rounded=1;sketch=0;orthogonalLoop=1;jettySize=auto;html=1;fontColor=#1A1A1A;endArrow=classic;endFill=1;strokeColor=#182E3E;strokeWidth=3;entryX=1;entryY=0.5;entryDx=0;entryDy=0;exitX=0;exitY=0.5;exitDx=0;exitDy=0;" parent="rN30uLhsNGHc-pYTwNAc-1" source="rN30uLhsNGHc-pYTwNAc-36" target="rN30uLhsNGHc-pYTwNAc-48" edge="1">&#xa;                    <mxGeometry relative="1" as="geometry">&#xa;                        <mxPoint x="528" y="927" as="sourcePoint"/>&#xa;                        <mxPoint x="508" y="957" as="targetPoint"/>&#xa;                    </mxGeometry>&#xa;                </mxCell>&#xa;                <mxCell id="rN30uLhsNGHc-pYTwNAc-48" value="written to" style="rhombus;whiteSpace=wrap;html=1;rounded=0;sketch=0;fontColor=#1A1A1A;strokeColor=#FFFFFF;fillColor=#F08E81;" parent="rN30uLhsNGHc-pYTwNAc-1" vertex="1">&#xa;                    <mxGeometry x="388" y="907" width="80" height="80" as="geometry"/>&#xa;                </mxCell>&#xa;                <mxCell id="rN30uLhsNGHc-pYTwNAc-49" value="beans" style="ellipse;whiteSpace=wrap;html=1;rounded=0;sketch=0;fontColor=#1A1A1A;strokeColor=#FFFFFF;fillColor=#F08E81;" parent="rN30uLhsNGHc-pYTwNAc-1" vertex="1">&#xa;                    <mxGeometry x="938" y="127" width="90" height="60" as="geometry"/>&#xa;                </mxCell>&#xa;                <mxCell id="rN30uLhsNGHc-pYTwNAc-50" value="milk" style="ellipse;whiteSpace=wrap;html=1;rounded=0;sketch=0;fontColor=#1A1A1A;strokeColor=#FFFFFF;fillColor=#F08E81;" parent="rN30uLhsNGHc-pYTwNAc-1" vertex="1">&#xa;                    <mxGeometry x="1043" y="127" width="90" height="60" as="geometry"/>&#xa;                </mxCell>&#xa;                <mxCell id="rN30uLhsNGHc-pYTwNAc-51" value="sugar" style="ellipse;whiteSpace=wrap;html=1;rounded=0;sketch=0;fontColor=#1A1A1A;strokeColor=#FFFFFF;fillColor=#F08E81;" parent="rN30uLhsNGHc-pYTwNAc-1" vertex="1">&#xa;                    <mxGeometry x="1148" y="127" width="90" height="60" as="geometry"/>&#xa;                </mxCell>&#xa;                <mxCell id="rN30uLhsNGHc-pYTwNAc-52" style="edgeStyle=none;rounded=1;sketch=0;orthogonalLoop=1;jettySize=auto;html=1;exitX=0.5;exitY=0;exitDx=0;exitDy=0;fontColor=#1A1A1A;endArrow=none;endFill=0;strokeColor=#182E3E;strokeWidth=3;entryX=0.75;entryY=1;entryDx=0;entryDy=0;" parent="rN30uLhsNGHc-pYTwNAc-1" source="rN30uLhsNGHc-pYTwNAc-53" target="rN30uLhsNGHc-pYTwNAc-11" edge="1">&#xa;                    <mxGeometry relative="1" as="geometry">&#xa;                        <mxPoint x="518" y="417" as="targetPoint"/>&#xa;                    </mxGeometry>&#xa;                </mxCell>&#xa;                <mxCell id="rN30uLhsNGHc-pYTwNAc-53" value="&lt;u&gt;name&lt;/u&gt;" style="ellipse;whiteSpace=wrap;html=1;rounded=0;sketch=0;fontColor=#1A1A1A;strokeColor=#FFFFFF;fillColor=#F08E81;" parent="rN30uLhsNGHc-pYTwNAc-1" vertex="1">&#xa;                    <mxGeometry x="528" y="427" width="90" height="60" as="geometry"/>&#xa;                </mxCell>&#xa;                <mxCell id="rN30uLhsNGHc-pYTwNAc-54" value="drawn?" style="ellipse;whiteSpace=wrap;html=1;rounded=0;sketch=0;fontColor=#1A1A1A;strokeColor=#FFFFFF;fillColor=#F08E81;" parent="rN30uLhsNGHc-pYTwNAc-1" vertex="1">&#xa;                    <mxGeometry x="628" y="1007" width="90" height="60" as="geometry"/>&#xa;                </mxCell>&#xa;                <mxCell id="rN30uLhsNGHc-pYTwNAc-57" style="edgeStyle=none;rounded=1;sketch=0;orthogonalLoop=1;jettySize=auto;html=1;exitX=1;exitY=0;exitDx=0;exitDy=0;entryX=0;entryY=1;entryDx=0;entryDy=0;fontColor=#1A1A1A;endArrow=none;endFill=0;strokeColor=#182E3E;strokeWidth=3;" parent="rN30uLhsNGHc-pYTwNAc-1" source="rN30uLhsNGHc-pYTwNAc-58" target="rN30uLhsNGHc-pYTwNAc-11" edge="1">&#xa;                    <mxGeometry relative="1" as="geometry"/>&#xa;                </mxCell>&#xa;                <mxCell id="rN30uLhsNGHc-pYTwNAc-58" value="species" style="ellipse;whiteSpace=wrap;html=1;rounded=0;sketch=0;fontColor=#1A1A1A;strokeColor=#FFFFFF;fillColor=#F08E81;" parent="rN30uLhsNGHc-pYTwNAc-1" vertex="1">&#xa;                    <mxGeometry x="338" y="477" width="90" height="60" as="geometry"/>&#xa;                </mxCell>&#xa;                <mxCell id="rN30uLhsNGHc-pYTwNAc-59" style="edgeStyle=none;rounded=1;sketch=0;orthogonalLoop=1;jettySize=auto;html=1;exitX=1;exitY=0.5;exitDx=0;exitDy=0;entryX=0;entryY=0.5;entryDx=0;entryDy=0;fontColor=#1A1A1A;endArrow=none;endFill=0;strokeColor=#182E3E;strokeWidth=1;" parent="rN30uLhsNGHc-pYTwNAc-1" source="rN30uLhsNGHc-pYTwNAc-60" target="rN30uLhsNGHc-pYTwNAc-11" edge="1">&#xa;                    <mxGeometry relative="1" as="geometry"/>&#xa;                </mxCell>&#xa;                <mxCell id="rN30uLhsNGHc-pYTwNAc-60" value="subtype" style="ellipse;whiteSpace=wrap;html=1;rounded=0;sketch=0;fontColor=#1A1A1A;strokeColor=#FFFFFF;fillColor=#F08E81;" parent="rN30uLhsNGHc-pYTwNAc-1" vertex="1">&#xa;                    <mxGeometry x="288" y="347" width="90" height="60" as="geometry"/>&#xa;                </mxCell>&#xa;                <mxCell id="rN30uLhsNGHc-pYTwNAc-61" style="edgeStyle=none;rounded=1;sketch=0;orthogonalLoop=1;jettySize=auto;html=1;exitX=1;exitY=0.5;exitDx=0;exitDy=0;entryX=0;entryY=0.25;entryDx=0;entryDy=0;fontColor=#1A1A1A;endArrow=none;endFill=0;strokeColor=#182E3E;strokeWidth=3;" parent="rN30uLhsNGHc-pYTwNAc-1" source="rN30uLhsNGHc-pYTwNAc-62" target="rN30uLhsNGHc-pYTwNAc-11" edge="1">&#xa;                    <mxGeometry relative="1" as="geometry"/>&#xa;                </mxCell>&#xa;                <mxCell id="rN30uLhsNGHc-pYTwNAc-62" value="gender" style="ellipse;whiteSpace=wrap;html=1;rounded=0;sketch=0;fontColor=#1A1A1A;strokeColor=#FFFFFF;fillColor=#F08E81;" parent="rN30uLhsNGHc-pYTwNAc-1" vertex="1">&#xa;                    <mxGeometry x="308" y="277" width="90" height="60" as="geometry"/>&#xa;                </mxCell>&#xa;                <mxCell id="rN30uLhsNGHc-pYTwNAc-63" style="edgeStyle=none;rounded=1;sketch=0;orthogonalLoop=1;jettySize=auto;html=1;entryX=0;entryY=0;entryDx=0;entryDy=0;fontColor=#1A1A1A;endArrow=none;endFill=0;strokeColor=#182E3E;strokeWidth=3;exitX=1;exitY=1;exitDx=0;exitDy=0;" parent="rN30uLhsNGHc-pYTwNAc-1" source="rN30uLhsNGHc-pYTwNAc-64" target="rN30uLhsNGHc-pYTwNAc-11" edge="1">&#xa;                    <mxGeometry relative="1" as="geometry">&#xa;                        <mxPoint x="408" y="267" as="sourcePoint"/>&#xa;                    </mxGeometry>&#xa;                </mxCell>&#xa;                <mxCell id="rN30uLhsNGHc-pYTwNAc-64" value="birthday" style="ellipse;whiteSpace=wrap;html=1;rounded=0;sketch=0;fontColor=#1A1A1A;strokeColor=#FFFFFF;fillColor=#F08E81;" parent="rN30uLhsNGHc-pYTwNAc-1" vertex="1">&#xa;                    <mxGeometry x="318" y="207" width="90" height="60" as="geometry"/>&#xa;                </mxCell>&#xa;                <mxCell id="rN30uLhsNGHc-pYTwNAc-65" value="hobby" style="ellipse;whiteSpace=wrap;html=1;rounded=0;sketch=0;fontColor=#1A1A1A;strokeColor=#FFFFFF;fillColor=#F08E81;" parent="rN30uLhsNGHc-pYTwNAc-1" vertex="1">&#xa;                    <mxGeometry x="468" y="147" width="90" height="60" as="geometry"/>&#xa;                </mxCell>&#xa;                <mxCell id="rN30uLhsNGHc-pYTwNAc-66" value="catchphrase" style="ellipse;whiteSpace=wrap;html=1;rounded=0;sketch=0;fontColor=#1A1A1A;strokeColor=#FFFFFF;fillColor=#F08E81;" parent="rN30uLhsNGHc-pYTwNAc-1" vertex="1">&#xa;                    <mxGeometry x="378" y="157" width="90" height="60" as="geometry"/>&#xa;                </mxCell>&#xa;                <mxCell id="rN30uLhsNGHc-pYTwNAc-67" value="favourite color" style="ellipse;whiteSpace=wrap;html=1;rounded=0;sketch=0;fontColor=#1A1A1A;strokeColor=#FFFFFF;fillColor=#F08E81;" parent="rN30uLhsNGHc-pYTwNAc-1" vertex="1">&#xa;                    <mxGeometry x="528" y="207" width="90" height="60" as="geometry"/>&#xa;                </mxCell>&#xa;                <mxCell id="rN30uLhsNGHc-pYTwNAc-68" value="favourite song" style="ellipse;whiteSpace=wrap;html=1;rounded=0;sketch=0;fontColor=#1A1A1A;strokeColor=#FFFFFF;fillColor=#F08E81;" parent="rN30uLhsNGHc-pYTwNAc-1" vertex="1">&#xa;                    <mxGeometry x="598" y="257" width="90" height="60" as="geometry"/>&#xa;                </mxCell>&#xa;                <mxCell id="rN30uLhsNGHc-pYTwNAc-69" value="is sanrio?" style="ellipse;whiteSpace=wrap;html=1;rounded=0;sketch=0;fontColor=#1A1A1A;strokeColor=#FFFFFF;fillColor=#F08E81;" parent="rN30uLhsNGHc-pYTwNAc-1" vertex="1">&#xa;                    <mxGeometry x="458" y="477" width="90" height="60" as="geometry"/>&#xa;                </mxCell>&#xa;                <mxCell id="rN30uLhsNGHc-pYTwNAc-70" value="wallpaper" style="ellipse;whiteSpace=wrap;html=1;rounded=0;sketch=0;fontColor=#1A1A1A;strokeColor=#FFFFFF;fillColor=#F08E81;" parent="rN30uLhsNGHc-pYTwNAc-1" vertex="1">&#xa;                    <mxGeometry x="1048" y="687" width="90" height="60" as="geometry"/>&#xa;                </mxCell>&#xa;                <mxCell id="rN30uLhsNGHc-pYTwNAc-71" value="floor&lt;span style=&quot;color: rgba(0 , 0 , 0 , 0) ; font-family: monospace ; font-size: 0px&quot;&gt;%3CmxGraphModel%3E%3Croot%3E%3CmxCell%20id%3D%220%22%2F%3E%3CmxCell%20id%3D%221%22%20parent%3D%220%22%2F%3E%3CmxCell%20id%3D%222%22%20value%3D%22%22%20style%3D%22ellipse%3BwhiteSpace%3Dwrap%3Bhtml%3D1%3Brounded%3D0%3Bsketch%3D0%3BfontColor%3D%231A1A1A%3BstrokeColor%3D%23FFFFFF%3BfillColor%3D%23F08E81%3B%22%20vertex%3D%221%22%20parent%3D%221%22%3E%3CmxGeometry%20x%3D%22240%22%20y%3D%2250%22%20width%3D%2290%22%20height%3D%2260%22%20as%3D%22geometry%22%2F%3E%3C%2FmxCell%3E%3C%2Froot%3E%3C%2FmxGraphModel%3E&lt;/span&gt;" style="ellipse;whiteSpace=wrap;html=1;rounded=0;sketch=0;fontColor=#1A1A1A;strokeColor=#FFFFFF;fillColor=#F08E81;" parent="rN30uLhsNGHc-pYTwNAc-1" vertex="1">&#xa;                    <mxGeometry x="1153" y="707" width="90" height="60" as="geometry"/>&#xa;                </mxCell>&#xa;                <mxCell id="rN30uLhsNGHc-pYTwNAc-72" value="music playing" style="ellipse;whiteSpace=wrap;html=1;rounded=0;sketch=0;fontColor=#1A1A1A;strokeColor=#FFFFFF;fillColor=#F08E81;" parent="rN30uLhsNGHc-pYTwNAc-1" vertex="1">&#xa;                    <mxGeometry x="1173" y="787" width="90" height="60" as="geometry"/>&#xa;                </mxCell>&#xa;                <mxCell id="rN30uLhsNGHc-pYTwNAc-73" value="name" style="ellipse;whiteSpace=wrap;html=1;rounded=0;sketch=0;fontColor=#1A1A1A;strokeColor=#FFFFFF;fillColor=#F08E81;" parent="rN30uLhsNGHc-pYTwNAc-1" vertex="1">&#xa;                    <mxGeometry x="788" y="577" width="90" height="60" as="geometry"/>&#xa;                </mxCell>&#xa;                <mxCell id="rN30uLhsNGHc-pYTwNAc-74" value="year released" style="ellipse;whiteSpace=wrap;html=1;rounded=0;sketch=0;fontColor=#1A1A1A;strokeColor=#FFFFFF;fillColor=#F08E81;" parent="rN30uLhsNGHc-pYTwNAc-1" vertex="1">&#xa;                    <mxGeometry x="618" y="587" width="90" height="60" as="geometry"/>&#xa;                </mxCell>&#xa;                <mxCell id="rN30uLhsNGHc-pYTwNAc-75" value="buy price" style="ellipse;whiteSpace=wrap;html=1;rounded=0;sketch=0;fontColor=#1A1A1A;strokeColor=#FFFFFF;fillColor=#F08E81;" parent="rN30uLhsNGHc-pYTwNAc-1" vertex="1">&#xa;                    <mxGeometry x="1003" y="897" width="90" height="60" as="geometry"/>&#xa;                </mxCell>&#xa;                <mxCell id="rN30uLhsNGHc-pYTwNAc-76" value="sell price" style="ellipse;whiteSpace=wrap;html=1;rounded=0;sketch=0;fontColor=#1A1A1A;strokeColor=#FFFFFF;fillColor=#F08E81;" parent="rN30uLhsNGHc-pYTwNAc-1" vertex="1">&#xa;                    <mxGeometry x="1113" y="897" width="90" height="60" as="geometry"/>&#xa;                </mxCell>&#xa;                <mxCell id="rN30uLhsNGHc-pYTwNAc-77" value="style" style="ellipse;whiteSpace=wrap;html=1;rounded=0;sketch=0;fontColor=#1A1A1A;strokeColor=#FFFFFF;fillColor=#F08E81;" parent="rN30uLhsNGHc-pYTwNAc-1" vertex="1">&#xa;                    <mxGeometry x="1183" y="957" width="90" height="60" as="geometry"/>&#xa;                </mxCell>&#xa;                <mxCell id="rN30uLhsNGHc-pYTwNAc-78" value="size" style="ellipse;whiteSpace=wrap;html=1;rounded=0;sketch=0;fontColor=#1A1A1A;strokeColor=#FFFFFF;fillColor=#F08E81;" parent="rN30uLhsNGHc-pYTwNAc-1" vertex="1">&#xa;                    <mxGeometry x="923" y="987" width="90" height="60" as="geometry"/>&#xa;                </mxCell>&#xa;                <mxCell id="rN30uLhsNGHc-pYTwNAc-79" value="placeable on surface" style="ellipse;whiteSpace=wrap;html=1;rounded=0;sketch=0;fontColor=#1A1A1A;strokeColor=#FFFFFF;fillColor=#F08E81;" parent="rN30uLhsNGHc-pYTwNAc-1" vertex="1">&#xa;                    <mxGeometry x="1163" y="1037" width="90" height="60" as="geometry"/>&#xa;                </mxCell>&#xa;                <mxCell id="rN30uLhsNGHc-pYTwNAc-80" value="&lt;u&gt;id&lt;/u&gt;" style="ellipse;whiteSpace=wrap;html=1;rounded=0;sketch=0;fontColor=#1A1A1A;strokeColor=#FFFFFF;fillColor=#F08E81;" parent="rN30uLhsNGHc-pYTwNAc-1" vertex="1">&#xa;                    <mxGeometry x="453" y="727" width="90" height="60" as="geometry"/>&#xa;                </mxCell>&#xa;                <mxCell id="rN30uLhsNGHc-pYTwNAc-81" value="series" style="ellipse;whiteSpace=wrap;html=1;rounded=0;sketch=0;fontColor=#1A1A1A;strokeColor=#FFFFFF;fillColor=#F08E81;" parent="rN30uLhsNGHc-pYTwNAc-1" vertex="1">&#xa;                    <mxGeometry x="308" y="727" width="90" height="60" as="geometry"/>&#xa;                </mxCell>&#xa;                <mxCell id="rN30uLhsNGHc-pYTwNAc-82" value="written?" style="ellipse;whiteSpace=wrap;html=1;rounded=0;sketch=0;fontColor=#1A1A1A;strokeColor=#FFFFFF;fillColor=#F08E81;" parent="rN30uLhsNGHc-pYTwNAc-1" vertex="1">&#xa;                    <mxGeometry x="498" y="1007" width="90" height="60" as="geometry"/>&#xa;                </mxCell>&#xa;                <mxCell id="rN30uLhsNGHc-pYTwNAc-83" value="" style="edgeStyle=none;rounded=0;orthogonalLoop=1;jettySize=auto;html=1;endArrow=none;endFill=0;strokeColor=#000000;strokeWidth=3;" parent="rN30uLhsNGHc-pYTwNAc-1" source="rN30uLhsNGHc-pYTwNAc-84" target="rN30uLhsNGHc-pYTwNAc-33" edge="1">&#xa;                    <mxGeometry relative="1" as="geometry"/>&#xa;                </mxCell>&#xa;                <mxCell id="rN30uLhsNGHc-pYTwNAc-84" value="card id" style="ellipse;whiteSpace=wrap;html=1;rounded=0;sketch=0;fontColor=#1A1A1A;strokeColor=#FFFFFF;fillColor=#F08E81;" parent="rN30uLhsNGHc-pYTwNAc-1" vertex="1">&#xa;                    <mxGeometry x="240" y="817" width="90" height="60" as="geometry"/>&#xa;                </mxCell>&#xa;                <mxCell id="rN30uLhsNGHc-pYTwNAc-85" style="edgeStyle=none;rounded=0;orthogonalLoop=1;jettySize=auto;html=1;exitX=0;exitY=0.5;exitDx=0;exitDy=0;entryX=1;entryY=0.5;entryDx=0;entryDy=0;endArrow=none;endFill=0;strokeColor=#000000;strokeWidth=3;" parent="rN30uLhsNGHc-pYTwNAc-1" source="rN30uLhsNGHc-pYTwNAc-86" target="rN30uLhsNGHc-pYTwNAc-36" edge="1">&#xa;                    <mxGeometry relative="1" as="geometry"/>&#xa;                </mxCell>&#xa;                <mxCell id="rN30uLhsNGHc-pYTwNAc-86" value="&lt;u&gt;id&lt;/u&gt;" style="ellipse;whiteSpace=wrap;html=1;rounded=0;sketch=0;fontColor=#1A1A1A;strokeColor=#FFFFFF;fillColor=#F08E81;" parent="rN30uLhsNGHc-pYTwNAc-1" vertex="1">&#xa;                    <mxGeometry x="710" y="917" width="90" height="60" as="geometry"/>&#xa;                </mxCell>&#xa;                <mxCell id="rN30uLhsNGHc-pYTwNAc-87" style="edgeStyle=none;rounded=0;orthogonalLoop=1;jettySize=auto;html=1;exitX=0.5;exitY=0;exitDx=0;exitDy=0;entryX=0.25;entryY=1;entryDx=0;entryDy=0;endArrow=none;endFill=0;strokeColor=#000000;strokeWidth=3;" parent="rN30uLhsNGHc-pYTwNAc-1" source="rN30uLhsNGHc-pYTwNAc-88" target="rN30uLhsNGHc-pYTwNAc-26" edge="1">&#xa;                    <mxGeometry relative="1" as="geometry"/>&#xa;                </mxCell>&#xa;                <mxCell id="rN30uLhsNGHc-pYTwNAc-88" value="&lt;u&gt;id&lt;/u&gt;" style="ellipse;whiteSpace=wrap;html=1;rounded=0;sketch=0;fontColor=#1A1A1A;strokeColor=#FFFFFF;fillColor=#F08E81;" parent="rN30uLhsNGHc-pYTwNAc-1" vertex="1">&#xa;                    <mxGeometry x="1003" y="1080" width="90" height="60" as="geometry"/>&#xa;                </mxCell>&#xa;                <mxCell id="rN30uLhsNGHc-pYTwNAc-89" style="edgeStyle=none;rounded=0;orthogonalLoop=1;jettySize=auto;html=1;exitX=0.5;exitY=0;exitDx=0;exitDy=0;entryX=0.5;entryY=1;entryDx=0;entryDy=0;endArrow=none;endFill=0;strokeColor=#000000;strokeWidth=3;" parent="rN30uLhsNGHc-pYTwNAc-1" source="rN30uLhsNGHc-pYTwNAc-90" target="rN30uLhsNGHc-pYTwNAc-15" edge="1">&#xa;                    <mxGeometry relative="1" as="geometry"/>&#xa;                </mxCell>&#xa;                <mxCell id="rN30uLhsNGHc-pYTwNAc-90" value="&lt;u&gt;id&lt;/u&gt;" style="ellipse;whiteSpace=wrap;html=1;rounded=0;sketch=0;fontColor=#1A1A1A;strokeColor=#FFFFFF;fillColor=#F08E81;" parent="rN30uLhsNGHc-pYTwNAc-1" vertex="1">&#xa;                    <mxGeometry x="1043" y="330" width="90" height="60" as="geometry"/>&#xa;                </mxCell>&#xa;                <mxCell id="rN30uLhsNGHc-pYTwNAc-91" style="edgeStyle=none;rounded=0;orthogonalLoop=1;jettySize=auto;html=1;exitX=0.5;exitY=0;exitDx=0;exitDy=0;entryX=0.5;entryY=1;entryDx=0;entryDy=0;endArrow=none;endFill=0;strokeColor=#000000;strokeWidth=3;" parent="rN30uLhsNGHc-pYTwNAc-1" source="rN30uLhsNGHc-pYTwNAc-92" target="rN30uLhsNGHc-pYTwNAc-29" edge="1">&#xa;                    <mxGeometry relative="1" as="geometry"/>&#xa;                </mxCell>&#xa;                <mxCell id="rN30uLhsNGHc-pYTwNAc-92" value="&lt;u&gt;id&lt;/u&gt;" style="ellipse;whiteSpace=wrap;html=1;rounded=0;sketch=0;fontColor=#1A1A1A;strokeColor=#FFFFFF;fillColor=#F08E81;" parent="rN30uLhsNGHc-pYTwNAc-1" vertex="1">&#xa;                    <mxGeometry x="723" y="757" width="90" height="60" as="geometry"/>&#xa;                </mxCell>&#xa;                <mxCell id="rN30uLhsNGHc-pYTwNAc-93" style="edgeStyle=none;rounded=0;orthogonalLoop=1;jettySize=auto;html=1;exitX=1;exitY=0.5;exitDx=0;exitDy=0;entryX=0;entryY=0.5;entryDx=0;entryDy=0;endArrow=none;endFill=0;strokeColor=#000000;strokeWidth=3;" parent="rN30uLhsNGHc-pYTwNAc-1" source="rN30uLhsNGHc-pYTwNAc-94" target="rN30uLhsNGHc-pYTwNAc-29" edge="1">&#xa;                    <mxGeometry relative="1" as="geometry"/>&#xa;                </mxCell>&#xa;                <mxCell id="rN30uLhsNGHc-pYTwNAc-94" value="console" style="ellipse;whiteSpace=wrap;html=1;rounded=0;sketch=0;fontColor=#1A1A1A;strokeColor=#FFFFFF;fillColor=#F08E81;" parent="rN30uLhsNGHc-pYTwNAc-1" vertex="1">&#xa;                    <mxGeometry x="578" y="657" width="90" height="60" as="geometry"/>&#xa;                </mxCell>&#xa;                <mxCell id="rN30uLhsNGHc-pYTwNAc-95" style="edgeStyle=none;rounded=0;orthogonalLoop=1;jettySize=auto;html=1;exitX=1;exitY=1;exitDx=0;exitDy=0;entryX=0;entryY=0.5;entryDx=0;entryDy=0;endArrow=none;endFill=0;strokeColor=#000000;strokeWidth=3;" parent="rN30uLhsNGHc-pYTwNAc-1" source="rN30uLhsNGHc-pYTwNAc-96" target="rN30uLhsNGHc-pYTwNAc-20" edge="1">&#xa;                    <mxGeometry relative="1" as="geometry"/>&#xa;                </mxCell>&#xa;                <mxCell id="rN30uLhsNGHc-pYTwNAc-96" value="&lt;u&gt;id&lt;/u&gt;" style="ellipse;whiteSpace=wrap;html=1;rounded=0;sketch=0;fontColor=#1A1A1A;strokeColor=#FFFFFF;fillColor=#F08E81;" parent="rN30uLhsNGHc-pYTwNAc-1" vertex="1">&#xa;                    <mxGeometry x="913" y="757" width="90" height="60" as="geometry"/>&#xa;                </mxCell>&#xa;                <mxCell id="rN30uLhsNGHc-pYTwNAc-97" value="personality" style="rounded=0;whiteSpace=wrap;html=1;sketch=0;fontColor=#1A1A1A;strokeColor=#FFFFFF;fillColor=#F08E81;" parent="rN30uLhsNGHc-pYTwNAc-1" vertex="1">&#xa;                    <mxGeometry x="160" y="560" width="120" height="60" as="geometry"/>&#xa;                </mxCell>&#xa;                <mxCell id="rN30uLhsNGHc-pYTwNAc-106" style="edgeStyle=none;rounded=0;orthogonalLoop=1;jettySize=auto;html=1;exitX=0.5;exitY=1;exitDx=0;exitDy=0;entryX=0;entryY=0;entryDx=0;entryDy=0;endArrow=none;endFill=0;strokeColor=#000000;strokeWidth=3;" parent="rN30uLhsNGHc-pYTwNAc-1" source="rN30uLhsNGHc-pYTwNAc-98" target="rN30uLhsNGHc-pYTwNAc-97" edge="1">&#xa;                    <mxGeometry relative="1" as="geometry"/>&#xa;                </mxCell>&#xa;                <mxCell id="rN30uLhsNGHc-pYTwNAc-98" value="personality" style="ellipse;whiteSpace=wrap;html=1;rounded=0;sketch=0;fontColor=#1A1A1A;strokeColor=#FFFFFF;fillColor=#F08E81;" parent="rN30uLhsNGHc-pYTwNAc-1" vertex="1">&#xa;                    <mxGeometry x="90" y="467" width="90" height="60" as="geometry"/>&#xa;                </mxCell>&#xa;                <mxCell id="rN30uLhsNGHc-pYTwNAc-107" style="edgeStyle=none;rounded=0;orthogonalLoop=1;jettySize=auto;html=1;exitX=0.5;exitY=0;exitDx=0;exitDy=0;entryX=0;entryY=1;entryDx=0;entryDy=0;endArrow=none;endFill=0;strokeColor=#000000;strokeWidth=3;" parent="rN30uLhsNGHc-pYTwNAc-1" source="rN30uLhsNGHc-pYTwNAc-99" target="rN30uLhsNGHc-pYTwNAc-97" edge="1">&#xa;                    <mxGeometry relative="1" as="geometry"/>&#xa;                </mxCell>&#xa;                <mxCell id="rN30uLhsNGHc-pYTwNAc-99" value="gender" style="ellipse;whiteSpace=wrap;html=1;rounded=0;sketch=0;fontColor=#1A1A1A;strokeColor=#FFFFFF;fillColor=#F08E81;" parent="rN30uLhsNGHc-pYTwNAc-1" vertex="1">&#xa;                    <mxGeometry x="90" y="647" width="90" height="60" as="geometry"/>&#xa;                </mxCell>&#xa;                <mxCell id="rN30uLhsNGHc-pYTwNAc-105" style="edgeStyle=none;rounded=0;orthogonalLoop=1;jettySize=auto;html=1;exitX=0.5;exitY=1;exitDx=0;exitDy=0;entryX=1;entryY=0;entryDx=0;entryDy=0;endArrow=none;endFill=0;strokeColor=#000000;strokeWidth=3;" parent="rN30uLhsNGHc-pYTwNAc-1" source="rN30uLhsNGHc-pYTwNAc-100" target="rN30uLhsNGHc-pYTwNAc-97" edge="1">&#xa;                    <mxGeometry relative="1" as="geometry"/>&#xa;                </mxCell>&#xa;                <mxCell id="rN30uLhsNGHc-pYTwNAc-100" value="is" style="rhombus;whiteSpace=wrap;html=1;rounded=0;sketch=0;fontColor=#1A1A1A;strokeColor=#FFFFFF;fillColor=#F08E81;" parent="rN30uLhsNGHc-pYTwNAc-1" vertex="1">&#xa;                    <mxGeometry x="240" y="440" width="80" height="80" as="geometry"/>&#xa;                </mxCell>&#xa;            </root>&#xa;        </mxGraphModel>&#xa;    </diagram><diagram name="v2" id="JRdu4uLReiivcPufG9cM">&#xa;        <mxGraphModel dx="1502" dy="863" grid="0" gridSize="10" guides="0" tooltips="1" connect="1" arrows="1" fold="1" page="1" pageScale="1" pageWidth="1600" pageHeight="1200" background="#B0E3E6" math="0" shadow="0">&#xa;            <root>&#xa;                <mxCell id="EFogplfemO0MyQLEVENi-0"/>&#xa;                <mxCell id="EFogplfemO0MyQLEVENi-1" parent="EFogplfemO0MyQLEVENi-0"/>&#xa;                <mxCell id="EFogplfemO0MyQLEVENi-2" style="rounded=1;sketch=0;orthogonalLoop=1;jettySize=auto;html=1;entryX=0;entryY=0.5;entryDx=0;entryDy=0;fontColor=#1A1A1A;strokeColor=#182E3E;endArrow=classic;endFill=1;labelBackgroundColor=#B0E3E6;exitX=1;exitY=0.5;exitDx=0;exitDy=0;" parent="EFogplfemO0MyQLEVENi-1" source="EFogplfemO0MyQLEVENi-11" target="EFogplfemO0MyQLEVENi-41" edge="1">&#xa;                    <mxGeometry relative="1" as="geometry">&#xa;                        <mxPoint x="768" y="327" as="sourcePoint"/>&#xa;                    </mxGeometry>&#xa;                </mxCell>&#xa;                <mxCell id="EFogplfemO0MyQLEVENi-3" style="edgeStyle=none;rounded=1;sketch=0;orthogonalLoop=1;jettySize=auto;html=1;entryX=0;entryY=0.5;entryDx=0;entryDy=0;fontColor=#1A1A1A;strokeColor=#182E3E;endArrow=classic;endFill=1;labelBackgroundColor=#B0E3E6;strokeWidth=3;exitX=1;exitY=0.75;exitDx=0;exitDy=0;" parent="EFogplfemO0MyQLEVENi-1" source="EFogplfemO0MyQLEVENi-11" target="EFogplfemO0MyQLEVENi-43" edge="1">&#xa;                    <mxGeometry relative="1" as="geometry">&#xa;                        <mxPoint x="778" y="367" as="sourcePoint"/>&#xa;                    </mxGeometry>&#xa;                </mxCell>&#xa;                <mxCell id="EFogplfemO0MyQLEVENi-4" style="edgeStyle=none;rounded=1;sketch=0;orthogonalLoop=1;jettySize=auto;html=1;fontColor=#1A1A1A;endArrow=none;endFill=0;strokeColor=#182E3E;strokeWidth=3;exitX=1;exitY=1;exitDx=0;exitDy=0;" parent="EFogplfemO0MyQLEVENi-1" source="EFogplfemO0MyQLEVENi-11" target="EFogplfemO0MyQLEVENi-45" edge="1">&#xa;                    <mxGeometry relative="1" as="geometry">&#xa;                        <mxPoint x="738" y="377" as="sourcePoint"/>&#xa;                    </mxGeometry>&#xa;                </mxCell>&#xa;                <mxCell id="EFogplfemO0MyQLEVENi-5" style="edgeStyle=none;rounded=1;sketch=0;orthogonalLoop=1;jettySize=auto;html=1;exitX=1;exitY=0;exitDx=0;exitDy=0;fontColor=#1A1A1A;endArrow=none;endFill=0;strokeColor=#182E3E;strokeWidth=1;" parent="EFogplfemO0MyQLEVENi-1" source="EFogplfemO0MyQLEVENi-11" target="EFogplfemO0MyQLEVENi-71" edge="1">&#xa;                    <mxGeometry relative="1" as="geometry">&#xa;                        <mxPoint x="573" y="307" as="targetPoint"/>&#xa;                    </mxGeometry>&#xa;                </mxCell>&#xa;                <mxCell id="EFogplfemO0MyQLEVENi-6" style="edgeStyle=none;rounded=1;sketch=0;orthogonalLoop=1;jettySize=auto;html=1;exitX=0.75;exitY=0;exitDx=0;exitDy=0;entryX=0;entryY=1;entryDx=0;entryDy=0;fontColor=#1A1A1A;endArrow=none;endFill=0;strokeColor=#182E3E;strokeWidth=1;" parent="EFogplfemO0MyQLEVENi-1" source="EFogplfemO0MyQLEVENi-11" target="EFogplfemO0MyQLEVENi-70" edge="1">&#xa;                    <mxGeometry relative="1" as="geometry"/>&#xa;                </mxCell>&#xa;                <mxCell id="EFogplfemO0MyQLEVENi-7" style="edgeStyle=none;rounded=1;sketch=0;orthogonalLoop=1;jettySize=auto;html=1;exitX=0.5;exitY=0;exitDx=0;exitDy=0;entryX=0.5;entryY=1;entryDx=0;entryDy=0;fontColor=#1A1A1A;endArrow=none;endFill=0;strokeColor=#182E3E;strokeWidth=1;" parent="EFogplfemO0MyQLEVENi-1" source="EFogplfemO0MyQLEVENi-11" target="EFogplfemO0MyQLEVENi-68" edge="1">&#xa;                    <mxGeometry relative="1" as="geometry"/>&#xa;                </mxCell>&#xa;                <mxCell id="EFogplfemO0MyQLEVENi-8" style="edgeStyle=none;rounded=1;sketch=0;orthogonalLoop=1;jettySize=auto;html=1;exitX=0.25;exitY=0;exitDx=0;exitDy=0;fontColor=#1A1A1A;endArrow=none;endFill=0;strokeColor=#182E3E;strokeWidth=3;entryX=1;entryY=1;entryDx=0;entryDy=0;" parent="EFogplfemO0MyQLEVENi-1" source="EFogplfemO0MyQLEVENi-11" target="EFogplfemO0MyQLEVENi-69" edge="1">&#xa;                    <mxGeometry relative="1" as="geometry">&#xa;                        <mxPoint x="468" y="247" as="targetPoint"/>&#xa;                    </mxGeometry>&#xa;                </mxCell>&#xa;                <mxCell id="EFogplfemO0MyQLEVENi-9" style="edgeStyle=none;rounded=1;sketch=0;orthogonalLoop=1;jettySize=auto;html=1;exitX=0.5;exitY=1;exitDx=0;exitDy=0;fontColor=#1A1A1A;endArrow=none;endFill=0;strokeColor=#182E3E;strokeWidth=1;" parent="EFogplfemO0MyQLEVENi-1" source="EFogplfemO0MyQLEVENi-11" target="EFogplfemO0MyQLEVENi-72" edge="1">&#xa;                    <mxGeometry relative="1" as="geometry"/>&#xa;                </mxCell>&#xa;                <mxCell id="EFogplfemO0MyQLEVENi-10" style="edgeStyle=none;rounded=1;sketch=0;orthogonalLoop=1;jettySize=auto;html=1;exitX=0.25;exitY=1;exitDx=0;exitDy=0;entryX=0.5;entryY=0;entryDx=0;entryDy=0;fontColor=#1A1A1A;endArrow=none;endFill=0;strokeColor=#182E3E;strokeWidth=1;" parent="EFogplfemO0MyQLEVENi-1" source="EFogplfemO0MyQLEVENi-11" target="EFogplfemO0MyQLEVENi-49" edge="1">&#xa;                    <mxGeometry relative="1" as="geometry"/>&#xa;                </mxCell>&#xa;                <mxCell id="EFogplfemO0MyQLEVENi-11" value="villager" style="rounded=0;whiteSpace=wrap;html=1;sketch=0;fontColor=#1A1A1A;strokeColor=#FFFFFF;fillColor=#F08E81;" parent="EFogplfemO0MyQLEVENi-1" vertex="1">&#xa;                    <mxGeometry x="438" y="337" width="120" height="60" as="geometry"/>&#xa;                </mxCell>&#xa;                <mxCell id="EFogplfemO0MyQLEVENi-12" style="edgeStyle=none;rounded=1;sketch=0;orthogonalLoop=1;jettySize=auto;html=1;exitX=0;exitY=0;exitDx=0;exitDy=0;entryX=0.5;entryY=1;entryDx=0;entryDy=0;fontColor=#1A1A1A;endArrow=none;endFill=0;strokeColor=#182E3E;strokeWidth=3;" parent="EFogplfemO0MyQLEVENi-1" source="EFogplfemO0MyQLEVENi-15" target="EFogplfemO0MyQLEVENi-52" edge="1">&#xa;                    <mxGeometry relative="1" as="geometry"/>&#xa;                </mxCell>&#xa;                <mxCell id="EFogplfemO0MyQLEVENi-13" style="edgeStyle=none;rounded=1;sketch=0;orthogonalLoop=1;jettySize=auto;html=1;exitX=0.5;exitY=0;exitDx=0;exitDy=0;entryX=0.5;entryY=1;entryDx=0;entryDy=0;fontColor=#1A1A1A;endArrow=none;endFill=0;strokeColor=#182E3E;strokeWidth=3;" parent="EFogplfemO0MyQLEVENi-1" source="EFogplfemO0MyQLEVENi-15" target="EFogplfemO0MyQLEVENi-53" edge="1">&#xa;                    <mxGeometry relative="1" as="geometry"/>&#xa;                </mxCell>&#xa;                <mxCell id="EFogplfemO0MyQLEVENi-14" style="edgeStyle=none;rounded=1;sketch=0;orthogonalLoop=1;jettySize=auto;html=1;exitX=1;exitY=0;exitDx=0;exitDy=0;entryX=0.5;entryY=1;entryDx=0;entryDy=0;fontColor=#1A1A1A;endArrow=none;endFill=0;strokeColor=#182E3E;strokeWidth=3;" parent="EFogplfemO0MyQLEVENi-1" source="EFogplfemO0MyQLEVENi-15" target="EFogplfemO0MyQLEVENi-54" edge="1">&#xa;                    <mxGeometry relative="1" as="geometry"/>&#xa;                </mxCell>&#xa;                <mxCell id="EFogplfemO0MyQLEVENi-15" value="coffee" style="rounded=0;whiteSpace=wrap;html=1;sketch=0;fontColor=#1A1A1A;strokeColor=#FFFFFF;fillColor=#F08E81;" parent="EFogplfemO0MyQLEVENi-1" vertex="1">&#xa;                    <mxGeometry x="1028" y="237" width="120" height="60" as="geometry"/>&#xa;                </mxCell>&#xa;                <mxCell id="EFogplfemO0MyQLEVENi-16" style="rounded=1;sketch=0;orthogonalLoop=1;jettySize=auto;html=1;exitX=0;exitY=1;exitDx=0;exitDy=0;entryX=0.5;entryY=0;entryDx=0;entryDy=0;fontColor=#1A1A1A;strokeColor=#182E3E;endArrow=none;endFill=0;strokeWidth=3;" parent="EFogplfemO0MyQLEVENi-1" source="EFogplfemO0MyQLEVENi-20" target="EFogplfemO0MyQLEVENi-47" edge="1">&#xa;                    <mxGeometry relative="1" as="geometry"/>&#xa;                </mxCell>&#xa;                <mxCell id="EFogplfemO0MyQLEVENi-17" style="edgeStyle=none;rounded=1;sketch=0;orthogonalLoop=1;jettySize=auto;html=1;exitX=0.5;exitY=0;exitDx=0;exitDy=0;entryX=0.5;entryY=1;entryDx=0;entryDy=0;fontColor=#1A1A1A;endArrow=none;endFill=0;strokeColor=#182E3E;strokeWidth=3;" parent="EFogplfemO0MyQLEVENi-1" source="EFogplfemO0MyQLEVENi-20" target="EFogplfemO0MyQLEVENi-73" edge="1">&#xa;                    <mxGeometry relative="1" as="geometry"/>&#xa;                </mxCell>&#xa;                <mxCell id="EFogplfemO0MyQLEVENi-18" style="edgeStyle=none;rounded=1;sketch=0;orthogonalLoop=1;jettySize=auto;html=1;exitX=1;exitY=0;exitDx=0;exitDy=0;entryX=0;entryY=1;entryDx=0;entryDy=0;fontColor=#1A1A1A;endArrow=none;endFill=0;strokeColor=#182E3E;strokeWidth=3;" parent="EFogplfemO0MyQLEVENi-1" source="EFogplfemO0MyQLEVENi-20" target="EFogplfemO0MyQLEVENi-74" edge="1">&#xa;                    <mxGeometry relative="1" as="geometry"/>&#xa;                </mxCell>&#xa;                <mxCell id="EFogplfemO0MyQLEVENi-19" style="edgeStyle=none;rounded=1;sketch=0;orthogonalLoop=1;jettySize=auto;html=1;exitX=1;exitY=0.5;exitDx=0;exitDy=0;entryX=0;entryY=0.5;entryDx=0;entryDy=0;fontColor=#1A1A1A;endArrow=none;endFill=0;strokeColor=#182E3E;strokeWidth=1;" parent="EFogplfemO0MyQLEVENi-1" source="EFogplfemO0MyQLEVENi-20" target="EFogplfemO0MyQLEVENi-75" edge="1">&#xa;                    <mxGeometry relative="1" as="geometry"/>&#xa;                </mxCell>&#xa;                <mxCell id="EFogplfemO0MyQLEVENi-20" value="house" style="rounded=0;whiteSpace=wrap;html=1;sketch=0;fontColor=#1A1A1A;strokeColor=#FFFFFF;fillColor=#F08E81;" parent="EFogplfemO0MyQLEVENi-1" vertex="1">&#xa;                    <mxGeometry x="1033" y="787" width="120" height="60" as="geometry"/>&#xa;                </mxCell>&#xa;                <mxCell id="EFogplfemO0MyQLEVENi-21" style="rounded=1;sketch=0;orthogonalLoop=1;jettySize=auto;html=1;exitX=0.25;exitY=0;exitDx=0;exitDy=0;entryX=0.5;entryY=1;entryDx=0;entryDy=0;fontColor=#1A1A1A;endArrow=none;endFill=0;strokeColor=#182E3E;strokeWidth=3;" parent="EFogplfemO0MyQLEVENi-1" source="EFogplfemO0MyQLEVENi-26" target="EFogplfemO0MyQLEVENi-81" edge="1">&#xa;                    <mxGeometry relative="1" as="geometry"/>&#xa;                </mxCell>&#xa;                <mxCell id="EFogplfemO0MyQLEVENi-22" style="edgeStyle=none;rounded=1;sketch=0;orthogonalLoop=1;jettySize=auto;html=1;exitX=0.75;exitY=0;exitDx=0;exitDy=0;entryX=0;entryY=1;entryDx=0;entryDy=0;fontColor=#1A1A1A;endArrow=none;endFill=0;strokeColor=#182E3E;strokeWidth=3;" parent="EFogplfemO0MyQLEVENi-1" source="EFogplfemO0MyQLEVENi-26" target="EFogplfemO0MyQLEVENi-82" edge="1">&#xa;                    <mxGeometry relative="1" as="geometry"/>&#xa;                </mxCell>&#xa;                <mxCell id="EFogplfemO0MyQLEVENi-23" style="edgeStyle=none;rounded=1;sketch=0;orthogonalLoop=1;jettySize=auto;html=1;exitX=1;exitY=0;exitDx=0;exitDy=0;entryX=0;entryY=0.5;entryDx=0;entryDy=0;fontColor=#1A1A1A;endArrow=none;endFill=0;strokeColor=#182E3E;strokeWidth=1;" parent="EFogplfemO0MyQLEVENi-1" source="EFogplfemO0MyQLEVENi-26" target="EFogplfemO0MyQLEVENi-83" edge="1">&#xa;                    <mxGeometry relative="1" as="geometry"/>&#xa;                </mxCell>&#xa;                <mxCell id="EFogplfemO0MyQLEVENi-24" style="edgeStyle=none;rounded=1;sketch=0;orthogonalLoop=1;jettySize=auto;html=1;exitX=1;exitY=0.75;exitDx=0;exitDy=0;fontColor=#1A1A1A;endArrow=none;endFill=0;strokeColor=#182E3E;strokeWidth=1;" parent="EFogplfemO0MyQLEVENi-1" source="EFogplfemO0MyQLEVENi-26" target="EFogplfemO0MyQLEVENi-85" edge="1">&#xa;                    <mxGeometry relative="1" as="geometry"/>&#xa;                </mxCell>&#xa;                <mxCell id="EFogplfemO0MyQLEVENi-25" style="edgeStyle=none;rounded=1;sketch=0;orthogonalLoop=1;jettySize=auto;html=1;exitX=0;exitY=0.5;exitDx=0;exitDy=0;entryX=1;entryY=0.5;entryDx=0;entryDy=0;fontColor=#1A1A1A;endArrow=none;endFill=0;strokeColor=#182E3E;strokeWidth=1;" parent="EFogplfemO0MyQLEVENi-1" source="EFogplfemO0MyQLEVENi-26" target="EFogplfemO0MyQLEVENi-84" edge="1">&#xa;                    <mxGeometry relative="1" as="geometry"/>&#xa;                </mxCell>&#xa;                <mxCell id="EFogplfemO0MyQLEVENi-26" value="furniture" style="rounded=0;whiteSpace=wrap;html=1;sketch=0;fontColor=#1A1A1A;strokeColor=#FFFFFF;fillColor=#F08E81;" parent="EFogplfemO0MyQLEVENi-1" vertex="1">&#xa;                    <mxGeometry x="1028" y="987" width="120" height="60" as="geometry"/>&#xa;                </mxCell>&#xa;                <mxCell id="EFogplfemO0MyQLEVENi-27" style="edgeStyle=none;rounded=1;sketch=0;orthogonalLoop=1;jettySize=auto;html=1;exitX=0;exitY=0;exitDx=0;exitDy=0;entryX=0.5;entryY=1;entryDx=0;entryDy=0;fontColor=#1A1A1A;endArrow=none;endFill=0;strokeColor=#182E3E;strokeWidth=3;" parent="EFogplfemO0MyQLEVENi-1" source="EFogplfemO0MyQLEVENi-32" target="EFogplfemO0MyQLEVENi-77" edge="1">&#xa;                    <mxGeometry relative="1" as="geometry"/>&#xa;                </mxCell>&#xa;                <mxCell id="EFogplfemO0MyQLEVENi-28" style="edgeStyle=none;rounded=1;sketch=0;orthogonalLoop=1;jettySize=auto;html=1;exitX=0.75;exitY=0;exitDx=0;exitDy=0;entryX=0.5;entryY=1;entryDx=0;entryDy=0;fontColor=#1A1A1A;endArrow=none;endFill=0;strokeColor=#182E3E;strokeWidth=3;" parent="EFogplfemO0MyQLEVENi-1" source="EFogplfemO0MyQLEVENi-32" target="EFogplfemO0MyQLEVENi-76" edge="1">&#xa;                    <mxGeometry relative="1" as="geometry"/>&#xa;                </mxCell>&#xa;                <mxCell id="EFogplfemO0MyQLEVENi-32" value="game" style="rounded=0;whiteSpace=wrap;html=1;sketch=0;fontColor=#1A1A1A;strokeColor=#FFFFFF;fillColor=#F08E81;" parent="EFogplfemO0MyQLEVENi-1" vertex="1">&#xa;                    <mxGeometry x="708" y="657" width="120" height="60" as="geometry"/>&#xa;                </mxCell>&#xa;                <mxCell id="EFogplfemO0MyQLEVENi-33" style="edgeStyle=none;rounded=1;sketch=0;orthogonalLoop=1;jettySize=auto;html=1;entryX=0.5;entryY=1;entryDx=0;entryDy=0;fontColor=#1A1A1A;endArrow=none;endFill=0;strokeColor=#182E3E;strokeWidth=3;exitX=0;exitY=0;exitDx=0;exitDy=0;" parent="EFogplfemO0MyQLEVENi-1" source="EFogplfemO0MyQLEVENi-36" target="EFogplfemO0MyQLEVENi-87" edge="1">&#xa;                    <mxGeometry relative="1" as="geometry">&#xa;                        <mxPoint x="358" y="817" as="sourcePoint"/>&#xa;                    </mxGeometry>&#xa;                </mxCell>&#xa;                <mxCell id="EFogplfemO0MyQLEVENi-34" style="edgeStyle=none;rounded=1;sketch=0;orthogonalLoop=1;jettySize=auto;html=1;exitX=0.75;exitY=0;exitDx=0;exitDy=0;entryX=0;entryY=1;entryDx=0;entryDy=0;fontColor=#1A1A1A;endArrow=none;endFill=0;strokeColor=#182E3E;strokeWidth=3;" parent="EFogplfemO0MyQLEVENi-1" source="EFogplfemO0MyQLEVENi-36" target="EFogplfemO0MyQLEVENi-86" edge="1">&#xa;                    <mxGeometry relative="1" as="geometry"/>&#xa;                </mxCell>&#xa;                <mxCell id="EFogplfemO0MyQLEVENi-35" style="edgeStyle=none;rounded=1;sketch=0;orthogonalLoop=1;jettySize=auto;html=1;exitX=0.5;exitY=1;exitDx=0;exitDy=0;entryX=0.5;entryY=0;entryDx=0;entryDy=0;fontColor=#1A1A1A;endArrow=none;endFill=0;strokeColor=#182E3E;strokeWidth=1;" parent="EFogplfemO0MyQLEVENi-1" source="EFogplfemO0MyQLEVENi-36" target="EFogplfemO0MyQLEVENi-51" edge="1">&#xa;                    <mxGeometry relative="1" as="geometry"/>&#xa;                </mxCell>&#xa;                <mxCell id="EFogplfemO0MyQLEVENi-36" value="amiibo" style="rounded=0;whiteSpace=wrap;html=1;sketch=0;fontColor=#1A1A1A;strokeColor=#FFFFFF;fillColor=#F08E81;" parent="EFogplfemO0MyQLEVENi-1" vertex="1">&#xa;                    <mxGeometry x="368" y="817" width="120" height="60" as="geometry"/>&#xa;                </mxCell>&#xa;                <mxCell id="EFogplfemO0MyQLEVENi-37" style="edgeStyle=none;rounded=1;sketch=0;orthogonalLoop=1;jettySize=auto;html=1;exitX=0;exitY=1;exitDx=0;exitDy=0;entryX=0.5;entryY=0;entryDx=0;entryDy=0;fontColor=#1A1A1A;endArrow=none;endFill=0;strokeColor=#182E3E;strokeWidth=3;" parent="EFogplfemO0MyQLEVENi-1" source="EFogplfemO0MyQLEVENi-39" target="EFogplfemO0MyQLEVENi-88" edge="1">&#xa;                    <mxGeometry relative="1" as="geometry"/>&#xa;                </mxCell>&#xa;                <mxCell id="EFogplfemO0MyQLEVENi-38" style="edgeStyle=none;rounded=1;sketch=0;orthogonalLoop=1;jettySize=auto;html=1;exitX=1;exitY=1;exitDx=0;exitDy=0;entryX=0.5;entryY=0;entryDx=0;entryDy=0;fontColor=#1A1A1A;endArrow=none;endFill=0;strokeColor=#182E3E;strokeWidth=3;" parent="EFogplfemO0MyQLEVENi-1" source="EFogplfemO0MyQLEVENi-39" target="EFogplfemO0MyQLEVENi-57" edge="1">&#xa;                    <mxGeometry relative="1" as="geometry"/>&#xa;                </mxCell>&#xa;                <mxCell id="EFogplfemO0MyQLEVENi-39" value="nfc tag" style="rounded=0;whiteSpace=wrap;html=1;sketch=0;fontColor=#1A1A1A;strokeColor=#FFFFFF;fillColor=#F08E81;" parent="EFogplfemO0MyQLEVENi-1" vertex="1">&#xa;                    <mxGeometry x="548" y="917" width="120" height="60" as="geometry"/>&#xa;                </mxCell>&#xa;                <mxCell id="EFogplfemO0MyQLEVENi-40" style="edgeStyle=none;rounded=1;sketch=0;orthogonalLoop=1;jettySize=auto;html=1;exitX=1;exitY=0.5;exitDx=0;exitDy=0;entryX=0;entryY=0.5;entryDx=0;entryDy=0;fontColor=#1A1A1A;strokeColor=#182E3E;endArrow=none;endFill=0;labelBackgroundColor=#B0E3E6;" parent="EFogplfemO0MyQLEVENi-1" source="EFogplfemO0MyQLEVENi-41" target="EFogplfemO0MyQLEVENi-15" edge="1">&#xa;                    <mxGeometry relative="1" as="geometry"/>&#xa;                </mxCell>&#xa;                <mxCell id="EFogplfemO0MyQLEVENi-41" value="drinks" style="rhombus;whiteSpace=wrap;html=1;rounded=0;sketch=0;fontColor=#1A1A1A;strokeColor=#FFFFFF;fillColor=#F08E81;" parent="EFogplfemO0MyQLEVENi-1" vertex="1">&#xa;                    <mxGeometry x="853" y="227" width="80" height="80" as="geometry"/>&#xa;                </mxCell>&#xa;                <mxCell id="EFogplfemO0MyQLEVENi-42" style="edgeStyle=none;rounded=1;sketch=0;orthogonalLoop=1;jettySize=auto;html=1;exitX=0;exitY=0;exitDx=0;exitDy=0;fontColor=#1A1A1A;strokeColor=#182E3E;endArrow=classic;endFill=1;labelBackgroundColor=#B0E3E6;strokeWidth=3;entryX=0.5;entryY=1;entryDx=0;entryDy=0;" parent="EFogplfemO0MyQLEVENi-1" source="EFogplfemO0MyQLEVENi-20" target="EFogplfemO0MyQLEVENi-43" edge="1">&#xa;                    <mxGeometry relative="1" as="geometry">&#xa;                        <mxPoint x="1058" y="497" as="targetPoint"/>&#xa;                    </mxGeometry>&#xa;                </mxCell>&#xa;                <mxCell id="EFogplfemO0MyQLEVENi-43" value="lives in" style="rhombus;whiteSpace=wrap;html=1;rounded=0;sketch=0;fontColor=#1A1A1A;strokeColor=#FFFFFF;fillColor=#F08E81;" parent="EFogplfemO0MyQLEVENi-1" vertex="1">&#xa;                    <mxGeometry x="988" y="407" width="80" height="80" as="geometry"/>&#xa;                </mxCell>&#xa;                <mxCell id="EFogplfemO0MyQLEVENi-44" style="edgeStyle=none;rounded=1;sketch=0;orthogonalLoop=1;jettySize=auto;html=1;exitX=0.5;exitY=1;exitDx=0;exitDy=0;entryX=0.25;entryY=0;entryDx=0;entryDy=0;fontColor=#1A1A1A;endArrow=none;endFill=0;strokeColor=#182E3E;strokeWidth=3;" parent="EFogplfemO0MyQLEVENi-1" source="EFogplfemO0MyQLEVENi-45" target="EFogplfemO0MyQLEVENi-32" edge="1">&#xa;                    <mxGeometry relative="1" as="geometry"/>&#xa;                </mxCell>&#xa;                <mxCell id="EFogplfemO0MyQLEVENi-45" value="featured in" style="rhombus;whiteSpace=wrap;html=1;rounded=0;sketch=0;fontColor=#1A1A1A;strokeColor=#FFFFFF;fillColor=#F08E81;" parent="EFogplfemO0MyQLEVENi-1" vertex="1">&#xa;                    <mxGeometry x="718" y="457" width="80" height="80" as="geometry"/>&#xa;                </mxCell>&#xa;                <mxCell id="EFogplfemO0MyQLEVENi-46" style="edgeStyle=none;rounded=1;sketch=0;orthogonalLoop=1;jettySize=auto;html=1;exitX=0;exitY=0;exitDx=0;exitDy=0;entryX=0.5;entryY=1;entryDx=0;entryDy=0;fontColor=#1A1A1A;endArrow=classic;endFill=1;strokeColor=#182E3E;" parent="EFogplfemO0MyQLEVENi-1" source="EFogplfemO0MyQLEVENi-26" target="EFogplfemO0MyQLEVENi-47" edge="1">&#xa;                    <mxGeometry relative="1" as="geometry"/>&#xa;                </mxCell>&#xa;                <mxCell id="EFogplfemO0MyQLEVENi-47" value="contains" style="rhombus;whiteSpace=wrap;html=1;rounded=0;sketch=0;fontColor=#1A1A1A;strokeColor=#FFFFFF;fillColor=#F08E81;" parent="EFogplfemO0MyQLEVENi-1" vertex="1">&#xa;                    <mxGeometry x="893" y="847" width="80" height="80" as="geometry"/>&#xa;                </mxCell>&#xa;                <mxCell id="EFogplfemO0MyQLEVENi-48" style="edgeStyle=none;rounded=1;sketch=0;orthogonalLoop=1;jettySize=auto;html=1;exitX=0.5;exitY=0;exitDx=0;exitDy=0;entryX=0.5;entryY=1;entryDx=0;entryDy=0;fontColor=#1A1A1A;endArrow=classic;endFill=1;strokeColor=#182E3E;strokeWidth=1;" parent="EFogplfemO0MyQLEVENi-1" source="EFogplfemO0MyQLEVENi-36" target="EFogplfemO0MyQLEVENi-49" edge="1">&#xa;                    <mxGeometry relative="1" as="geometry"/>&#xa;                </mxCell>&#xa;                <mxCell id="EFogplfemO0MyQLEVENi-49" value="has" style="rhombus;whiteSpace=wrap;html=1;rounded=0;sketch=0;fontColor=#1A1A1A;strokeColor=#FFFFFF;fillColor=#F08E81;" parent="EFogplfemO0MyQLEVENi-1" vertex="1">&#xa;                    <mxGeometry x="383" y="627" width="80" height="80" as="geometry"/>&#xa;                </mxCell>&#xa;                <mxCell id="EFogplfemO0MyQLEVENi-50" style="edgeStyle=none;rounded=1;sketch=0;orthogonalLoop=1;jettySize=auto;html=1;fontColor=#1A1A1A;endArrow=classic;endFill=1;strokeColor=#182E3E;strokeWidth=3;entryX=1;entryY=0.5;entryDx=0;entryDy=0;exitX=0;exitY=0.5;exitDx=0;exitDy=0;" parent="EFogplfemO0MyQLEVENi-1" source="EFogplfemO0MyQLEVENi-39" target="EFogplfemO0MyQLEVENi-51" edge="1">&#xa;                    <mxGeometry relative="1" as="geometry">&#xa;                        <mxPoint x="528" y="927" as="sourcePoint"/>&#xa;                        <mxPoint x="508" y="957" as="targetPoint"/>&#xa;                    </mxGeometry>&#xa;                </mxCell>&#xa;                <mxCell id="EFogplfemO0MyQLEVENi-51" value="written to" style="rhombus;whiteSpace=wrap;html=1;rounded=0;sketch=0;fontColor=#1A1A1A;strokeColor=#FFFFFF;fillColor=#F08E81;" parent="EFogplfemO0MyQLEVENi-1" vertex="1">&#xa;                    <mxGeometry x="388" y="907" width="80" height="80" as="geometry"/>&#xa;                </mxCell>&#xa;                <mxCell id="EFogplfemO0MyQLEVENi-52" value="beans" style="ellipse;whiteSpace=wrap;html=1;rounded=0;sketch=0;fontColor=#1A1A1A;strokeColor=#FFFFFF;fillColor=#F08E81;" parent="EFogplfemO0MyQLEVENi-1" vertex="1">&#xa;                    <mxGeometry x="938" y="127" width="90" height="60" as="geometry"/>&#xa;                </mxCell>&#xa;                <mxCell id="EFogplfemO0MyQLEVENi-53" value="milk" style="ellipse;whiteSpace=wrap;html=1;rounded=0;sketch=0;fontColor=#1A1A1A;strokeColor=#FFFFFF;fillColor=#F08E81;" parent="EFogplfemO0MyQLEVENi-1" vertex="1">&#xa;                    <mxGeometry x="1043" y="127" width="90" height="60" as="geometry"/>&#xa;                </mxCell>&#xa;                <mxCell id="EFogplfemO0MyQLEVENi-54" value="sugar" style="ellipse;whiteSpace=wrap;html=1;rounded=0;sketch=0;fontColor=#1A1A1A;strokeColor=#FFFFFF;fillColor=#F08E81;" parent="EFogplfemO0MyQLEVENi-1" vertex="1">&#xa;                    <mxGeometry x="1148" y="127" width="90" height="60" as="geometry"/>&#xa;                </mxCell>&#xa;                <mxCell id="EFogplfemO0MyQLEVENi-55" style="edgeStyle=none;rounded=1;sketch=0;orthogonalLoop=1;jettySize=auto;html=1;exitX=0.5;exitY=0;exitDx=0;exitDy=0;fontColor=#1A1A1A;endArrow=none;endFill=0;strokeColor=#182E3E;strokeWidth=3;entryX=0.75;entryY=1;entryDx=0;entryDy=0;" parent="EFogplfemO0MyQLEVENi-1" source="EFogplfemO0MyQLEVENi-56" target="EFogplfemO0MyQLEVENi-11" edge="1">&#xa;                    <mxGeometry relative="1" as="geometry">&#xa;                        <mxPoint x="518" y="417" as="targetPoint"/>&#xa;                    </mxGeometry>&#xa;                </mxCell>&#xa;                <mxCell id="EFogplfemO0MyQLEVENi-56" value="&lt;u&gt;name&lt;/u&gt;" style="ellipse;whiteSpace=wrap;html=1;rounded=0;sketch=0;fontColor=#1A1A1A;strokeColor=#FFFFFF;fillColor=#F08E81;" parent="EFogplfemO0MyQLEVENi-1" vertex="1">&#xa;                    <mxGeometry x="528" y="427" width="90" height="60" as="geometry"/>&#xa;                </mxCell>&#xa;                <mxCell id="EFogplfemO0MyQLEVENi-57" value="drawn?" style="ellipse;whiteSpace=wrap;html=1;rounded=0;sketch=0;fontColor=#1A1A1A;strokeColor=#FFFFFF;fillColor=#F08E81;" parent="EFogplfemO0MyQLEVENi-1" vertex="1">&#xa;                    <mxGeometry x="628" y="1007" width="90" height="60" as="geometry"/>&#xa;                </mxCell>&#xa;                <mxCell id="EFogplfemO0MyQLEVENi-58" style="edgeStyle=none;rounded=1;sketch=0;orthogonalLoop=1;jettySize=auto;html=1;exitX=1;exitY=0;exitDx=0;exitDy=0;entryX=0;entryY=0.75;entryDx=0;entryDy=0;fontColor=#1A1A1A;endArrow=none;endFill=0;strokeColor=#182E3E;strokeWidth=3;" parent="EFogplfemO0MyQLEVENi-1" source="EFogplfemO0MyQLEVENi-59" target="EFogplfemO0MyQLEVENi-11" edge="1">&#xa;                    <mxGeometry relative="1" as="geometry"/>&#xa;                </mxCell>&#xa;                <mxCell id="EFogplfemO0MyQLEVENi-59" value="personality" style="ellipse;whiteSpace=wrap;html=1;rounded=0;sketch=0;fontColor=#1A1A1A;strokeColor=#FFFFFF;fillColor=#F08E81;" parent="EFogplfemO0MyQLEVENi-1" vertex="1">&#xa;                    <mxGeometry x="298" y="417" width="90" height="60" as="geometry"/>&#xa;                </mxCell>&#xa;                <mxCell id="EFogplfemO0MyQLEVENi-60" style="edgeStyle=none;rounded=1;sketch=0;orthogonalLoop=1;jettySize=auto;html=1;exitX=1;exitY=0;exitDx=0;exitDy=0;entryX=0;entryY=1;entryDx=0;entryDy=0;fontColor=#1A1A1A;endArrow=none;endFill=0;strokeColor=#182E3E;strokeWidth=3;" parent="EFogplfemO0MyQLEVENi-1" source="EFogplfemO0MyQLEVENi-61" target="EFogplfemO0MyQLEVENi-11" edge="1">&#xa;                    <mxGeometry relative="1" as="geometry"/>&#xa;                </mxCell>&#xa;                <mxCell id="EFogplfemO0MyQLEVENi-61" value="species" style="ellipse;whiteSpace=wrap;html=1;rounded=0;sketch=0;fontColor=#1A1A1A;strokeColor=#FFFFFF;fillColor=#F08E81;" parent="EFogplfemO0MyQLEVENi-1" vertex="1">&#xa;                    <mxGeometry x="338" y="477" width="90" height="60" as="geometry"/>&#xa;                </mxCell>&#xa;                <mxCell id="EFogplfemO0MyQLEVENi-62" style="edgeStyle=none;rounded=1;sketch=0;orthogonalLoop=1;jettySize=auto;html=1;exitX=1;exitY=0.5;exitDx=0;exitDy=0;entryX=0;entryY=0.5;entryDx=0;entryDy=0;fontColor=#1A1A1A;endArrow=none;endFill=0;strokeColor=#182E3E;strokeWidth=1;" parent="EFogplfemO0MyQLEVENi-1" source="EFogplfemO0MyQLEVENi-63" target="EFogplfemO0MyQLEVENi-11" edge="1">&#xa;                    <mxGeometry relative="1" as="geometry"/>&#xa;                </mxCell>&#xa;                <mxCell id="EFogplfemO0MyQLEVENi-63" value="subtype" style="ellipse;whiteSpace=wrap;html=1;rounded=0;sketch=0;fontColor=#1A1A1A;strokeColor=#FFFFFF;fillColor=#F08E81;" parent="EFogplfemO0MyQLEVENi-1" vertex="1">&#xa;                    <mxGeometry x="288" y="347" width="90" height="60" as="geometry"/>&#xa;                </mxCell>&#xa;                <mxCell id="EFogplfemO0MyQLEVENi-64" style="edgeStyle=none;rounded=1;sketch=0;orthogonalLoop=1;jettySize=auto;html=1;exitX=1;exitY=0.5;exitDx=0;exitDy=0;entryX=0;entryY=0.25;entryDx=0;entryDy=0;fontColor=#1A1A1A;endArrow=none;endFill=0;strokeColor=#182E3E;strokeWidth=3;" parent="EFogplfemO0MyQLEVENi-1" source="EFogplfemO0MyQLEVENi-65" target="EFogplfemO0MyQLEVENi-11" edge="1">&#xa;                    <mxGeometry relative="1" as="geometry"/>&#xa;                </mxCell>&#xa;                <mxCell id="EFogplfemO0MyQLEVENi-65" value="gender" style="ellipse;whiteSpace=wrap;html=1;rounded=0;sketch=0;fontColor=#1A1A1A;strokeColor=#FFFFFF;fillColor=#F08E81;" parent="EFogplfemO0MyQLEVENi-1" vertex="1">&#xa;                    <mxGeometry x="308" y="277" width="90" height="60" as="geometry"/>&#xa;                </mxCell>&#xa;                <mxCell id="EFogplfemO0MyQLEVENi-66" style="edgeStyle=none;rounded=1;sketch=0;orthogonalLoop=1;jettySize=auto;html=1;entryX=0;entryY=0;entryDx=0;entryDy=0;fontColor=#1A1A1A;endArrow=none;endFill=0;strokeColor=#182E3E;strokeWidth=3;exitX=1;exitY=1;exitDx=0;exitDy=0;" parent="EFogplfemO0MyQLEVENi-1" source="EFogplfemO0MyQLEVENi-67" target="EFogplfemO0MyQLEVENi-11" edge="1">&#xa;                    <mxGeometry relative="1" as="geometry">&#xa;                        <mxPoint x="408" y="267" as="sourcePoint"/>&#xa;                    </mxGeometry>&#xa;                </mxCell>&#xa;                <mxCell id="EFogplfemO0MyQLEVENi-67" value="birthday" style="ellipse;whiteSpace=wrap;html=1;rounded=0;sketch=0;fontColor=#1A1A1A;strokeColor=#FFFFFF;fillColor=#F08E81;" parent="EFogplfemO0MyQLEVENi-1" vertex="1">&#xa;                    <mxGeometry x="318" y="207" width="90" height="60" as="geometry"/>&#xa;                </mxCell>&#xa;                <mxCell id="EFogplfemO0MyQLEVENi-68" value="hobby" style="ellipse;whiteSpace=wrap;html=1;rounded=0;sketch=0;fontColor=#1A1A1A;strokeColor=#FFFFFF;fillColor=#F08E81;" parent="EFogplfemO0MyQLEVENi-1" vertex="1">&#xa;                    <mxGeometry x="468" y="147" width="90" height="60" as="geometry"/>&#xa;                </mxCell>&#xa;                <mxCell id="EFogplfemO0MyQLEVENi-69" value="catchphrase" style="ellipse;whiteSpace=wrap;html=1;rounded=0;sketch=0;fontColor=#1A1A1A;strokeColor=#FFFFFF;fillColor=#F08E81;" parent="EFogplfemO0MyQLEVENi-1" vertex="1">&#xa;                    <mxGeometry x="378" y="157" width="90" height="60" as="geometry"/>&#xa;                </mxCell>&#xa;                <mxCell id="EFogplfemO0MyQLEVENi-70" value="favourite color" style="ellipse;whiteSpace=wrap;html=1;rounded=0;sketch=0;fontColor=#1A1A1A;strokeColor=#FFFFFF;fillColor=#F08E81;" parent="EFogplfemO0MyQLEVENi-1" vertex="1">&#xa;                    <mxGeometry x="528" y="207" width="90" height="60" as="geometry"/>&#xa;                </mxCell>&#xa;                <mxCell id="EFogplfemO0MyQLEVENi-71" value="favourite song" style="ellipse;whiteSpace=wrap;html=1;rounded=0;sketch=0;fontColor=#1A1A1A;strokeColor=#FFFFFF;fillColor=#F08E81;" parent="EFogplfemO0MyQLEVENi-1" vertex="1">&#xa;                    <mxGeometry x="598" y="257" width="90" height="60" as="geometry"/>&#xa;                </mxCell>&#xa;                <mxCell id="EFogplfemO0MyQLEVENi-72" value="is sanrio?" style="ellipse;whiteSpace=wrap;html=1;rounded=0;sketch=0;fontColor=#1A1A1A;strokeColor=#FFFFFF;fillColor=#F08E81;" parent="EFogplfemO0MyQLEVENi-1" vertex="1">&#xa;                    <mxGeometry x="458" y="477" width="90" height="60" as="geometry"/>&#xa;                </mxCell>&#xa;                <mxCell id="EFogplfemO0MyQLEVENi-73" value="wallpaper" style="ellipse;whiteSpace=wrap;html=1;rounded=0;sketch=0;fontColor=#1A1A1A;strokeColor=#FFFFFF;fillColor=#F08E81;" parent="EFogplfemO0MyQLEVENi-1" vertex="1">&#xa;                    <mxGeometry x="1048" y="687" width="90" height="60" as="geometry"/>&#xa;                </mxCell>&#xa;                <mxCell id="EFogplfemO0MyQLEVENi-74" value="floor&lt;span style=&quot;color: rgba(0 , 0 , 0 , 0) ; font-family: monospace ; font-size: 0px&quot;&gt;%3CmxGraphModel%3E%3Croot%3E%3CmxCell%20id%3D%220%22%2F%3E%3CmxCell%20id%3D%221%22%20parent%3D%220%22%2F%3E%3CmxCell%20id%3D%222%22%20value%3D%22%22%20style%3D%22ellipse%3BwhiteSpace%3Dwrap%3Bhtml%3D1%3Brounded%3D0%3Bsketch%3D0%3BfontColor%3D%231A1A1A%3BstrokeColor%3D%23FFFFFF%3BfillColor%3D%23F08E81%3B%22%20vertex%3D%221%22%20parent%3D%221%22%3E%3CmxGeometry%20x%3D%22240%22%20y%3D%2250%22%20width%3D%2290%22%20height%3D%2260%22%20as%3D%22geometry%22%2F%3E%3C%2FmxCell%3E%3C%2Froot%3E%3C%2FmxGraphModel%3E&lt;/span&gt;" style="ellipse;whiteSpace=wrap;html=1;rounded=0;sketch=0;fontColor=#1A1A1A;strokeColor=#FFFFFF;fillColor=#F08E81;" parent="EFogplfemO0MyQLEVENi-1" vertex="1">&#xa;                    <mxGeometry x="1153" y="707" width="90" height="60" as="geometry"/>&#xa;                </mxCell>&#xa;                <mxCell id="EFogplfemO0MyQLEVENi-75" value="music playing" style="ellipse;whiteSpace=wrap;html=1;rounded=0;sketch=0;fontColor=#1A1A1A;strokeColor=#FFFFFF;fillColor=#F08E81;" parent="EFogplfemO0MyQLEVENi-1" vertex="1">&#xa;                    <mxGeometry x="1173" y="787" width="90" height="60" as="geometry"/>&#xa;                </mxCell>&#xa;                <mxCell id="EFogplfemO0MyQLEVENi-76" value="name" style="ellipse;whiteSpace=wrap;html=1;rounded=0;sketch=0;fontColor=#1A1A1A;strokeColor=#FFFFFF;fillColor=#F08E81;" parent="EFogplfemO0MyQLEVENi-1" vertex="1">&#xa;                    <mxGeometry x="788" y="577" width="90" height="60" as="geometry"/>&#xa;                </mxCell>&#xa;                <mxCell id="EFogplfemO0MyQLEVENi-77" value="year released" style="ellipse;whiteSpace=wrap;html=1;rounded=0;sketch=0;fontColor=#1A1A1A;strokeColor=#FFFFFF;fillColor=#F08E81;" parent="EFogplfemO0MyQLEVENi-1" vertex="1">&#xa;                    <mxGeometry x="618" y="587" width="90" height="60" as="geometry"/>&#xa;                </mxCell>&#xa;                <mxCell id="EFogplfemO0MyQLEVENi-81" value="buy price" style="ellipse;whiteSpace=wrap;html=1;rounded=0;sketch=0;fontColor=#1A1A1A;strokeColor=#FFFFFF;fillColor=#F08E81;" parent="EFogplfemO0MyQLEVENi-1" vertex="1">&#xa;                    <mxGeometry x="1003" y="897" width="90" height="60" as="geometry"/>&#xa;                </mxCell>&#xa;                <mxCell id="EFogplfemO0MyQLEVENi-82" value="sell price" style="ellipse;whiteSpace=wrap;html=1;rounded=0;sketch=0;fontColor=#1A1A1A;strokeColor=#FFFFFF;fillColor=#F08E81;" parent="EFogplfemO0MyQLEVENi-1" vertex="1">&#xa;                    <mxGeometry x="1113" y="897" width="90" height="60" as="geometry"/>&#xa;                </mxCell>&#xa;                <mxCell id="EFogplfemO0MyQLEVENi-83" value="style" style="ellipse;whiteSpace=wrap;html=1;rounded=0;sketch=0;fontColor=#1A1A1A;strokeColor=#FFFFFF;fillColor=#F08E81;" parent="EFogplfemO0MyQLEVENi-1" vertex="1">&#xa;                    <mxGeometry x="1183" y="957" width="90" height="60" as="geometry"/>&#xa;                </mxCell>&#xa;                <mxCell id="EFogplfemO0MyQLEVENi-84" value="size" style="ellipse;whiteSpace=wrap;html=1;rounded=0;sketch=0;fontColor=#1A1A1A;strokeColor=#FFFFFF;fillColor=#F08E81;" parent="EFogplfemO0MyQLEVENi-1" vertex="1">&#xa;                    <mxGeometry x="923" y="987" width="90" height="60" as="geometry"/>&#xa;                </mxCell>&#xa;                <mxCell id="EFogplfemO0MyQLEVENi-85" value="placeable on surface" style="ellipse;whiteSpace=wrap;html=1;rounded=0;sketch=0;fontColor=#1A1A1A;strokeColor=#FFFFFF;fillColor=#F08E81;" parent="EFogplfemO0MyQLEVENi-1" vertex="1">&#xa;                    <mxGeometry x="1163" y="1037" width="90" height="60" as="geometry"/>&#xa;                </mxCell>&#xa;                <mxCell id="EFogplfemO0MyQLEVENi-86" value="&lt;u&gt;id&lt;/u&gt;" style="ellipse;whiteSpace=wrap;html=1;rounded=0;sketch=0;fontColor=#1A1A1A;strokeColor=#FFFFFF;fillColor=#F08E81;" parent="EFogplfemO0MyQLEVENi-1" vertex="1">&#xa;                    <mxGeometry x="453" y="727" width="90" height="60" as="geometry"/>&#xa;                </mxCell>&#xa;                <mxCell id="EFogplfemO0MyQLEVENi-87" value="series" style="ellipse;whiteSpace=wrap;html=1;rounded=0;sketch=0;fontColor=#1A1A1A;strokeColor=#FFFFFF;fillColor=#F08E81;" parent="EFogplfemO0MyQLEVENi-1" vertex="1">&#xa;                    <mxGeometry x="308" y="727" width="90" height="60" as="geometry"/>&#xa;                </mxCell>&#xa;                <mxCell id="EFogplfemO0MyQLEVENi-88" value="written?" style="ellipse;whiteSpace=wrap;html=1;rounded=0;sketch=0;fontColor=#1A1A1A;strokeColor=#FFFFFF;fillColor=#F08E81;" parent="EFogplfemO0MyQLEVENi-1" vertex="1">&#xa;                    <mxGeometry x="498" y="1007" width="90" height="60" as="geometry"/>&#xa;                </mxCell>&#xa;                <mxCell id="EFogplfemO0MyQLEVENi-90" value="" style="edgeStyle=none;rounded=0;orthogonalLoop=1;jettySize=auto;html=1;endArrow=none;endFill=0;strokeColor=#000000;strokeWidth=3;" parent="EFogplfemO0MyQLEVENi-1" source="EFogplfemO0MyQLEVENi-89" target="EFogplfemO0MyQLEVENi-36" edge="1">&#xa;                    <mxGeometry relative="1" as="geometry"/>&#xa;                </mxCell>&#xa;                <mxCell id="EFogplfemO0MyQLEVENi-89" value="card id" style="ellipse;whiteSpace=wrap;html=1;rounded=0;sketch=0;fontColor=#1A1A1A;strokeColor=#FFFFFF;fillColor=#F08E81;" parent="EFogplfemO0MyQLEVENi-1" vertex="1">&#xa;                    <mxGeometry x="240" y="817" width="90" height="60" as="geometry"/>&#xa;                </mxCell>&#xa;                <mxCell id="EFogplfemO0MyQLEVENi-92" style="edgeStyle=none;rounded=0;orthogonalLoop=1;jettySize=auto;html=1;exitX=0;exitY=0.5;exitDx=0;exitDy=0;entryX=1;entryY=0.5;entryDx=0;entryDy=0;endArrow=none;endFill=0;strokeColor=#000000;strokeWidth=3;" parent="EFogplfemO0MyQLEVENi-1" source="EFogplfemO0MyQLEVENi-91" target="EFogplfemO0MyQLEVENi-39" edge="1">&#xa;                    <mxGeometry relative="1" as="geometry"/>&#xa;                </mxCell>&#xa;                <mxCell id="EFogplfemO0MyQLEVENi-91" value="&lt;u&gt;id&lt;/u&gt;" style="ellipse;whiteSpace=wrap;html=1;rounded=0;sketch=0;fontColor=#1A1A1A;strokeColor=#FFFFFF;fillColor=#F08E81;" parent="EFogplfemO0MyQLEVENi-1" vertex="1">&#xa;                    <mxGeometry x="710" y="917" width="90" height="60" as="geometry"/>&#xa;                </mxCell>&#xa;                <mxCell id="EFogplfemO0MyQLEVENi-94" style="edgeStyle=none;rounded=0;orthogonalLoop=1;jettySize=auto;html=1;exitX=0.5;exitY=0;exitDx=0;exitDy=0;entryX=0.25;entryY=1;entryDx=0;entryDy=0;endArrow=none;endFill=0;strokeColor=#000000;strokeWidth=3;" parent="EFogplfemO0MyQLEVENi-1" source="EFogplfemO0MyQLEVENi-93" target="EFogplfemO0MyQLEVENi-26" edge="1">&#xa;                    <mxGeometry relative="1" as="geometry"/>&#xa;                </mxCell>&#xa;                <mxCell id="EFogplfemO0MyQLEVENi-93" value="&lt;u&gt;id&lt;/u&gt;" style="ellipse;whiteSpace=wrap;html=1;rounded=0;sketch=0;fontColor=#1A1A1A;strokeColor=#FFFFFF;fillColor=#F08E81;" parent="EFogplfemO0MyQLEVENi-1" vertex="1">&#xa;                    <mxGeometry x="1003" y="1080" width="90" height="60" as="geometry"/>&#xa;                </mxCell>&#xa;                <mxCell id="EFogplfemO0MyQLEVENi-96" style="edgeStyle=none;rounded=0;orthogonalLoop=1;jettySize=auto;html=1;exitX=0.5;exitY=0;exitDx=0;exitDy=0;entryX=0.5;entryY=1;entryDx=0;entryDy=0;endArrow=none;endFill=0;strokeColor=#000000;strokeWidth=3;" parent="EFogplfemO0MyQLEVENi-1" source="EFogplfemO0MyQLEVENi-95" target="EFogplfemO0MyQLEVENi-15" edge="1">&#xa;                    <mxGeometry relative="1" as="geometry"/>&#xa;                </mxCell>&#xa;                <mxCell id="EFogplfemO0MyQLEVENi-95" value="&lt;u&gt;id&lt;/u&gt;" style="ellipse;whiteSpace=wrap;html=1;rounded=0;sketch=0;fontColor=#1A1A1A;strokeColor=#FFFFFF;fillColor=#F08E81;" parent="EFogplfemO0MyQLEVENi-1" vertex="1">&#xa;                    <mxGeometry x="1043" y="330" width="90" height="60" as="geometry"/>&#xa;                </mxCell>&#xa;                <mxCell id="EFogplfemO0MyQLEVENi-98" style="edgeStyle=none;rounded=0;orthogonalLoop=1;jettySize=auto;html=1;exitX=0.5;exitY=0;exitDx=0;exitDy=0;entryX=0.5;entryY=1;entryDx=0;entryDy=0;endArrow=none;endFill=0;strokeColor=#000000;strokeWidth=3;" parent="EFogplfemO0MyQLEVENi-1" source="EFogplfemO0MyQLEVENi-97" target="EFogplfemO0MyQLEVENi-32" edge="1">&#xa;                    <mxGeometry relative="1" as="geometry"/>&#xa;                </mxCell>&#xa;                <mxCell id="EFogplfemO0MyQLEVENi-97" value="&lt;u&gt;id&lt;/u&gt;" style="ellipse;whiteSpace=wrap;html=1;rounded=0;sketch=0;fontColor=#1A1A1A;strokeColor=#FFFFFF;fillColor=#F08E81;" parent="EFogplfemO0MyQLEVENi-1" vertex="1">&#xa;                    <mxGeometry x="723" y="757" width="90" height="60" as="geometry"/>&#xa;                </mxCell>&#xa;                <mxCell id="EFogplfemO0MyQLEVENi-100" style="edgeStyle=none;rounded=0;orthogonalLoop=1;jettySize=auto;html=1;exitX=1;exitY=0.5;exitDx=0;exitDy=0;entryX=0;entryY=0.5;entryDx=0;entryDy=0;endArrow=none;endFill=0;strokeColor=#000000;strokeWidth=3;" parent="EFogplfemO0MyQLEVENi-1" source="EFogplfemO0MyQLEVENi-99" target="EFogplfemO0MyQLEVENi-32" edge="1">&#xa;                    <mxGeometry relative="1" as="geometry"/>&#xa;                </mxCell>&#xa;                <mxCell id="EFogplfemO0MyQLEVENi-99" value="console" style="ellipse;whiteSpace=wrap;html=1;rounded=0;sketch=0;fontColor=#1A1A1A;strokeColor=#FFFFFF;fillColor=#F08E81;" parent="EFogplfemO0MyQLEVENi-1" vertex="1">&#xa;                    <mxGeometry x="578" y="657" width="90" height="60" as="geometry"/>&#xa;                </mxCell>&#xa;                <mxCell id="EFogplfemO0MyQLEVENi-102" style="edgeStyle=none;rounded=0;orthogonalLoop=1;jettySize=auto;html=1;exitX=1;exitY=1;exitDx=0;exitDy=0;entryX=0;entryY=0.5;entryDx=0;entryDy=0;endArrow=none;endFill=0;strokeColor=#000000;strokeWidth=3;" parent="EFogplfemO0MyQLEVENi-1" source="EFogplfemO0MyQLEVENi-101" target="EFogplfemO0MyQLEVENi-20" edge="1">&#xa;                    <mxGeometry relative="1" as="geometry"/>&#xa;                </mxCell>&#xa;                <mxCell id="EFogplfemO0MyQLEVENi-101" value="&lt;u&gt;id&lt;/u&gt;" style="ellipse;whiteSpace=wrap;html=1;rounded=0;sketch=0;fontColor=#1A1A1A;strokeColor=#FFFFFF;fillColor=#F08E81;" parent="EFogplfemO0MyQLEVENi-1" vertex="1">&#xa;                    <mxGeometry x="913" y="757" width="90" height="60" as="geometry"/>&#xa;                </mxCell>&#xa;            </root>&#xa;        </mxGraphModel>&#xa;    </diagram><diagram id="afuDEUigWYkf_RtaMPzb" name="v1">&#xa;        <mxGraphModel dx="1502" dy="863" grid="1" gridSize="10" guides="1" tooltips="1" connect="1" arrows="1" fold="1" page="1" pageScale="1" pageWidth="1600" pageHeight="1200" background="#B0E3E6" math="0" shadow="0">&#xa;            <root>&#xa;                <mxCell id="0"/>&#xa;                <mxCell id="1" parent="0"/>&#xa;                <mxCell id="10" style="rounded=1;sketch=0;orthogonalLoop=1;jettySize=auto;html=1;entryX=0;entryY=0.5;entryDx=0;entryDy=0;fontColor=#1A1A1A;strokeColor=#182E3E;endArrow=classic;endFill=1;labelBackgroundColor=#B0E3E6;exitX=1;exitY=0.5;exitDx=0;exitDy=0;" parent="1" source="2" target="9" edge="1">&#xa;                    <mxGeometry relative="1" as="geometry">&#xa;                        <mxPoint x="768" y="327" as="sourcePoint"/>&#xa;                    </mxGeometry>&#xa;                </mxCell>&#xa;                <mxCell id="13" style="edgeStyle=none;rounded=1;sketch=0;orthogonalLoop=1;jettySize=auto;html=1;entryX=0;entryY=0.5;entryDx=0;entryDy=0;fontColor=#1A1A1A;strokeColor=#182E3E;endArrow=classic;endFill=1;labelBackgroundColor=#B0E3E6;strokeWidth=3;exitX=1;exitY=0.75;exitDx=0;exitDy=0;" parent="1" source="2" target="12" edge="1">&#xa;                    <mxGeometry relative="1" as="geometry">&#xa;                        <mxPoint x="778" y="367" as="sourcePoint"/>&#xa;                    </mxGeometry>&#xa;                </mxCell>&#xa;                <mxCell id="21" style="edgeStyle=none;rounded=1;sketch=0;orthogonalLoop=1;jettySize=auto;html=1;fontColor=#1A1A1A;endArrow=none;endFill=0;strokeColor=#182E3E;strokeWidth=3;exitX=1;exitY=1;exitDx=0;exitDy=0;" parent="1" source="2" target="15" edge="1">&#xa;                    <mxGeometry relative="1" as="geometry">&#xa;                        <mxPoint x="738" y="377" as="sourcePoint"/>&#xa;                    </mxGeometry>&#xa;                </mxCell>&#xa;                <mxCell id="56" style="edgeStyle=none;rounded=1;sketch=0;orthogonalLoop=1;jettySize=auto;html=1;exitX=1;exitY=0;exitDx=0;exitDy=0;fontColor=#1A1A1A;endArrow=none;endFill=0;strokeColor=#182E3E;strokeWidth=1;" parent="1" source="2" target="50" edge="1">&#xa;                    <mxGeometry relative="1" as="geometry">&#xa;                        <mxPoint x="573" y="307" as="targetPoint"/>&#xa;                    </mxGeometry>&#xa;                </mxCell>&#xa;                <mxCell id="57" style="edgeStyle=none;rounded=1;sketch=0;orthogonalLoop=1;jettySize=auto;html=1;exitX=0.75;exitY=0;exitDx=0;exitDy=0;entryX=0;entryY=1;entryDx=0;entryDy=0;fontColor=#1A1A1A;endArrow=none;endFill=0;strokeColor=#182E3E;strokeWidth=1;" parent="1" source="2" target="49" edge="1">&#xa;                    <mxGeometry relative="1" as="geometry"/>&#xa;                </mxCell>&#xa;                <mxCell id="58" style="edgeStyle=none;rounded=1;sketch=0;orthogonalLoop=1;jettySize=auto;html=1;exitX=0.5;exitY=0;exitDx=0;exitDy=0;entryX=0.5;entryY=1;entryDx=0;entryDy=0;fontColor=#1A1A1A;endArrow=none;endFill=0;strokeColor=#182E3E;strokeWidth=1;" parent="1" source="2" target="47" edge="1">&#xa;                    <mxGeometry relative="1" as="geometry"/>&#xa;                </mxCell>&#xa;                <mxCell id="59" style="edgeStyle=none;rounded=1;sketch=0;orthogonalLoop=1;jettySize=auto;html=1;exitX=0.25;exitY=0;exitDx=0;exitDy=0;fontColor=#1A1A1A;endArrow=none;endFill=0;strokeColor=#182E3E;strokeWidth=3;entryX=1;entryY=1;entryDx=0;entryDy=0;" parent="1" source="2" target="48" edge="1">&#xa;                    <mxGeometry relative="1" as="geometry">&#xa;                        <mxPoint x="468" y="247" as="targetPoint"/>&#xa;                    </mxGeometry>&#xa;                </mxCell>&#xa;                <mxCell id="105" style="edgeStyle=none;rounded=1;sketch=0;orthogonalLoop=1;jettySize=auto;html=1;exitX=0.5;exitY=1;exitDx=0;exitDy=0;fontColor=#1A1A1A;endArrow=none;endFill=0;strokeColor=#182E3E;strokeWidth=1;" parent="1" source="2" target="51" edge="1">&#xa;                    <mxGeometry relative="1" as="geometry"/>&#xa;                </mxCell>&#xa;                <mxCell id="106" style="edgeStyle=none;rounded=1;sketch=0;orthogonalLoop=1;jettySize=auto;html=1;exitX=0.25;exitY=1;exitDx=0;exitDy=0;entryX=0.5;entryY=0;entryDx=0;entryDy=0;fontColor=#1A1A1A;endArrow=none;endFill=0;strokeColor=#182E3E;strokeWidth=1;" parent="1" source="2" target="22" edge="1">&#xa;                    <mxGeometry relative="1" as="geometry"/>&#xa;                </mxCell>&#xa;                <mxCell id="2" value="villager" style="rounded=0;whiteSpace=wrap;html=1;sketch=0;fontColor=#1A1A1A;strokeColor=#FFFFFF;fillColor=#F08E81;" parent="1" vertex="1">&#xa;                    <mxGeometry x="438" y="337" width="120" height="60" as="geometry"/>&#xa;                </mxCell>&#xa;                <mxCell id="35" style="edgeStyle=none;rounded=1;sketch=0;orthogonalLoop=1;jettySize=auto;html=1;exitX=0;exitY=0;exitDx=0;exitDy=0;entryX=0.5;entryY=1;entryDx=0;entryDy=0;fontColor=#1A1A1A;endArrow=none;endFill=0;strokeColor=#182E3E;strokeWidth=3;" parent="1" source="3" target="28" edge="1">&#xa;                    <mxGeometry relative="1" as="geometry"/>&#xa;                </mxCell>&#xa;                <mxCell id="36" style="edgeStyle=none;rounded=1;sketch=0;orthogonalLoop=1;jettySize=auto;html=1;exitX=0.5;exitY=0;exitDx=0;exitDy=0;entryX=0.5;entryY=1;entryDx=0;entryDy=0;fontColor=#1A1A1A;endArrow=none;endFill=0;strokeColor=#182E3E;strokeWidth=3;" parent="1" source="3" target="29" edge="1">&#xa;                    <mxGeometry relative="1" as="geometry"/>&#xa;                </mxCell>&#xa;                <mxCell id="37" style="edgeStyle=none;rounded=1;sketch=0;orthogonalLoop=1;jettySize=auto;html=1;exitX=1;exitY=0;exitDx=0;exitDy=0;entryX=0.5;entryY=1;entryDx=0;entryDy=0;fontColor=#1A1A1A;endArrow=none;endFill=0;strokeColor=#182E3E;strokeWidth=3;" parent="1" source="3" target="34" edge="1">&#xa;                    <mxGeometry relative="1" as="geometry"/>&#xa;                </mxCell>&#xa;                <mxCell id="3" value="coffee" style="rounded=0;whiteSpace=wrap;html=1;sketch=0;fontColor=#1A1A1A;strokeColor=#FFFFFF;fillColor=#F08E81;" parent="1" vertex="1">&#xa;                    <mxGeometry x="1028" y="237" width="120" height="60" as="geometry"/>&#xa;                </mxCell>&#xa;                <mxCell id="19" style="rounded=1;sketch=0;orthogonalLoop=1;jettySize=auto;html=1;exitX=0;exitY=1;exitDx=0;exitDy=0;entryX=0.5;entryY=0;entryDx=0;entryDy=0;fontColor=#1A1A1A;strokeColor=#182E3E;endArrow=none;endFill=0;strokeWidth=3;" parent="1" source="4" target="18" edge="1">&#xa;                    <mxGeometry relative="1" as="geometry"/>&#xa;                </mxCell>&#xa;                <mxCell id="68" style="edgeStyle=none;rounded=1;sketch=0;orthogonalLoop=1;jettySize=auto;html=1;exitX=0.5;exitY=0;exitDx=0;exitDy=0;entryX=0.5;entryY=1;entryDx=0;entryDy=0;fontColor=#1A1A1A;endArrow=none;endFill=0;strokeColor=#182E3E;strokeWidth=3;" parent="1" source="4" target="65" edge="1">&#xa;                    <mxGeometry relative="1" as="geometry"/>&#xa;                </mxCell>&#xa;                <mxCell id="69" style="edgeStyle=none;rounded=1;sketch=0;orthogonalLoop=1;jettySize=auto;html=1;exitX=1;exitY=0;exitDx=0;exitDy=0;entryX=0;entryY=1;entryDx=0;entryDy=0;fontColor=#1A1A1A;endArrow=none;endFill=0;strokeColor=#182E3E;strokeWidth=3;" parent="1" source="4" target="66" edge="1">&#xa;                    <mxGeometry relative="1" as="geometry"/>&#xa;                </mxCell>&#xa;                <mxCell id="70" style="edgeStyle=none;rounded=1;sketch=0;orthogonalLoop=1;jettySize=auto;html=1;exitX=1;exitY=0.5;exitDx=0;exitDy=0;entryX=0;entryY=0.5;entryDx=0;entryDy=0;fontColor=#1A1A1A;endArrow=none;endFill=0;strokeColor=#182E3E;strokeWidth=1;" parent="1" source="4" target="67" edge="1">&#xa;                    <mxGeometry relative="1" as="geometry"/>&#xa;                </mxCell>&#xa;                <mxCell id="4" value="house" style="rounded=0;whiteSpace=wrap;html=1;sketch=0;fontColor=#1A1A1A;strokeColor=#FFFFFF;fillColor=#F08E81;" parent="1" vertex="1">&#xa;                    <mxGeometry x="1033" y="787" width="120" height="60" as="geometry"/>&#xa;                </mxCell>&#xa;                <mxCell id="91" style="rounded=1;sketch=0;orthogonalLoop=1;jettySize=auto;html=1;exitX=0.25;exitY=0;exitDx=0;exitDy=0;entryX=0.5;entryY=1;entryDx=0;entryDy=0;fontColor=#1A1A1A;endArrow=none;endFill=0;strokeColor=#182E3E;strokeWidth=3;" parent="1" source="5" target="86" edge="1">&#xa;                    <mxGeometry relative="1" as="geometry"/>&#xa;                </mxCell>&#xa;                <mxCell id="92" style="edgeStyle=none;rounded=1;sketch=0;orthogonalLoop=1;jettySize=auto;html=1;exitX=0.75;exitY=0;exitDx=0;exitDy=0;entryX=0;entryY=1;entryDx=0;entryDy=0;fontColor=#1A1A1A;endArrow=none;endFill=0;strokeColor=#182E3E;strokeWidth=3;" parent="1" source="5" target="87" edge="1">&#xa;                    <mxGeometry relative="1" as="geometry"/>&#xa;                </mxCell>&#xa;                <mxCell id="93" style="edgeStyle=none;rounded=1;sketch=0;orthogonalLoop=1;jettySize=auto;html=1;exitX=1;exitY=0;exitDx=0;exitDy=0;entryX=0;entryY=0.5;entryDx=0;entryDy=0;fontColor=#1A1A1A;endArrow=none;endFill=0;strokeColor=#182E3E;strokeWidth=1;" parent="1" source="5" target="88" edge="1">&#xa;                    <mxGeometry relative="1" as="geometry"/>&#xa;                </mxCell>&#xa;                <mxCell id="94" style="edgeStyle=none;rounded=1;sketch=0;orthogonalLoop=1;jettySize=auto;html=1;exitX=1;exitY=0.75;exitDx=0;exitDy=0;fontColor=#1A1A1A;endArrow=none;endFill=0;strokeColor=#182E3E;strokeWidth=1;" parent="1" source="5" target="90" edge="1">&#xa;                    <mxGeometry relative="1" as="geometry"/>&#xa;                </mxCell>&#xa;                <mxCell id="95" style="edgeStyle=none;rounded=1;sketch=0;orthogonalLoop=1;jettySize=auto;html=1;exitX=0;exitY=0.5;exitDx=0;exitDy=0;entryX=1;entryY=0.5;entryDx=0;entryDy=0;fontColor=#1A1A1A;endArrow=none;endFill=0;strokeColor=#182E3E;strokeWidth=1;" parent="1" source="5" target="89" edge="1">&#xa;                    <mxGeometry relative="1" as="geometry"/>&#xa;                </mxCell>&#xa;                <mxCell id="5" value="furniture" style="rounded=0;whiteSpace=wrap;html=1;sketch=0;fontColor=#1A1A1A;strokeColor=#FFFFFF;fillColor=#F08E81;" parent="1" vertex="1">&#xa;                    <mxGeometry x="1028" y="987" width="120" height="60" as="geometry"/>&#xa;                </mxCell>&#xa;                <mxCell id="76" style="edgeStyle=none;rounded=1;sketch=0;orthogonalLoop=1;jettySize=auto;html=1;exitX=0;exitY=0;exitDx=0;exitDy=0;entryX=0.5;entryY=1;entryDx=0;entryDy=0;fontColor=#1A1A1A;endArrow=none;endFill=0;strokeColor=#182E3E;strokeWidth=1;" parent="1" source="6" target="72" edge="1">&#xa;                    <mxGeometry relative="1" as="geometry"/>&#xa;                </mxCell>&#xa;                <mxCell id="77" style="edgeStyle=none;rounded=1;sketch=0;orthogonalLoop=1;jettySize=auto;html=1;exitX=0.75;exitY=0;exitDx=0;exitDy=0;entryX=0.5;entryY=1;entryDx=0;entryDy=0;fontColor=#1A1A1A;endArrow=none;endFill=0;strokeColor=#182E3E;strokeWidth=1;" parent="1" source="6" target="71" edge="1">&#xa;                    <mxGeometry relative="1" as="geometry"/>&#xa;                </mxCell>&#xa;                <mxCell id="79" style="edgeStyle=none;rounded=1;sketch=0;orthogonalLoop=1;jettySize=auto;html=1;exitX=1;exitY=1;exitDx=0;exitDy=0;entryX=0.5;entryY=0;entryDx=0;entryDy=0;fontColor=#1A1A1A;endArrow=none;endFill=0;strokeColor=#182E3E;strokeWidth=1;" parent="1" source="6" target="74" edge="1">&#xa;                    <mxGeometry relative="1" as="geometry"/>&#xa;                </mxCell>&#xa;                <mxCell id="84" style="edgeStyle=none;rounded=1;sketch=0;orthogonalLoop=1;jettySize=auto;html=1;exitX=0.75;exitY=1;exitDx=0;exitDy=0;entryX=0.5;entryY=0;entryDx=0;entryDy=0;fontColor=#1A1A1A;endArrow=none;endFill=0;strokeColor=#182E3E;strokeWidth=1;" parent="1" source="6" target="75" edge="1">&#xa;                    <mxGeometry relative="1" as="geometry"/>&#xa;                </mxCell>&#xa;                <mxCell id="113" style="edgeStyle=none;rounded=1;sketch=0;orthogonalLoop=1;jettySize=auto;html=1;exitX=0;exitY=1;exitDx=0;exitDy=0;entryX=1;entryY=0;entryDx=0;entryDy=0;fontColor=#1A1A1A;endArrow=none;endFill=0;strokeColor=#182E3E;strokeWidth=1;" parent="1" source="6" target="73" edge="1">&#xa;                    <mxGeometry relative="1" as="geometry"/>&#xa;                </mxCell>&#xa;                <mxCell id="6" value="game" style="rounded=0;whiteSpace=wrap;html=1;sketch=0;fontColor=#1A1A1A;strokeColor=#FFFFFF;fillColor=#F08E81;" parent="1" vertex="1">&#xa;                    <mxGeometry x="708" y="657" width="120" height="60" as="geometry"/>&#xa;                </mxCell>&#xa;                <mxCell id="103" style="edgeStyle=none;rounded=1;sketch=0;orthogonalLoop=1;jettySize=auto;html=1;entryX=0.5;entryY=1;entryDx=0;entryDy=0;fontColor=#1A1A1A;endArrow=none;endFill=0;strokeColor=#182E3E;strokeWidth=4;exitX=0;exitY=0;exitDx=0;exitDy=0;" parent="1" source="7" target="97" edge="1">&#xa;                    <mxGeometry relative="1" as="geometry">&#xa;                        <mxPoint x="358" y="817" as="sourcePoint"/>&#xa;                    </mxGeometry>&#xa;                </mxCell>&#xa;                <mxCell id="104" style="edgeStyle=none;rounded=1;sketch=0;orthogonalLoop=1;jettySize=auto;html=1;exitX=0.75;exitY=0;exitDx=0;exitDy=0;entryX=0;entryY=1;entryDx=0;entryDy=0;fontColor=#1A1A1A;endArrow=none;endFill=0;strokeColor=#182E3E;strokeWidth=4;" parent="1" source="7" target="96" edge="1">&#xa;                    <mxGeometry relative="1" as="geometry"/>&#xa;                </mxCell>&#xa;                <mxCell id="115" style="edgeStyle=none;rounded=1;sketch=0;orthogonalLoop=1;jettySize=auto;html=1;exitX=0.5;exitY=1;exitDx=0;exitDy=0;entryX=0.5;entryY=0;entryDx=0;entryDy=0;fontColor=#1A1A1A;endArrow=none;endFill=0;strokeColor=#182E3E;strokeWidth=1;" parent="1" source="7" target="25" edge="1">&#xa;                    <mxGeometry relative="1" as="geometry"/>&#xa;                </mxCell>&#xa;                <mxCell id="7" value="amiibo" style="rounded=0;whiteSpace=wrap;html=1;sketch=0;fontColor=#1A1A1A;strokeColor=#FFFFFF;fillColor=#F08E81;" parent="1" vertex="1">&#xa;                    <mxGeometry x="368" y="817" width="120" height="60" as="geometry"/>&#xa;                </mxCell>&#xa;                <mxCell id="109" style="edgeStyle=none;rounded=1;sketch=0;orthogonalLoop=1;jettySize=auto;html=1;exitX=0;exitY=1;exitDx=0;exitDy=0;entryX=0.5;entryY=0;entryDx=0;entryDy=0;fontColor=#1A1A1A;endArrow=none;endFill=0;strokeColor=#182E3E;strokeWidth=3;" parent="1" source="8" target="98" edge="1">&#xa;                    <mxGeometry relative="1" as="geometry"/>&#xa;                </mxCell>&#xa;                <mxCell id="110" style="edgeStyle=none;rounded=1;sketch=0;orthogonalLoop=1;jettySize=auto;html=1;exitX=1;exitY=1;exitDx=0;exitDy=0;entryX=0.5;entryY=0;entryDx=0;entryDy=0;fontColor=#1A1A1A;endArrow=none;endFill=0;strokeColor=#182E3E;strokeWidth=3;" parent="1" source="8" target="40" edge="1">&#xa;                    <mxGeometry relative="1" as="geometry"/>&#xa;                </mxCell>&#xa;                <mxCell id="8" value="nfc tag" style="rounded=0;whiteSpace=wrap;html=1;sketch=0;fontColor=#1A1A1A;strokeColor=#FFFFFF;fillColor=#F08E81;" parent="1" vertex="1">&#xa;                    <mxGeometry x="548" y="917" width="120" height="60" as="geometry"/>&#xa;                </mxCell>&#xa;                <mxCell id="11" style="edgeStyle=none;rounded=1;sketch=0;orthogonalLoop=1;jettySize=auto;html=1;exitX=1;exitY=0.5;exitDx=0;exitDy=0;entryX=0;entryY=0.5;entryDx=0;entryDy=0;fontColor=#1A1A1A;strokeColor=#182E3E;endArrow=none;endFill=0;labelBackgroundColor=#B0E3E6;" parent="1" source="9" target="3" edge="1">&#xa;                    <mxGeometry relative="1" as="geometry"/>&#xa;                </mxCell>&#xa;                <mxCell id="9" value="drinks" style="rhombus;whiteSpace=wrap;html=1;rounded=0;sketch=0;fontColor=#1A1A1A;strokeColor=#FFFFFF;fillColor=#F08E81;" parent="1" vertex="1">&#xa;                    <mxGeometry x="853" y="227" width="80" height="80" as="geometry"/>&#xa;                </mxCell>&#xa;                <mxCell id="14" style="edgeStyle=none;rounded=1;sketch=0;orthogonalLoop=1;jettySize=auto;html=1;exitX=0;exitY=0;exitDx=0;exitDy=0;fontColor=#1A1A1A;strokeColor=#182E3E;endArrow=classic;endFill=1;labelBackgroundColor=#B0E3E6;strokeWidth=3;entryX=0.5;entryY=1;entryDx=0;entryDy=0;" parent="1" source="4" target="12" edge="1">&#xa;                    <mxGeometry relative="1" as="geometry">&#xa;                        <mxPoint x="1058" y="497" as="targetPoint"/>&#xa;                    </mxGeometry>&#xa;                </mxCell>&#xa;                <mxCell id="12" value="lives in" style="rhombus;whiteSpace=wrap;html=1;rounded=0;sketch=0;fontColor=#1A1A1A;strokeColor=#FFFFFF;fillColor=#F08E81;" parent="1" vertex="1">&#xa;                    <mxGeometry x="988" y="407" width="80" height="80" as="geometry"/>&#xa;                </mxCell>&#xa;                <mxCell id="114" style="edgeStyle=none;rounded=1;sketch=0;orthogonalLoop=1;jettySize=auto;html=1;exitX=0.5;exitY=1;exitDx=0;exitDy=0;entryX=0.25;entryY=0;entryDx=0;entryDy=0;fontColor=#1A1A1A;endArrow=none;endFill=0;strokeColor=#182E3E;strokeWidth=3;" parent="1" source="15" target="6" edge="1">&#xa;                    <mxGeometry relative="1" as="geometry"/>&#xa;                </mxCell>&#xa;                <mxCell id="15" value="featured in" style="rhombus;whiteSpace=wrap;html=1;rounded=0;sketch=0;fontColor=#1A1A1A;strokeColor=#FFFFFF;fillColor=#F08E81;" parent="1" vertex="1">&#xa;                    <mxGeometry x="718" y="457" width="80" height="80" as="geometry"/>&#xa;                </mxCell>&#xa;                <mxCell id="20" style="edgeStyle=none;rounded=1;sketch=0;orthogonalLoop=1;jettySize=auto;html=1;exitX=0;exitY=0;exitDx=0;exitDy=0;entryX=0.5;entryY=1;entryDx=0;entryDy=0;fontColor=#1A1A1A;endArrow=classic;endFill=1;strokeColor=#182E3E;" parent="1" source="5" target="18" edge="1">&#xa;                    <mxGeometry relative="1" as="geometry"/>&#xa;                </mxCell>&#xa;                <mxCell id="18" value="contains" style="rhombus;whiteSpace=wrap;html=1;rounded=0;sketch=0;fontColor=#1A1A1A;strokeColor=#FFFFFF;fillColor=#F08E81;" parent="1" vertex="1">&#xa;                    <mxGeometry x="893" y="847" width="80" height="80" as="geometry"/>&#xa;                </mxCell>&#xa;                <mxCell id="108" style="edgeStyle=none;rounded=1;sketch=0;orthogonalLoop=1;jettySize=auto;html=1;exitX=0.5;exitY=0;exitDx=0;exitDy=0;entryX=0.5;entryY=1;entryDx=0;entryDy=0;fontColor=#1A1A1A;endArrow=classic;endFill=1;strokeColor=#182E3E;strokeWidth=1;" parent="1" source="7" target="22" edge="1">&#xa;                    <mxGeometry relative="1" as="geometry"/>&#xa;                </mxCell>&#xa;                <mxCell id="22" value="has" style="rhombus;whiteSpace=wrap;html=1;rounded=0;sketch=0;fontColor=#1A1A1A;strokeColor=#FFFFFF;fillColor=#F08E81;" parent="1" vertex="1">&#xa;                    <mxGeometry x="383" y="627" width="80" height="80" as="geometry"/>&#xa;                </mxCell>&#xa;                <mxCell id="27" style="edgeStyle=none;rounded=1;sketch=0;orthogonalLoop=1;jettySize=auto;html=1;fontColor=#1A1A1A;endArrow=classic;endFill=1;strokeColor=#182E3E;strokeWidth=3;entryX=1;entryY=0.5;entryDx=0;entryDy=0;exitX=0;exitY=0.5;exitDx=0;exitDy=0;" parent="1" source="8" target="25" edge="1">&#xa;                    <mxGeometry relative="1" as="geometry">&#xa;                        <mxPoint x="528" y="927" as="sourcePoint"/>&#xa;                        <mxPoint x="508" y="957" as="targetPoint"/>&#xa;                    </mxGeometry>&#xa;                </mxCell>&#xa;                <mxCell id="25" value="written to" style="rhombus;whiteSpace=wrap;html=1;rounded=0;sketch=0;fontColor=#1A1A1A;strokeColor=#FFFFFF;fillColor=#F08E81;" parent="1" vertex="1">&#xa;                    <mxGeometry x="388" y="907" width="80" height="80" as="geometry"/>&#xa;                </mxCell>&#xa;                <mxCell id="28" value="beans" style="ellipse;whiteSpace=wrap;html=1;rounded=0;sketch=0;fontColor=#1A1A1A;strokeColor=#FFFFFF;fillColor=#F08E81;" parent="1" vertex="1">&#xa;                    <mxGeometry x="938" y="127" width="90" height="60" as="geometry"/>&#xa;                </mxCell>&#xa;                <mxCell id="29" value="milk" style="ellipse;whiteSpace=wrap;html=1;rounded=0;sketch=0;fontColor=#1A1A1A;strokeColor=#FFFFFF;fillColor=#F08E81;" parent="1" vertex="1">&#xa;                    <mxGeometry x="1043" y="127" width="90" height="60" as="geometry"/>&#xa;                </mxCell>&#xa;                <mxCell id="34" value="sugar" style="ellipse;whiteSpace=wrap;html=1;rounded=0;sketch=0;fontColor=#1A1A1A;strokeColor=#FFFFFF;fillColor=#F08E81;" parent="1" vertex="1">&#xa;                    <mxGeometry x="1148" y="127" width="90" height="60" as="geometry"/>&#xa;                </mxCell>&#xa;                <mxCell id="39" style="edgeStyle=none;rounded=1;sketch=0;orthogonalLoop=1;jettySize=auto;html=1;exitX=0.5;exitY=0;exitDx=0;exitDy=0;fontColor=#1A1A1A;endArrow=none;endFill=0;strokeColor=#182E3E;strokeWidth=3;entryX=0.75;entryY=1;entryDx=0;entryDy=0;" parent="1" source="38" target="2" edge="1">&#xa;                    <mxGeometry relative="1" as="geometry">&#xa;                        <mxPoint x="518" y="417" as="targetPoint"/>&#xa;                    </mxGeometry>&#xa;                </mxCell>&#xa;                <mxCell id="38" value="&lt;u&gt;name&lt;/u&gt;" style="ellipse;whiteSpace=wrap;html=1;rounded=0;sketch=0;fontColor=#1A1A1A;strokeColor=#FFFFFF;fillColor=#F08E81;" parent="1" vertex="1">&#xa;                    <mxGeometry x="528" y="427" width="90" height="60" as="geometry"/>&#xa;                </mxCell>&#xa;                <mxCell id="40" value="drawn?" style="ellipse;whiteSpace=wrap;html=1;rounded=0;sketch=0;fontColor=#1A1A1A;strokeColor=#FFFFFF;fillColor=#F08E81;" parent="1" vertex="1">&#xa;                    <mxGeometry x="628" y="1007" width="90" height="60" as="geometry"/>&#xa;                </mxCell>&#xa;                <mxCell id="63" style="edgeStyle=none;rounded=1;sketch=0;orthogonalLoop=1;jettySize=auto;html=1;exitX=1;exitY=0;exitDx=0;exitDy=0;entryX=0;entryY=0.75;entryDx=0;entryDy=0;fontColor=#1A1A1A;endArrow=none;endFill=0;strokeColor=#182E3E;strokeWidth=3;" parent="1" source="41" target="2" edge="1">&#xa;                    <mxGeometry relative="1" as="geometry"/>&#xa;                </mxCell>&#xa;                <mxCell id="41" value="personality" style="ellipse;whiteSpace=wrap;html=1;rounded=0;sketch=0;fontColor=#1A1A1A;strokeColor=#FFFFFF;fillColor=#F08E81;" parent="1" vertex="1">&#xa;                    <mxGeometry x="298" y="417" width="90" height="60" as="geometry"/>&#xa;                </mxCell>&#xa;                <mxCell id="64" style="edgeStyle=none;rounded=1;sketch=0;orthogonalLoop=1;jettySize=auto;html=1;exitX=1;exitY=0;exitDx=0;exitDy=0;entryX=0;entryY=1;entryDx=0;entryDy=0;fontColor=#1A1A1A;endArrow=none;endFill=0;strokeColor=#182E3E;strokeWidth=3;" parent="1" source="42" target="2" edge="1">&#xa;                    <mxGeometry relative="1" as="geometry"/>&#xa;                </mxCell>&#xa;                <mxCell id="42" value="species" style="ellipse;whiteSpace=wrap;html=1;rounded=0;sketch=0;fontColor=#1A1A1A;strokeColor=#FFFFFF;fillColor=#F08E81;" parent="1" vertex="1">&#xa;                    <mxGeometry x="338" y="477" width="90" height="60" as="geometry"/>&#xa;                </mxCell>&#xa;                <mxCell id="62" style="edgeStyle=none;rounded=1;sketch=0;orthogonalLoop=1;jettySize=auto;html=1;exitX=1;exitY=0.5;exitDx=0;exitDy=0;entryX=0;entryY=0.5;entryDx=0;entryDy=0;fontColor=#1A1A1A;endArrow=none;endFill=0;strokeColor=#182E3E;strokeWidth=1;" parent="1" source="43" target="2" edge="1">&#xa;                    <mxGeometry relative="1" as="geometry"/>&#xa;                </mxCell>&#xa;                <mxCell id="43" value="subtype" style="ellipse;whiteSpace=wrap;html=1;rounded=0;sketch=0;fontColor=#1A1A1A;strokeColor=#FFFFFF;fillColor=#F08E81;" parent="1" vertex="1">&#xa;                    <mxGeometry x="288" y="347" width="90" height="60" as="geometry"/>&#xa;                </mxCell>&#xa;                <mxCell id="61" style="edgeStyle=none;rounded=1;sketch=0;orthogonalLoop=1;jettySize=auto;html=1;exitX=1;exitY=0.5;exitDx=0;exitDy=0;entryX=0;entryY=0.25;entryDx=0;entryDy=0;fontColor=#1A1A1A;endArrow=none;endFill=0;strokeColor=#182E3E;strokeWidth=3;" parent="1" source="44" target="2" edge="1">&#xa;                    <mxGeometry relative="1" as="geometry"/>&#xa;                </mxCell>&#xa;                <mxCell id="44" value="gender" style="ellipse;whiteSpace=wrap;html=1;rounded=0;sketch=0;fontColor=#1A1A1A;strokeColor=#FFFFFF;fillColor=#F08E81;" parent="1" vertex="1">&#xa;                    <mxGeometry x="308" y="277" width="90" height="60" as="geometry"/>&#xa;                </mxCell>&#xa;                <mxCell id="60" style="edgeStyle=none;rounded=1;sketch=0;orthogonalLoop=1;jettySize=auto;html=1;entryX=0;entryY=0;entryDx=0;entryDy=0;fontColor=#1A1A1A;endArrow=none;endFill=0;strokeColor=#182E3E;strokeWidth=3;exitX=1;exitY=1;exitDx=0;exitDy=0;" parent="1" source="45" target="2" edge="1">&#xa;                    <mxGeometry relative="1" as="geometry">&#xa;                        <mxPoint x="408" y="267" as="sourcePoint"/>&#xa;                    </mxGeometry>&#xa;                </mxCell>&#xa;                <mxCell id="45" value="birthday" style="ellipse;whiteSpace=wrap;html=1;rounded=0;sketch=0;fontColor=#1A1A1A;strokeColor=#FFFFFF;fillColor=#F08E81;" parent="1" vertex="1">&#xa;                    <mxGeometry x="318" y="207" width="90" height="60" as="geometry"/>&#xa;                </mxCell>&#xa;                <mxCell id="47" value="hobby" style="ellipse;whiteSpace=wrap;html=1;rounded=0;sketch=0;fontColor=#1A1A1A;strokeColor=#FFFFFF;fillColor=#F08E81;" parent="1" vertex="1">&#xa;                    <mxGeometry x="468" y="147" width="90" height="60" as="geometry"/>&#xa;                </mxCell>&#xa;                <mxCell id="48" value="catchphrase" style="ellipse;whiteSpace=wrap;html=1;rounded=0;sketch=0;fontColor=#1A1A1A;strokeColor=#FFFFFF;fillColor=#F08E81;" parent="1" vertex="1">&#xa;                    <mxGeometry x="378" y="157" width="90" height="60" as="geometry"/>&#xa;                </mxCell>&#xa;                <mxCell id="49" value="favourite color" style="ellipse;whiteSpace=wrap;html=1;rounded=0;sketch=0;fontColor=#1A1A1A;strokeColor=#FFFFFF;fillColor=#F08E81;" parent="1" vertex="1">&#xa;                    <mxGeometry x="528" y="207" width="90" height="60" as="geometry"/>&#xa;                </mxCell>&#xa;                <mxCell id="50" value="favourite song" style="ellipse;whiteSpace=wrap;html=1;rounded=0;sketch=0;fontColor=#1A1A1A;strokeColor=#FFFFFF;fillColor=#F08E81;" parent="1" vertex="1">&#xa;                    <mxGeometry x="598" y="257" width="90" height="60" as="geometry"/>&#xa;                </mxCell>&#xa;                <mxCell id="51" value="is sanrio?" style="ellipse;whiteSpace=wrap;html=1;rounded=0;sketch=0;fontColor=#1A1A1A;strokeColor=#FFFFFF;fillColor=#F08E81;" parent="1" vertex="1">&#xa;                    <mxGeometry x="458" y="477" width="90" height="60" as="geometry"/>&#xa;                </mxCell>&#xa;                <mxCell id="65" value="wallpaper" style="ellipse;whiteSpace=wrap;html=1;rounded=0;sketch=0;fontColor=#1A1A1A;strokeColor=#FFFFFF;fillColor=#F08E81;" parent="1" vertex="1">&#xa;                    <mxGeometry x="1048" y="687" width="90" height="60" as="geometry"/>&#xa;                </mxCell>&#xa;                <mxCell id="66" value="floor&lt;span style=&quot;color: rgba(0 , 0 , 0 , 0) ; font-family: monospace ; font-size: 0px&quot;&gt;%3CmxGraphModel%3E%3Croot%3E%3CmxCell%20id%3D%220%22%2F%3E%3CmxCell%20id%3D%221%22%20parent%3D%220%22%2F%3E%3CmxCell%20id%3D%222%22%20value%3D%22%22%20style%3D%22ellipse%3BwhiteSpace%3Dwrap%3Bhtml%3D1%3Brounded%3D0%3Bsketch%3D0%3BfontColor%3D%231A1A1A%3BstrokeColor%3D%23FFFFFF%3BfillColor%3D%23F08E81%3B%22%20vertex%3D%221%22%20parent%3D%221%22%3E%3CmxGeometry%20x%3D%22240%22%20y%3D%2250%22%20width%3D%2290%22%20height%3D%2260%22%20as%3D%22geometry%22%2F%3E%3C%2FmxCell%3E%3C%2Froot%3E%3C%2FmxGraphModel%3E&lt;/span&gt;" style="ellipse;whiteSpace=wrap;html=1;rounded=0;sketch=0;fontColor=#1A1A1A;strokeColor=#FFFFFF;fillColor=#F08E81;" parent="1" vertex="1">&#xa;                    <mxGeometry x="1153" y="707" width="90" height="60" as="geometry"/>&#xa;                </mxCell>&#xa;                <mxCell id="67" value="music playing" style="ellipse;whiteSpace=wrap;html=1;rounded=0;sketch=0;fontColor=#1A1A1A;strokeColor=#FFFFFF;fillColor=#F08E81;" parent="1" vertex="1">&#xa;                    <mxGeometry x="1173" y="787" width="90" height="60" as="geometry"/>&#xa;                </mxCell>&#xa;                <mxCell id="71" value="new horizons" style="ellipse;whiteSpace=wrap;html=1;rounded=0;sketch=0;fontColor=#1A1A1A;strokeColor=#FFFFFF;fillColor=#F08E81;" parent="1" vertex="1">&#xa;                    <mxGeometry x="788" y="577" width="90" height="60" as="geometry"/>&#xa;                </mxCell>&#xa;                <mxCell id="72" value="new leaf" style="ellipse;whiteSpace=wrap;html=1;rounded=0;sketch=0;fontColor=#1A1A1A;strokeColor=#FFFFFF;fillColor=#F08E81;" parent="1" vertex="1">&#xa;                    <mxGeometry x="618" y="587" width="90" height="60" as="geometry"/>&#xa;                </mxCell>&#xa;                <mxCell id="73" value="wild world" style="ellipse;whiteSpace=wrap;html=1;rounded=0;sketch=0;fontColor=#1A1A1A;strokeColor=#FFFFFF;fillColor=#F08E81;" parent="1" vertex="1">&#xa;                    <mxGeometry x="628" y="747" width="90" height="60" as="geometry"/>&#xa;                </mxCell>&#xa;                <mxCell id="74" value="animal crossing" style="ellipse;whiteSpace=wrap;html=1;rounded=0;sketch=0;fontColor=#1A1A1A;strokeColor=#FFFFFF;fillColor=#F08E81;" parent="1" vertex="1">&#xa;                    <mxGeometry x="853" y="717" width="90" height="60" as="geometry"/>&#xa;                </mxCell>&#xa;                <mxCell id="75" value="city folk" style="ellipse;whiteSpace=wrap;html=1;rounded=0;sketch=0;fontColor=#1A1A1A;strokeColor=#FFFFFF;fillColor=#F08E81;" parent="1" vertex="1">&#xa;                    <mxGeometry x="748" y="747" width="90" height="60" as="geometry"/>&#xa;                </mxCell>&#xa;                <mxCell id="86" value="buy price" style="ellipse;whiteSpace=wrap;html=1;rounded=0;sketch=0;fontColor=#1A1A1A;strokeColor=#FFFFFF;fillColor=#F08E81;" parent="1" vertex="1">&#xa;                    <mxGeometry x="1003" y="897" width="90" height="60" as="geometry"/>&#xa;                </mxCell>&#xa;                <mxCell id="87" value="sell price" style="ellipse;whiteSpace=wrap;html=1;rounded=0;sketch=0;fontColor=#1A1A1A;strokeColor=#FFFFFF;fillColor=#F08E81;" parent="1" vertex="1">&#xa;                    <mxGeometry x="1113" y="897" width="90" height="60" as="geometry"/>&#xa;                </mxCell>&#xa;                <mxCell id="88" value="style" style="ellipse;whiteSpace=wrap;html=1;rounded=0;sketch=0;fontColor=#1A1A1A;strokeColor=#FFFFFF;fillColor=#F08E81;" parent="1" vertex="1">&#xa;                    <mxGeometry x="1183" y="957" width="90" height="60" as="geometry"/>&#xa;                </mxCell>&#xa;                <mxCell id="89" value="size" style="ellipse;whiteSpace=wrap;html=1;rounded=0;sketch=0;fontColor=#1A1A1A;strokeColor=#FFFFFF;fillColor=#F08E81;" parent="1" vertex="1">&#xa;                    <mxGeometry x="923" y="987" width="90" height="60" as="geometry"/>&#xa;                </mxCell>&#xa;                <mxCell id="90" value="placeable on surface" style="ellipse;whiteSpace=wrap;html=1;rounded=0;sketch=0;fontColor=#1A1A1A;strokeColor=#FFFFFF;fillColor=#F08E81;" parent="1" vertex="1">&#xa;                    <mxGeometry x="1163" y="1037" width="90" height="60" as="geometry"/>&#xa;                </mxCell>&#xa;                <mxCell id="96" value="&lt;u&gt;id&lt;/u&gt;" style="ellipse;whiteSpace=wrap;html=1;rounded=0;sketch=0;fontColor=#1A1A1A;strokeColor=#FFFFFF;fillColor=#F08E81;" parent="1" vertex="1">&#xa;                    <mxGeometry x="453" y="727" width="90" height="60" as="geometry"/>&#xa;                </mxCell>&#xa;                <mxCell id="97" value="series" style="ellipse;whiteSpace=wrap;html=1;rounded=0;sketch=0;fontColor=#1A1A1A;strokeColor=#FFFFFF;fillColor=#F08E81;" parent="1" vertex="1">&#xa;                    <mxGeometry x="308" y="727" width="90" height="60" as="geometry"/>&#xa;                </mxCell>&#xa;                <mxCell id="98" value="written?" style="ellipse;whiteSpace=wrap;html=1;rounded=0;sketch=0;fontColor=#1A1A1A;strokeColor=#FFFFFF;fillColor=#F08E81;" parent="1" vertex="1">&#xa;                    <mxGeometry x="498" y="1007" width="90" height="60" as="geometry"/>&#xa;                </mxCell>&#xa;            </root>&#xa;        </mxGraphModel>&#xa;    </diagram></mxfile>